<?xml version="1.0" encoding="utf-8"?>
<!-- Generator: Adobe Illustrator 27.5.0, SVG Export Plug-In . SVG Version: 6.00 Build 0)  -->
<svg version="1.1" id="Layer_1" xmlns="http://www.w3.org/2000/svg" xmlns:xlink="http://www.w3.org/1999/xlink" x="0px" y="0px"
	 viewBox="0 0 240.81 257.96" style="enable-background:new 0 0 240.81 257.96;" xml:space="preserve">
<g>
	<ellipse style="fill:#C8D3D0;" cx="120.405" cy="241.606" rx="116.793" ry="12.485"/>
	<g>
		<g>
			<g>
				<g>
					<path style="fill:#54535A;" d="M123.793,40.397c-0.028,0-0.057,0-0.086-0.002c-1.071-0.046-1.9-0.952-1.854-2.022
						c0.01-0.237,0.257-5.853,0.591-9.369l0.032-0.336c0.431-4.652,1.866-5.116,9.41-6.801c7.764-1.734,48.121-10.602,48.528-10.691
						c1.044-0.232,2.08,0.432,2.31,1.479c0.23,1.046-0.432,2.081-1.479,2.311c-0.406,0.089-40.757,8.955-48.514,10.688
						c-2.959,0.661-5.283,1.207-6.029,1.706c-0.166,0.111-0.222,0.149-0.363,1.667l-0.032,0.346
						c-0.326,3.418-0.576,9.113-0.578,9.17C125.684,39.583,124.825,40.397,123.793,40.397z"/>
					<path style="fill:#25242D;" d="M123.792,40.882l-0.117-0.003c-0.636-0.028-1.233-0.306-1.671-0.783
						c-0.438-0.477-0.663-1.097-0.636-1.744c0.027-0.605,0.268-5.977,0.593-9.394l0.031-0.335c0.461-4.976,2.104-5.513,9.787-7.231
						c7.761-1.733,48.217-10.623,48.531-10.691c0.627-0.138,1.276-0.026,1.822,0.323c0.548,0.349,0.926,0.89,1.066,1.525
						c0.139,0.633,0.024,1.282-0.326,1.827c-0.349,0.546-0.89,0.923-1.522,1.062c-0.352,0.078-40.832,8.972-48.512,10.688
						c-2.289,0.51-5.135,1.147-5.866,1.636c-0.038,0.101-0.119,0.978-0.15,1.307l-0.032,0.347c-0.327,3.424-0.574,9.091-0.576,9.142
						C126.158,39.863,125.094,40.882,123.792,40.882z M180.835,11.613c-0.105,0-0.21,0.011-0.315,0.035
						c-0.315,0.069-40.767,8.957-48.527,10.691c-7.647,1.709-8.644,2.174-9.033,6.372l-0.031,0.336
						c-0.323,3.394-0.564,8.744-0.589,9.343c-0.017,0.391,0.118,0.763,0.381,1.05c0.262,0.286,0.62,0.454,1.009,0.47l0.064,0.487
						v-0.485c0.781,0,1.419-0.611,1.452-1.391c0.002-0.044,0.251-5.744,0.58-9.195l0.032-0.345c0.14-1.506,0.19-1.768,0.576-2.025
						c0.818-0.547,3.083-1.081,6.193-1.776c7.682-1.716,48.164-10.611,48.516-10.688c0.38-0.083,0.704-0.31,0.914-0.638
						c0.209-0.328,0.279-0.717,0.195-1.096c-0.083-0.381-0.311-0.706-0.64-0.916C181.375,11.691,181.107,11.613,180.835,11.613z"/>
				</g>
				<g>
					<path style="fill:#54535A;" d="M182.724,12.653c-0.23-1.047-1.266-1.71-2.31-1.479c-0.066,0.014-1.189,0.261-3.05,0.67
						c-0.29,2.07-1.793,2.462-7.296,3.527c-6.757,1.308-37.783,8.792-42.361,9.664c-4.578,0.872-3.27,8.065-3.197,9.373
						c0.036,0.65-1.219,0.743-2.491,0.673c-0.099,1.792-0.16,3.176-0.165,3.291c-0.046,1.07,0.783,1.976,1.854,2.022
						c0.029,0.001,0.057,0.002,0.086,0.002c1.033,0,1.892-0.814,1.937-1.856c0.002-0.057,0.252-5.752,0.578-9.17l0.032-0.346
						c0.141-1.518,0.197-1.555,0.363-1.667c0.746-0.499,3.07-1.045,6.029-1.706c7.757-1.733,48.108-10.599,48.514-10.688
						C182.292,14.734,182.955,13.699,182.724,12.653z"/>
				</g>
				<g>
					<path style="fill:#6D6D72;" d="M192.946,4.478c0,0-7.973,2.174-10.392,2.9c-2.419,0.726-3.226,3.79-2.742,6.532
						c0.484,2.742,2.177,6.451,5.726,6.613c3.548,0.161,10.07-0.733,10.07-0.733L192.946,4.478z"/>
					<path style="fill:#25242D;" d="M186.485,21.027c-0.34,0-0.665-0.007-0.97-0.021c-3.678-0.167-5.629-3.881-6.181-7.012
						c-0.513-2.906,0.381-6.272,3.08-7.081c2.398-0.719,10.323-2.882,10.403-2.904l0.514-0.14l2.84,16.333l-0.497,0.068
						C195.429,20.305,190.11,21.027,186.485,21.027z M192.559,5.086c-1.804,0.493-7.836,2.148-9.866,2.756
						c-2.157,0.648-2.843,3.5-2.404,5.984c0.491,2.777,2.165,6.071,5.27,6.212c2.893,0.126,7.898-0.461,9.485-0.664L192.559,5.086z"
						/>
				</g>
				<path style="fill:#54535A;" d="M189.956,5.899c0,0-6.16,1.711-7.272,2.053c-1.112,0.342-1.369,1.882-0.171,2.053
					c1.198,0.171,7.443-1.626,7.443-1.626V5.899z"/>
				<g style="opacity:0.55;">
					<path style="fill:#54535A;" d="M192.946,4.478c0,0-0.73,0.199-1.805,0.494c-0.362,1.33-0.65,3.339-0.294,5.982
						c0.23,1.668-3.394,2.013-6.558,2.531c-2.592,0.424-4.02-2.511-2.557-5.736c-1.777,1.106-2.345,3.757-1.921,6.161
						c0.484,2.742,2.177,6.451,5.726,6.613c3.548,0.161,10.07-0.733,10.07-0.733L192.946,4.478z"/>
				</g>
				<g>
					<path style="fill:#54535A;" d="M194.79,15.083c-0.102,0.333-0.231,0.659-0.432,0.963c-0.473,0.715-1.151,1.236-1.938,1.564
						c-1.791,0.747-3.789,1.126-5.724,1.119c-1.807-0.006-3.846,0.009-5.394-1.07c-0.087-0.061-0.155-0.132-0.234-0.198
						c0.935,1.636,2.378,2.966,4.469,3.061c3.548,0.161,10.07-0.733,10.07-0.733L194.79,15.083z"/>
				</g>
				<g>
					<path style="fill:#6D6D72;" d="M196.298,11.782c0.735,4.228,0.426,7.813-0.69,8.007c-1.116,0.194-2.617-3.076-3.352-7.304
						c-0.735-4.228-0.426-7.813,0.69-8.007C194.062,4.284,195.563,7.554,196.298,11.782z"/>
					<path style="fill:#25242D;" d="M195.515,20.284c-1.645,0-3.079-3.934-3.736-7.715c-0.681-3.918-0.633-8.27,1.084-8.568
						c1.743-0.296,3.232,3.783,3.913,7.699c0.681,3.918,0.633,8.27-1.084,8.568C195.632,20.278,195.573,20.284,195.515,20.284z
						 M193.053,4.953c-0.008,0-0.016,0.001-0.025,0.003c-0.46,0.08-1.118,2.71-0.295,7.445c0.81,4.655,2.279,6.912,2.768,6.913
						c0.008,0,0.016-0.001,0.025-0.002c0.46-0.08,1.118-2.711,0.295-7.446l0,0C195.011,7.211,193.541,4.953,193.053,4.953z"/>
				</g>
				<path style="fill:#54535A;" d="M195.844,11.585c0.479,2.755,0.278,5.091-0.449,5.217c-0.727,0.127-1.705-2.004-2.184-4.759
					s-0.278-5.091,0.45-5.217C194.387,6.699,195.365,8.83,195.844,11.585z"/>
				<path style="fill:#54535A;" d="M123.113,31.404c-0.16-2.119-0.339-4.503,1.098-6.29c1.684-1.178,4.172-1.502,6.129-2.17
					c8.255-2.245,16.596-4.12,24.964-5.881c3.66-0.74,8.949-1.813,12.595-2.413c-3.541,0.962-8.804,2.255-12.431,3.141
					c-7.357,1.778-17.69,4.146-24.941,5.872c-1.937,0.541-4.274,0.832-5.985,1.789C123.138,26.953,123.146,29.421,123.113,31.404
					L123.113,31.404z"/>
			</g>
			<g>
				<g>
					<path style="fill:#54535A;" d="M117.018,40.397c0.028,0,0.057,0,0.086-0.002c1.07-0.046,1.9-0.952,1.854-2.022
						c-0.01-0.237-0.257-5.853-0.591-9.369l-0.032-0.336c-0.431-4.652-1.866-5.116-9.41-6.801
						c-7.764-1.734-48.121-10.602-48.528-10.691c-1.044-0.232-2.08,0.432-2.31,1.479c-0.23,1.046,0.432,2.081,1.479,2.311
						c0.406,0.089,40.757,8.955,48.514,10.688c2.959,0.661,5.283,1.207,6.029,1.706c0.166,0.111,0.222,0.149,0.363,1.667
						l0.032,0.346c0.326,3.418,0.576,9.113,0.578,9.17C115.126,39.583,115.985,40.397,117.018,40.397z"/>
					<path style="fill:#25242D;" d="M117.018,40.882c-1.301,0-2.365-1.019-2.421-2.32c-0.044-1.007-0.278-6.03-0.576-9.144
						l-0.032-0.349c-0.03-0.33-0.112-1.206-0.18-1.355c-0.7-0.441-3.547-1.077-5.835-1.588c-7.68-1.716-48.16-10.61-48.512-10.688
						c-0.633-0.139-1.174-0.516-1.522-1.062c-0.349-0.546-0.465-1.194-0.326-1.827c0.139-0.635,0.518-1.176,1.066-1.525
						c0.546-0.35,1.194-0.462,1.823-0.323c0.313,0.068,40.769,8.957,48.529,10.691c7.682,1.717,9.325,2.255,9.786,7.231l0.032,0.334
						c0.325,3.418,0.565,8.79,0.592,9.391c0.028,0.651-0.197,1.27-0.635,1.748c-0.438,0.477-1.035,0.756-1.682,0.784L117.018,40.882
						z M59.976,11.613c-0.273,0-0.54,0.078-0.776,0.228c-0.33,0.21-0.557,0.535-0.64,0.916c-0.083,0.379-0.014,0.768,0.195,1.096
						c0.21,0.328,0.534,0.554,0.914,0.638c0.352,0.077,40.834,8.972,48.516,10.688c3.11,0.695,5.375,1.229,6.193,1.776
						c0.386,0.258,0.436,0.519,0.576,2.025l0.032,0.347c0.298,3.135,0.533,8.181,0.578,9.16c0.035,0.814,0.673,1.425,1.453,1.425
						v0.485l0.055-0.486c0.399-0.017,0.757-0.185,1.019-0.471c0.262-0.287,0.398-0.658,0.381-1.047
						c-0.026-0.601-0.266-5.952-0.589-9.345l-0.032-0.335c-0.389-4.2-1.386-4.665-9.032-6.374
						c-7.76-1.733-48.212-10.622-48.526-10.691C60.187,11.625,60.081,11.613,59.976,11.613z"/>
				</g>
				<g>
					<path style="fill:#54535A;" d="M58.086,12.653c0.23-1.047,1.266-1.71,2.31-1.479c0.066,0.014,1.19,0.261,3.05,0.67
						c0.29,2.07,1.793,2.462,7.296,3.527c6.757,1.308,37.784,8.792,42.361,9.664c4.577,0.872,3.27,8.065,3.197,9.373
						c-0.036,0.65,1.219,0.743,2.492,0.673c0.099,1.792,0.16,3.176,0.165,3.291c0.046,1.07-0.783,1.976-1.854,2.022
						c-0.029,0.001-0.057,0.002-0.086,0.002c-1.033,0-1.892-0.814-1.937-1.856c-0.002-0.057-0.252-5.752-0.578-9.17l-0.032-0.346
						c-0.141-1.518-0.197-1.555-0.363-1.667c-0.746-0.499-3.07-1.045-6.029-1.706c-7.757-1.733-48.108-10.599-48.514-10.688
						C58.518,14.734,57.856,13.699,58.086,12.653z"/>
				</g>
				<g>
					<path style="fill:#6D6D72;" d="M47.864,4.478c0,0,7.973,2.174,10.392,2.9c2.419,0.726,3.226,3.79,2.742,6.532
						c-0.484,2.742-2.177,6.451-5.726,6.613c-3.548,0.161-10.07-0.733-10.07-0.733L47.864,4.478z"/>
					<path style="fill:#25242D;" d="M54.325,21.027c-3.625,0-8.943-0.723-9.188-0.757l-0.497-0.068l2.839-16.333l0.514,0.14
						c0.08,0.022,8.006,2.185,10.404,2.904c2.7,0.809,3.593,4.175,3.079,7.081c-0.552,3.131-2.503,6.845-6.181,7.012
						C54.99,21.021,54.665,21.027,54.325,21.027z M45.767,19.374c1.587,0.203,6.579,0.791,9.484,0.664
						c3.104-0.141,4.779-3.435,5.27-6.212c0.439-2.484-0.246-5.337-2.403-5.984c-2.03-0.608-8.063-2.263-9.867-2.756L45.767,19.374z
						"/>
				</g>
				<path style="fill:#54535A;" d="M50.854,5.899c0,0,6.16,1.711,7.272,2.053c1.112,0.342,1.369,1.882,0.171,2.053
					C57.1,10.177,50.854,8.38,50.854,8.38V5.899z"/>
				<g style="opacity:0.55;">
					<path style="fill:#54535A;" d="M47.864,4.478c0,0,0.729,0.199,1.805,0.494c0.362,1.33,0.65,3.339,0.293,5.982
						c-0.23,1.668,3.394,2.013,6.558,2.531c2.592,0.424,4.021-2.511,2.557-5.736c1.777,1.106,2.345,3.757,1.921,6.161
						c-0.484,2.742-2.177,6.451-5.726,6.613c-3.548,0.161-10.07-0.733-10.07-0.733L47.864,4.478z"/>
				</g>
				<g>
					<path style="fill:#54535A;" d="M46.021,15.083c0.102,0.333,0.231,0.659,0.432,0.963c0.473,0.715,1.151,1.236,1.938,1.564
						c1.791,0.747,3.789,1.126,5.724,1.119c1.807-0.006,3.846,0.009,5.394-1.07c0.087-0.061,0.155-0.132,0.234-0.198
						c-0.935,1.636-2.377,2.966-4.469,3.061c-3.548,0.161-10.07-0.733-10.07-0.733L46.021,15.083z"/>
				</g>
				<g>
					<path style="fill:#6D6D72;" d="M44.512,11.782c-0.735,4.228-0.426,7.813,0.69,8.007c1.116,0.194,2.617-3.076,3.352-7.304
						c0.735-4.228,0.426-7.813-0.69-8.007C46.748,4.284,45.248,7.554,44.512,11.782z"/>
					<path style="fill:#25242D;" d="M45.297,20.284c-0.059,0-0.118-0.006-0.177-0.016c-0.8-0.138-1.284-1.123-1.44-2.927
						c-0.134-1.554-0.008-3.556,0.355-5.641C44.716,7.784,46.241,3.707,47.947,4c1.717,0.298,1.766,4.65,1.085,8.568
						C48.374,16.35,46.94,20.283,45.297,20.284z M47.756,4.953c-0.488,0-1.956,2.258-2.766,6.913l0,0
						c-0.349,2.004-0.471,3.919-0.344,5.391c0.129,1.491,0.486,2.028,0.639,2.056c0.433,0.052,1.966-2.176,2.791-6.911
						c0.823-4.735,0.166-7.366-0.296-7.446C47.773,4.954,47.765,4.953,47.756,4.953z"/>
				</g>
				<path style="fill:#54535A;" d="M44.967,11.585c-0.479,2.755-0.278,5.091,0.45,5.217c0.727,0.127,1.705-2.004,2.184-4.759
					c0.479-2.755,0.278-5.091-0.45-5.217C46.423,6.699,45.446,8.83,44.967,11.585z"/>
				<path style="fill:#54535A;" d="M117.697,31.404c0.16-2.119,0.339-4.503-1.098-6.29c-1.684-1.178-4.172-1.502-6.129-2.17
					c-8.255-2.245-16.596-4.12-24.964-5.881c-3.66-0.74-8.95-1.813-12.595-2.413c3.541,0.962,8.804,2.255,12.431,3.141
					c7.357,1.778,17.69,4.146,24.941,5.872c1.937,0.541,4.274,0.832,5.985,1.789C117.672,26.953,117.664,29.421,117.697,31.404
					L117.697,31.404z"/>
			</g>
		</g>
		<g>
			<g>
				<g>
					<polygon style="fill:#27211E;" points="39.212,231.713 41.657,242.554 50.95,242.554 52.172,231.958 					"/>
					<path style="fill:#0B0807;" d="M51.382,243.04H41.269l-2.667-11.823l14.112,0.266L51.382,243.04z M42.044,242.07h8.473
						l1.112-9.637l-11.809-0.223L42.044,242.07z"/>
				</g>
				<g>
					<polygon points="52.172,231.958 48.071,231.88 48.071,242.554 50.95,242.554 					"/>
				</g>
				<g>
					<polygon style="fill:#9F9995;" points="39.378,232.1 41.649,242.167 43.716,242.167 42.103,232.151 					"/>
				</g>
			</g>
			<g>
				<g>
					<polygon style="fill:#27211E;" points="184.581,231.713 187.026,242.554 196.319,242.554 197.542,231.958 					"/>
					<path style="fill:#0B0807;" d="M196.751,243.04h-10.112l-2.667-11.823l14.112,0.266L196.751,243.04z M187.414,242.07h8.473
						l1.112-9.637l-11.809-0.223L187.414,242.07z"/>
				</g>
				<g>
					<polygon points="197.542,231.958 193.44,231.88 193.44,242.554 196.319,242.554 					"/>
				</g>
				<g>
					<polygon style="fill:#9F9995;" points="184.748,232.1 187.018,242.167 189.085,242.167 187.472,232.151 					"/>
				</g>
			</g>
			<g>
				<path style="fill:#444444;" d="M205.396,219.199c0,0-0.788,4.726-1.772,9.845c-0.985,5.12-6.498,4.135-19.887,4.135
					c-13.389,0-42.137,0-64.977,0c-0.04,0-6.304,0-6.304,0c-22.841,0-45.875,0-59.264,0c-13.389,0-18.903,0.984-19.887-4.135
					c-0.984-5.119-1.772-9.845-1.772-9.845S205.287,219.09,205.396,219.199z"/>
				<path style="fill:#1C1A19;" d="M193.099,233.74c-1.166,0-2.434-0.016-3.811-0.032c-1.678-0.021-3.524-0.044-5.551-0.044H53.192
					c-2.027,0-3.873,0.023-5.551,0.044c-9.553,0.111-13.901,0.169-14.812-4.572c-0.974-5.067-1.767-9.81-1.774-9.857l-0.094-0.565
					h0.572c173.96-0.11,174.008-0.056,174.205,0.14l0.179,0.177l-0.042,0.247c-0.008,0.047-0.799,4.79-1.774,9.857
					C203.32,233.194,200.017,233.74,193.099,233.74z M53.192,232.695h130.546c2.032,0,3.882,0.023,5.563,0.044
					c9.26,0.112,13.089,0.159,13.847-3.786c0.779-4.045,1.44-7.883,1.677-9.278c-10.242-0.09-162.089,0.003-172.718,0.01
					c0.239,1.404,0.899,5.234,1.675,9.268c0.758,3.946,4.591,3.9,13.847,3.786C49.31,232.717,51.16,232.695,53.192,232.695z"/>
			</g>
			<g>
				<path style="fill:#444444;" d="M31.533,219.199c0,0,0.333,1.995,0.835,4.791c20.571,0.866,114.327,4.79,143.69,5.619
					c2.847,0.095,4.292,1.686,5.052,3.57c0.93,0,1.808,0,2.628,0c13.389,0,18.902,0.984,19.887-4.135
					c0.984-5.119,1.772-9.845,1.772-9.845C205.287,219.09,31.533,219.199,31.533,219.199z"/>
			</g>
			<g>
				<path style="fill:#5F6263;" d="M175.817,39.268c60.091,3.69,60.862,10.296,60.862,17.258l-3.182,152.681
					c0,6.962-2.49,9.882-9.424,10.507c-57.25,5.161-98.542,5.679-148.213,3.548c-19.581-0.84-39.03-1.613-59.122-3.548
					c-6.93-0.668-12.607-3.127-12.607-10.089V56.526c0-6.962,2.987-12.296,61.287-17.258
					C65.419,39.268,105.112,34.927,175.817,39.268z"/>
				<path style="fill:#171A1B;" d="M126.654,224.914c-16.229,0-32.863-0.396-50.815-1.166l-3.026-0.13
					c-18.216-0.779-37.053-1.584-56.121-3.421c-8.778-0.846-13.046-4.304-13.046-10.572V56.526c0-3.497,0.696-6.881,9.105-9.837
					c8.775-3.083,25.497-5.596,52.627-7.904c0.385-0.043,40.534-4.293,110.468-0.001c57.049,3.504,61.317,9.299,61.317,17.742
					l-3.182,152.692c0,7.258-2.766,10.339-9.866,10.98C188.632,223.396,158.421,224.914,126.654,224.914z M115.971,37.835
					c-32.436,0-50.235,1.886-50.499,1.914C8.851,44.569,4.616,49.521,4.616,56.526v153.099c0,5.675,3.98,8.817,12.169,9.606
					c19.042,1.835,37.866,2.639,56.07,3.418l3.026,0.129c53.048,2.277,94.583,1.282,148.149-3.547
					c6.632-0.598,8.983-3.221,8.983-10.024l3.182-152.692c0-6.412,0-13.053-60.406-16.764
					C152.384,38.315,132.316,37.835,115.971,37.835z"/>
			</g>
			<path style="fill:#323839;" d="M205.806,167.826c-30.665,1.856-60.587-7.377-87.869-20.722
				c-27.512-13.458-52.745-31.205-74.911-52.339C32.252,84.492,22.225,73.43,13.177,61.605c-2.568-3.356-5.06-6.783-7.463-10.27
				c-1.374,1.632-1.583,3.355-1.583,5.19v153.099c0,6.962,5.676,9.422,12.607,10.089c20.091,1.935,39.541,2.708,59.122,3.548
				c49.671,2.131,90.963,1.613,148.213-3.548c6.934-0.625,9.424-3.545,9.424-10.507l0.967-46.371
				C225.135,165.504,215.564,167.236,205.806,167.826z"/>
			<g>
				<path style="fill:#FDFEFE;" d="M9.115,211.079V59.783c0-6.88,2.952-12.152,60.566-17.055c0,0,39.226-4.29,109.098,0
					c32.549,1.999,47.485,4.863,54.338,8.177c-4.408-4.33-17.727-8.124-57.966-10.595c-69.872-4.29-109.098,0-109.098,0
					C8.439,45.214,5.488,50.485,5.488,57.365v151.296c0,4.423,2.324,7,5.799,8.457C9.919,215.644,9.115,213.681,9.115,211.079z"/>
			</g>
			<path style="fill:#323839;" d="M11.772,58.325c-1.698,21.281-5.348,94.041,3.189,150.221c0.241,1.589,1.624,2.748,3.192,3.001
				c17.148,2.77,122.598,12.119,204.712-0.117c1.44-0.215,2.529-1.426,2.738-2.884c2.099-14.7,6.322-87.935,3.161-150.869
				c-0.078-1.546-1.34-2.767-2.845-3.041c-16.21-2.95-105.366-22.239-210.671-0.408C13.29,54.634,11.933,56.306,11.772,58.325z"/>
			<g>
				<path style="fill:#444444;" d="M224.236,60.503c-0.074-1.458-1.285-2.61-2.727-2.868c-4.708-0.843-15.846-3.101-31.88-5.267
					c4.102,1.608,8.066,4.371,10.13,9.117c5.38,12.373,3.766,57.563,3.497,71.55c-0.269,13.987-4.035,47.072-9.415,65.364
					c-1.745,6.544-7.736,9.549-15.677,11.313c13.762-0.915,27.396-2.265,40.418-4.174c1.38-0.202,2.424-1.345,2.624-2.721
					C223.217,188.95,227.265,119.868,224.236,60.503z"/>
				<path style="fill:#292424;" d="M178.196,210.195l-0.137-0.958c9.108-2.021,13.831-5.403,15.314-10.965
					c5.32-18.088,9.118-50.722,9.398-65.248c0.025-1.266,0.06-2.788,0.1-4.518c0.387-16.66,1.294-55.674-3.557-66.83
					c-1.736-3.993-5.055-6.974-9.862-8.859l-3.753-1.472l3.996,0.54c13.245,1.789,23.018,3.616,28.857,4.707
					c1.205,0.225,2.222,0.416,3.044,0.563c1.728,0.31,3.043,1.707,3.125,3.321l0,0c2.979,58.377-0.822,127.16-3.033,142.407
					c-0.235,1.616-1.482,2.904-3.035,3.133C206.338,207.823,192.727,209.229,178.196,210.195z M192.722,53.285
					c3.507,1.955,6.017,4.639,7.482,8.007c4.935,11.351,4.057,49.099,3.636,67.239c-0.04,1.728-0.075,3.248-0.1,4.514
					c-0.28,14.578-4.095,47.338-9.434,65.49c-1.298,4.866-4.848,8.158-11.308,10.35c12.683-0.943,24.609-2.227,35.513-3.827
					c1.13-0.166,2.041-1.116,2.215-2.311c1.771-12.214,6.178-80.428,3.026-142.219c-0.061-1.169-1.039-2.184-2.327-2.416
					c-0.823-0.148-1.843-0.338-3.051-0.564C213.017,56.547,204.347,54.926,192.722,53.285z"/>
			</g>
			<path style="fill:#444444;" d="M224.236,60.503c-0.074-1.458-1.285-2.61-2.727-2.868c-0.04-0.007-0.089-0.016-0.13-0.024
				c1.327,11.947,1.35,24.071,1.381,36.059c0.018,6.891,0.069,13.78,0.148,20.67c0.081,7.047-0.246,14.112-0.625,21.147
				c-0.36,6.693-1.059,13.399-1.119,20.103c-0.051,5.608,0.182,11.355-1.175,16.843c-0.651,2.634-1.667,5.243-3.419,7.346
				c-1.551,1.862-3.533,3.288-5.709,4.334c-4.456,2.141-9.494,2.694-14.333,3.388c-0.839,3.967-1.738,7.666-2.688,10.897
				c-1.745,6.544-7.736,9.549-15.677,11.313c13.762-0.915,27.396-2.265,40.418-4.174c1.38-0.202,2.424-1.345,2.624-2.721
				C223.217,188.95,227.265,119.868,224.236,60.503z"/>
			<g>
				<path style="fill:#444444;" d="M196.803,198.398c5.211-18.291,8.858-51.376,9.119-65.364c0.26-13.987,1.824-59.177-3.387-71.55
					c-1.724-4.094-4.819-6.706-8.187-8.381c-1.634-0.245-3.322-0.491-5.079-0.736c3.973,1.608,7.813,4.371,9.812,9.117
					c5.211,12.373,3.648,57.563,3.387,71.55c-0.26,13.987-3.908,47.072-9.119,65.364c-1.69,6.544-7.494,9.549-15.185,11.313
					c1.642-0.113,3.282-0.232,4.92-0.359C190.042,207.544,195.222,204.52,196.803,198.398z"/>
			</g>
			<g>
				<path style="fill:#CACAC9;" d="M193.841,198.398c5.38-18.291,9.145-51.376,9.415-65.364c0.269-13.987,1.883-59.177-3.497-71.55
					c-2.064-4.746-6.028-7.509-10.13-9.117c-36.878-4.981-99.696-9.471-170.043,4.883c-1.877,0.383-3.178,1.96-3.332,3.864
					c-1.627,20.074-5.126,88.708,3.057,141.702c0.231,1.499,1.556,2.592,3.059,2.831c13.716,2.18,86.379,8.68,155.794,4.064
					C186.105,207.948,192.096,204.943,193.841,198.398z"/>
				<path style="fill:#979884;" d="M126.527,211.791c-50.318,0-94.078-4.05-104.233-5.665c-1.788-0.284-3.212-1.615-3.462-3.237
					c-7.551-48.903-5.304-114.147-3.061-141.814c0.174-2.154,1.669-3.882,3.718-4.301c67.946-13.861,130.06-10.309,170.206-4.887
					l0.112,0.028c5.056,1.984,8.555,5.138,10.398,9.376c4.935,11.351,4.057,49.099,3.636,67.239c-0.04,1.728-0.075,3.248-0.1,4.514
					c-0.28,14.577-4.094,47.331-9.432,65.484c-1.59,5.952-6.538,9.546-16.04,11.656
					C160.966,211.337,143.376,211.791,126.527,211.791z M118.06,48.06c-29.749,0-63.28,2.504-98.377,9.665
					c-1.623,0.332-2.806,1.709-2.946,3.428c-2.239,27.628-4.484,92.775,3.053,141.589c0.187,1.21,1.279,2.207,2.655,2.426
					c13.534,2.151,86.867,8.636,155.686,4.059c9.035-2.011,13.758-5.393,15.242-10.954l0.004-0.011
					c5.316-18.077,9.115-50.711,9.394-65.236c0.025-1.266,0.06-2.788,0.1-4.518c0.387-16.66,1.294-55.674-3.557-66.83
					c-1.73-3.978-5.03-6.951-9.808-8.838C170.185,50.233,145.76,48.06,118.06,48.06z"/>
			</g>
			<path style="opacity:0.54;fill:#C7C7C4;" d="M187.331,172.527c-3.509,3.05-7.558,5.093-12.151,5.87
				c-2.428,0.411-4.878,0.491-7.323,0.727c-2.963,0.287-5.932,0.521-8.903,0.706c-12.473,0.779-25,0.743-37.476,0.028
				c-11.436-0.656-22.949-1.077-34.334-2.378c-11.051-1.263-22.138-3.598-32.066-8.785c-16.088-8.405-27.636-22.944-34.594-39.496
				c-2.674-6.363-4.767-13.007-6.297-19.792c-0.397,28.381,0.49,63.402,5.124,93.41c0.231,1.499,1.556,2.592,3.059,2.831
				c13.716,2.18,86.379,8.68,155.794,4.064c7.941-1.763,13.932-4.769,15.677-11.313c3.358-11.417,6.087-28.598,7.729-43.301
				C197.526,161.471,193.042,167.564,187.331,172.527z"/>
			<g>
				<path style="fill:#434343;" d="M211.149,185.754c-3.557,0-6.441,2.884-6.441,6.441c0,3.557,2.884,6.441,6.441,6.441
					c3.558,0,6.441-2.884,6.441-6.441C217.59,188.638,214.706,185.754,211.149,185.754z"/>
				<path style="fill:#434343;" d="M219.374,95.177h-11.027c-0.953,0-1.725,0.772-1.725,1.725v5.463
					c0,0.953,0.772,1.725,1.725,1.725h11.027c0.953,0,1.725-0.772,1.725-1.725v-5.463C221.099,95.949,220.327,95.177,219.374,95.177
					z"/>
				<path style="fill:#434343;" d="M219.374,111.288h-11.027c-0.953,0-1.725,0.772-1.725,1.725v5.464
					c0,0.953,0.772,1.725,1.725,1.725h11.027c0.953,0,1.725-0.772,1.725-1.725v-5.464
					C221.099,112.061,220.327,111.288,219.374,111.288z"/>
				<path style="fill:#434343;" d="M219.374,127.4h-11.027c-0.953,0-1.725,0.772-1.725,1.725v5.464c0,0.953,0.772,1.725,1.725,1.725
					h11.027c0.953,0,1.725-0.772,1.725-1.725v-5.464C221.099,128.172,220.327,127.4,219.374,127.4z"/>
				<path style="fill:#434343;" d="M219.374,143.511h-11.027c-0.953,0-1.725,0.772-1.725,1.725v5.464
					c0,0.952,0.772,1.725,1.725,1.725h11.027c0.953,0,1.725-0.772,1.725-1.725v-5.464
					C221.099,144.283,220.327,143.511,219.374,143.511z"/>
				<path style="fill:#434343;" d="M219.374,155.018h-11.027c-0.953,0-1.725,0.772-1.725,1.725v11.824
					c0,0.953,0.772,1.725,1.725,1.725h11.027c0.953,0,1.725-0.772,1.725-1.725v-11.824
					C221.099,155.79,220.327,155.018,219.374,155.018z"/>
			</g>
			<g>
				<circle style="fill:#140000;" cx="212.197" cy="189.598" r="6.441"/>
				<g>
					<circle style="fill:#D0CED1;" cx="212.197" cy="189.598" r="5.595"/>
					<path style="fill:#79767C;" d="M212.197,195.678c-3.352,0-6.081-2.728-6.081-6.081s2.728-6.08,6.081-6.08
						c3.352,0,6.081,2.727,6.081,6.08S215.549,195.678,212.197,195.678z M212.197,184.488c-2.818,0-5.111,2.292-5.111,5.11
						c0,2.818,2.292,5.111,5.111,5.111c2.818,0,5.111-2.292,5.111-5.111C217.307,186.781,215.015,184.488,212.197,184.488z"/>
				</g>
				<path style="fill:#6A6C73;" d="M206.616,189.744c0.079,3.021,2.54,5.45,5.581,5.45c3.031,0,5.484-2.413,5.578-5.421
					C214.055,189.779,210.335,189.763,206.616,189.744z"/>
				<path style="fill:#555356;" d="M215.735,189.652c0,1.954-1.584,3.539-3.539,3.539s-3.538-1.584-3.538-3.539
					s1.584-3.538,3.538-3.538S215.735,187.698,215.735,189.652z"/>
				<path style="fill:#E90024;" d="M215.331,189.652c0,1.731-1.403,3.135-3.135,3.135c-1.731,0-3.134-1.403-3.134-3.135
					c0-1.731,1.403-3.135,3.134-3.135C213.928,186.518,215.331,187.921,215.331,189.652z"/>
				<path style="fill:#AE0024;" d="M214.846,189.652c0,1.463-1.186,2.649-2.649,2.649c-1.463,0-2.649-1.186-2.649-2.649
					c0-1.463,1.186-2.649,2.649-2.649C213.66,187.004,214.846,188.19,214.846,189.652z"/>
			</g>
			<g>
				<g>
					<path style="fill:#140000;" d="M220.422,101.493h-11.027c-0.953,0-1.725-0.772-1.725-1.725v-5.464
						c0-0.953,0.772-1.725,1.725-1.725h11.027c0.953,0,1.725,0.772,1.725,1.725v5.464
						C222.147,100.721,221.374,101.493,220.422,101.493z"/>
					<g>
						<path style="fill:#D0CED1;" d="M219.909,100.204h-10.002c-0.795,0-1.439-0.644-1.439-1.439v-4.094
							c0-0.795,0.644-1.439,1.439-1.439h10.002c0.795,0,1.439,0.644,1.439,1.439v4.094
							C221.348,99.56,220.704,100.204,219.909,100.204z"/>
						<path style="fill:#79767C;" d="M219.91,100.447h-10.002c-0.927,0-1.681-0.754-1.681-1.681v-4.094
							c0-0.927,0.754-1.681,1.681-1.681h10.002c0.927,0,1.681,0.754,1.681,1.681v4.094
							C221.591,99.693,220.837,100.447,219.91,100.447z M209.907,93.475c-0.659,0-1.196,0.537-1.196,1.196v4.094
							c0,0.659,0.537,1.196,1.196,1.196h10.002c0.659,0,1.196-0.537,1.196-1.196v-4.094c0-0.659-0.537-1.196-1.196-1.196H209.907z"
							/>
					</g>
					<path style="fill:#555356;" d="M220.027,99.894h-9.546c-0.482,0-0.873-0.391-0.873-0.873v-2.049
						c0-0.482,0.391-0.873,0.873-0.873h9.546c0.482,0,0.873,0.391,0.873,0.873v2.049C220.9,99.503,220.509,99.894,220.027,99.894z"
						/>
				</g>
				<g>
					<path style="fill:#140000;" d="M220.422,117.605h-11.027c-0.953,0-1.725-0.772-1.725-1.725v-5.464
						c0-0.953,0.772-1.725,1.725-1.725h11.027c0.953,0,1.725,0.772,1.725,1.725v5.464
						C222.147,116.832,221.374,117.605,220.422,117.605z"/>
					<g>
						<path style="fill:#D0CED1;" d="M219.909,116.315h-10.002c-0.795,0-1.439-0.644-1.439-1.439v-4.094
							c0-0.795,0.644-1.439,1.439-1.439h10.002c0.795,0,1.439,0.644,1.439,1.439v4.094
							C221.348,115.671,220.704,116.315,219.909,116.315z"/>
						<path style="fill:#79767C;" d="M219.91,116.558h-10.002c-0.927,0-1.681-0.754-1.681-1.681v-4.094
							c0-0.926,0.754-1.68,1.681-1.68h10.002c0.927,0,1.681,0.754,1.681,1.68v4.094C221.591,115.804,220.837,116.558,219.91,116.558
							z M209.907,109.587c-0.659,0-1.196,0.536-1.196,1.195v4.094c0,0.659,0.537,1.196,1.196,1.196h10.002
							c0.659,0,1.196-0.537,1.196-1.196v-4.094c0-0.659-0.537-1.195-1.196-1.195H209.907z"/>
					</g>
					<path style="fill:#555356;" d="M220.027,116.005h-9.546c-0.482,0-0.873-0.391-0.873-0.873v-2.049
						c0-0.482,0.391-0.873,0.873-0.873h9.546c0.482,0,0.873,0.391,0.873,0.873v2.049C220.9,115.614,220.509,116.005,220.027,116.005
						z"/>
				</g>
				<g>
					<path style="fill:#140000;" d="M220.422,133.716h-11.027c-0.953,0-1.725-0.772-1.725-1.725v-5.464
						c0-0.953,0.772-1.725,1.725-1.725h11.027c0.953,0,1.725,0.772,1.725,1.725v5.464
						C222.147,132.944,221.374,133.716,220.422,133.716z"/>
					<g>
						<path style="fill:#D0CED1;" d="M219.909,132.427h-10.002c-0.795,0-1.439-0.644-1.439-1.439v-4.094
							c0-0.795,0.644-1.439,1.439-1.439h10.002c0.795,0,1.439,0.644,1.439,1.439v4.094
							C221.348,131.783,220.704,132.427,219.909,132.427z"/>
						<path style="fill:#79767C;" d="M219.91,132.669h-10.002c-0.927,0-1.681-0.754-1.681-1.681v-4.093
							c0-0.927,0.754-1.681,1.681-1.681h10.002c0.927,0,1.681,0.754,1.681,1.681v4.093
							C221.591,131.915,220.837,132.669,219.91,132.669z M209.907,125.698c-0.659,0-1.196,0.537-1.196,1.196v4.093
							c0,0.659,0.537,1.196,1.196,1.196h10.002c0.659,0,1.196-0.537,1.196-1.196v-4.093c0-0.659-0.537-1.196-1.196-1.196H209.907z"
							/>
					</g>
					<path style="fill:#555356;" d="M220.027,132.117h-9.546c-0.482,0-0.873-0.391-0.873-0.873v-2.049
						c0-0.482,0.391-0.873,0.873-0.873h9.546c0.482,0,0.873,0.391,0.873,0.873v2.049C220.9,131.726,220.509,132.117,220.027,132.117
						z"/>
				</g>
				<g>
					<path style="fill:#140000;" d="M220.422,149.828h-11.027c-0.953,0-1.725-0.772-1.725-1.725v-5.464
						c0-0.953,0.772-1.725,1.725-1.725h11.027c0.953,0,1.725,0.772,1.725,1.725v5.464
						C222.147,149.055,221.374,149.828,220.422,149.828z"/>
					<g>
						<path style="fill:#D0CED1;" d="M219.909,148.538h-10.002c-0.795,0-1.439-0.644-1.439-1.439v-4.094
							c0-0.795,0.644-1.439,1.439-1.439h10.002c0.795,0,1.439,0.644,1.439,1.439v4.094
							C221.348,147.894,220.704,148.538,219.909,148.538z"/>
						<path style="fill:#79767C;" d="M219.91,148.781h-10.002c-0.927,0-1.681-0.754-1.681-1.681v-4.094
							c0-0.927,0.754-1.681,1.681-1.681h10.002c0.927,0,1.681,0.754,1.681,1.681v4.094
							C221.591,148.027,220.837,148.781,219.91,148.781z M209.907,141.809c-0.659,0-1.196,0.537-1.196,1.196v4.094
							c0,0.659,0.537,1.196,1.196,1.196h10.002c0.659,0,1.196-0.537,1.196-1.196v-4.094c0-0.659-0.537-1.196-1.196-1.196H209.907z"
							/>
					</g>
					<path style="fill:#555356;" d="M220.027,148.228h-9.546c-0.482,0-0.873-0.391-0.873-0.873v-2.049
						c0-0.482,0.391-0.873,0.873-0.873h9.546c0.482,0,0.873,0.391,0.873,0.873v2.049C220.9,147.837,220.509,148.228,220.027,148.228
						z"/>
				</g>
			</g>
			<g>
				<path style="fill:#140000;" d="M220.422,167.694h-11.027c-0.953,0-1.725-0.772-1.725-1.725v-11.824
					c0-0.953,0.772-1.725,1.725-1.725h11.027c0.953,0,1.725,0.772,1.725,1.725v11.824
					C222.147,166.922,221.374,167.694,220.422,167.694z"/>
				<g>
					<path style="fill:#D0CED1;" d="M219.909,166.405h-10.002c-0.795,0-1.439-0.644-1.439-1.439v-10.454
						c0-0.795,0.644-1.439,1.439-1.439h10.002c0.795,0,1.439,0.644,1.439,1.439v10.454
						C221.348,165.761,220.704,166.405,219.909,166.405z"/>
					<path style="fill:#79767C;" d="M219.91,166.648h-10.002c-0.927,0-1.681-0.754-1.681-1.681v-10.454
						c0-0.927,0.754-1.681,1.681-1.681h10.002c0.927,0,1.681,0.754,1.681,1.681v10.454
						C221.591,165.893,220.837,166.648,219.91,166.648z M209.907,153.316c-0.659,0-1.196,0.537-1.196,1.196v10.454
						c0,0.659,0.537,1.196,1.196,1.196h10.002c0.659,0,1.196-0.537,1.196-1.196v-10.454c0-0.659-0.537-1.196-1.196-1.196H209.907z"
						/>
				</g>
				<path style="fill:#140000;" d="M221.387,156.552h-12.896c-0.306,0-0.553-0.248-0.553-0.553v-0.365
					c0-0.305,0.248-0.553,0.553-0.553h12.896c0.305,0,0.553,0.248,0.553,0.553v0.365
					C221.94,156.304,221.692,156.552,221.387,156.552z"/>
				<g>
					<path style="fill:#140000;" d="M221.387,155.947h-12.896c-0.263,0-0.473-0.188-0.529-0.434c-0.009,0.04-0.024,0.077-0.024,0.12
						v0.365c0,0.306,0.248,0.553,0.553,0.553h12.896c0.305,0,0.553-0.248,0.553-0.553v-0.365c0-0.042-0.015-0.08-0.024-0.12
						C221.86,155.76,221.65,155.947,221.387,155.947z"/>
					<path style="fill:#555356;" d="M221.387,155.08h-12.896c-0.263,0-0.473,0.187-0.529,0.433c0.056,0.246,0.266,0.434,0.529,0.434
						h12.896c0.263,0,0.473-0.188,0.529-0.434C221.86,155.268,221.65,155.08,221.387,155.08z"/>
				</g>
				<g>
					<path style="fill:#140000;" d="M221.387,159.012h-12.896c-0.263,0-0.473-0.188-0.529-0.434c-0.009,0.04-0.024,0.077-0.024,0.12
						v0.365c0,0.305,0.248,0.553,0.553,0.553h12.896c0.305,0,0.553-0.248,0.553-0.553v-0.365c0-0.042-0.015-0.08-0.024-0.12
						C221.86,158.824,221.65,159.012,221.387,159.012z"/>
					<path style="fill:#555356;" d="M221.387,158.145h-12.896c-0.263,0-0.473,0.187-0.529,0.433
						c0.056,0.246,0.266,0.434,0.529,0.434h12.896c0.263,0,0.473-0.188,0.529-0.434C221.86,158.332,221.65,158.145,221.387,158.145z
						"/>
				</g>
				<g>
					<path style="fill:#140000;" d="M221.387,162.076h-12.896c-0.263,0-0.473-0.187-0.529-0.434c-0.009,0.04-0.024,0.077-0.024,0.12
						v0.365c0,0.305,0.248,0.553,0.553,0.553h12.896c0.305,0,0.553-0.248,0.553-0.553v-0.365c0-0.043-0.015-0.08-0.024-0.12
						C221.86,161.889,221.65,162.076,221.387,162.076z"/>
					<path style="fill:#555356;" d="M221.387,161.209h-12.896c-0.263,0-0.473,0.187-0.529,0.433
						c0.056,0.246,0.266,0.434,0.529,0.434h12.896c0.263,0,0.473-0.187,0.529-0.434C221.86,161.396,221.65,161.209,221.387,161.209z
						"/>
				</g>
				<g>
					<path style="fill:#140000;" d="M221.387,165.14h-12.896c-0.263,0-0.473-0.188-0.529-0.434c-0.009,0.04-0.024,0.077-0.024,0.12
						v0.365c0,0.306,0.248,0.553,0.553,0.553h12.896c0.305,0,0.553-0.248,0.553-0.553v-0.365c0-0.042-0.015-0.08-0.024-0.12
						C221.86,164.953,221.65,165.14,221.387,165.14z"/>
					<path style="fill:#555356;" d="M221.387,164.273h-12.896c-0.263,0-0.473,0.187-0.529,0.433
						c0.056,0.246,0.266,0.434,0.529,0.434h12.896c0.263,0,0.473-0.188,0.529-0.434C221.86,164.461,221.65,164.273,221.387,164.273z
						"/>
				</g>
			</g>
			<path style="fill:#CACACA;" d="M31.532,216.829c-0.144,1.367-2.594,2.23-5.472,1.927c-2.878-0.303-5.095-1.656-4.951-3.023
				c0.144-1.367,2.594-2.23,5.472-1.927C29.458,214.109,31.675,215.462,31.532,216.829z"/>
			<g>
				<path style="fill:#C7C7C4;" d="M87.744,205.918c-56.612-3.002-61.329-7.72-65.189-23.588
					c-2.684-11.034-6.404-46.74-8.422-67.907c-0.225,27.422,0.814,60.129,5.178,88.394c0.231,1.499,1.556,2.592,3.059,2.831
					c13.716,2.18,86.379,8.68,155.794,4.064c7.432-1.65,13.155-4.39,15.289-10.099C179.449,206.988,135.931,208.473,87.744,205.918z
					"/>
			</g>
			<path style="fill:#CACACA;" d="M104.041,54.095c0,0,56.612-0.429,81.058,5.146c9.435,1.715,14.582,5.575,14.153,27.019
				c-0.429,21.444-0.429,40.743-2.573,56.612c-2.144,15.868-10.293,28.306-41.172,31.308c-30.879,3.002-90.064,0.858-109.364-18.871
				c-19.299-19.728-25.304-33.024-27.019-60.472s6.004-30.879,14.582-32.595S53.434,56.24,104.041,54.095z"/>
			<path style="fill:#FFFFFF;" d="M27.542,189.556c0,0-7.308-60.994,1.687-100.064c4.778-18.551,7.87-22.486,10.962-26.703
				c3.092-4.216,4.579-6.332-5.622-4.216c-10.283,2.133-13.211,2.53-14.335,8.432c-1.124,5.903-1.968,37.946-1.124,59.308
				C19.953,147.675,27.542,189.556,27.542,189.556z"/>
			<path style="fill:#CACACA;" d="M133.54,214.711c0,0-55.41,3.475-102.957-3.292c-6.949-0.732-8.412-4.023-0.366-3.109
				C38.264,209.225,117.082,214.528,133.54,214.711z"/>
			<path style="fill:#444444;" d="M34.257,224.889c0,0,0.35,5.56,3.597,6.065c3.247,0.505,115.716,1.26,115.716,1.26
				s-90.124-2.725-97.758-2.617C48.178,229.704,36.679,230.289,34.257,224.889z"/>
		</g>
	</g>
</g>
</svg>
