<?xml version="1.0" encoding="utf-8"?>
<!-- Generator: Adobe Illustrator 27.5.0, SVG Export Plug-In . SVG Version: 6.00 Build 0)  -->
<svg version="1.1" xmlns="http://www.w3.org/2000/svg" xmlns:xlink="http://www.w3.org/1999/xlink" x="0px" y="0px"
	 viewBox="0 0 500 500" style="enable-background:new 0 0 500 500;" xml:space="preserve">
<g id="Background_Simple">
	<g>
		<path style="fill:#92E3A9;" d="M312.545,59.2c0,0-78.574-24.379-149.972,23.108C91.176,129.794,60.401,219.163,33.566,290.848
			c-26.834,71.685-2.407,142.317,57.417,172.375c59.824,30.057,94.87-19.691,174.938-25.572
			c80.068-5.881,102.594,4.894,165.47-44.388c62.877-49.281,66.13-159.258,7.097-237.921C379.454,76.679,312.545,59.2,312.545,59.2z
			"/>
		<path style="opacity:0.7;fill:#FFFFFF;" d="M312.545,59.2c0,0-78.574-24.379-149.972,23.108
			C91.176,129.794,60.401,219.163,33.566,290.848c-26.834,71.685-2.407,142.317,57.417,172.375
			c59.824,30.057,94.87-19.691,174.938-25.572c80.068-5.881,102.594,4.894,165.47-44.388c62.877-49.281,66.13-159.258,7.097-237.921
			C379.454,76.679,312.545,59.2,312.545,59.2z"/>
	</g>
</g>
<g id="Milk">
	<g>
		<g>
			<path style="fill:#FFFFFF;stroke:#263238;stroke-miterlimit:10;" d="M149.933,198.181c-6.812-9.731-25.828-22.713-31.858-26.693
				H82.412c-10.174,6.897-38.825,27.029-41.212,36.579c-2.907,11.629,0,194.791,0,194.791s3.489,8.141,7.559,8.722
				c4.07,0.581,103.501,0,103.501,0s6.396-1.163,6.978-13.956c0.581-12.792,0-118.037,0-118.037S158.074,209.81,149.933,198.181z
				 M146.445,274.644c0,5.941-4.816,10.757-10.757,10.757c-5.941,0-10.757-4.816-10.757-10.757v-59.31
				c0-5.941,4.816-10.757,10.757-10.757c5.941,0,10.757,4.816,10.757,10.757V274.644z"/>
			<rect x="80.676" y="158.593" style="fill:#FFFFFF;stroke:#263238;stroke-miterlimit:10;" width="38.682" height="14.184"/>
			<line style="fill:none;stroke:#263238;stroke-miterlimit:10;" x1="123.186" y1="217.046" x2="123.186" y2="206.903"/>
			<path style="fill:none;stroke:#263238;stroke-miterlimit:10;" d="M142.679,297.296c-2.876,1.015-6.119,0.825-9.608-0.266
				c-9.303-2.907-9.885-18.025-9.885-18.025v-57.729"/>
			<path style="fill:none;stroke:#263238;stroke-miterlimit:10;" d="M153.422,280.749c-1.633,7.347-4.157,12.02-7.334,14.614"/>
			<path style="fill:#263238;stroke:#263238;stroke-miterlimit:10;" d="M121.96,167.464H78.35v-21.33
				c0-0.744,0.603-1.347,1.347-1.347h40.916c0.744,0,1.347,0.603,1.347,1.347V167.464z"/>
		</g>
		<rect x="43.69" y="258.277" style="fill:#92E3A9;" width="62.825" height="101.758"/>
	</g>
</g>
<g id="Fruits">
	<g>
		<g>
			<path style="fill:#92E3A9;stroke:#263238;stroke-miterlimit:10;" d="M307.146,199.66c1.533,5.908-2.014,11.94-7.922,13.473
				c-5.908,1.533-11.94-2.014-13.473-7.922c-1.533-5.908,2.014-11.94,7.922-13.473C299.581,190.206,305.613,193.752,307.146,199.66z
				"/>
			
				<ellipse transform="matrix(0.216 -0.9764 0.9764 0.216 20.5622 447.0655)" style="fill:#263238;stroke:#263238;stroke-miterlimit:10;" cx="288.677" cy="210.728" rx="11.051" ry="11.052"/>
			<path style="fill:#263238;stroke:#263238;stroke-miterlimit:10;" d="M281.971,207.686c1.533,5.908-2.014,11.94-7.922,13.473
				c-5.908,1.533-11.94-2.014-13.473-7.922c-1.533-5.908,2.014-11.94,7.922-13.473C274.406,198.232,280.438,201.778,281.971,207.686
				z"/>
			<path style="fill:#263238;stroke:#263238;stroke-miterlimit:10;" d="M276.624,221.816c1.533,5.908-2.014,11.94-7.922,13.473
				c-5.908,1.533-11.94-2.014-13.473-7.922c-1.533-5.908,2.014-11.94,7.922-13.473C269.059,212.361,275.091,215.908,276.624,221.816
				z"/>
			<path style="fill:#263238;stroke:#263238;stroke-miterlimit:10;" d="M261.782,231.801c1.533,5.908-2.014,11.94-7.922,13.473
				c-5.908,1.533-11.94-2.014-13.473-7.922c-1.533-5.908,2.014-11.94,7.922-13.473C254.217,222.346,260.249,225.893,261.782,231.801
				z"/>
			<path style="fill:#263238;stroke:#263238;stroke-miterlimit:10;" d="M289.345,248.392c1.533,5.908-2.014,11.94-7.922,13.473
				c-5.908,1.533-11.94-2.014-13.473-7.922c-1.533-5.908,2.014-11.94,7.922-13.473C281.78,238.937,287.812,242.484,289.345,248.392z
				"/>
			<path style="fill:#263238;stroke:#263238;stroke-miterlimit:10;" d="M302.685,270.077c1.533,5.908-2.014,11.94-7.922,13.473
				c-5.908,1.533-11.94-2.014-13.473-7.922c-1.533-5.908,2.014-11.94,7.922-13.473C295.12,260.622,301.152,264.168,302.685,270.077z
				"/>
			<path style="fill:#263238;stroke:#263238;stroke-miterlimit:10;" d="M320.029,287.393c1.533,5.908-2.014,11.94-7.922,13.473
				c-5.908,1.533-11.94-2.014-13.473-7.922c-1.533-5.908,2.014-11.94,7.922-13.473C312.464,277.939,318.496,281.486,320.029,287.393
				z"/>
			<path style="fill:#263238;stroke:#263238;stroke-miterlimit:10;" d="M351.247,286.765c1.533,5.908-2.014,11.94-7.922,13.473
				c-5.908,1.533-11.94-2.014-13.473-7.922c-1.533-5.908,2.014-11.94,7.922-13.473C343.682,277.311,349.714,280.857,351.247,286.765
				z"/>
			<path style="fill:#263238;stroke:#263238;stroke-miterlimit:10;" d="M325.002,300.129c1.533,5.908-2.014,11.94-7.922,13.473
				c-5.908,1.533-11.94-2.014-13.473-7.922c-1.533-5.908,2.014-11.94,7.922-13.473C317.437,290.675,323.469,294.222,325.002,300.129
				z"/>
			<path style="fill:#263238;stroke:#263238;stroke-miterlimit:10;" d="M328.219,269.429c1.533,5.908-2.014,11.94-7.922,13.473
				c-5.908,1.533-11.94-2.014-13.473-7.922c-1.533-5.908,2.014-11.94,7.922-13.473C320.654,259.974,326.686,263.521,328.219,269.429
				z"/>
			<path style="fill:#263238;stroke:#263238;stroke-miterlimit:10;" d="M325.675,251.559c1.533,5.908-2.014,11.94-7.922,13.473
				c-5.908,1.533-11.94-2.014-13.473-7.922c-1.533-5.908,2.014-11.94,7.922-13.473C318.11,242.104,324.142,245.651,325.675,251.559z
				"/>
			<path style="fill:#263238;stroke:#263238;stroke-miterlimit:10;" d="M327.819,240.243c1.533,5.908-2.014,11.94-7.922,13.473
				c-5.908,1.533-11.94-2.014-13.473-7.922c-1.533-5.908,2.014-11.94,7.922-13.473S326.287,234.335,327.819,240.243z"/>
			
				<ellipse transform="matrix(0.8587 -0.5124 0.5124 0.8587 -74.1851 190.449)" style="fill:#263238;stroke:#263238;stroke-miterlimit:10;" cx="308.304" cy="229.766" rx="11.052" ry="11.052"/>
		</g>
		<g>
			<path style="fill:#92E3A9;stroke:#263238;stroke-miterlimit:10;" d="M244.905,213.418c1.533,5.908-2.014,11.94-7.922,13.473
				c-5.908,1.533-11.94-2.014-13.473-7.922c-1.533-5.908,2.014-11.94,7.922-13.473C237.34,203.964,243.372,207.51,244.905,213.418z"
				/>
			<path style="fill:#92E3A9;stroke:#263238;stroke-miterlimit:10;" d="M255.677,221.052c1.754,6.762-2.305,13.666-9.067,15.421
				c-6.762,1.755-13.666-2.305-15.421-9.067c-1.755-6.762,2.305-13.666,9.067-15.421
				C247.019,210.231,253.923,214.29,255.677,221.052z"/>
			<path style="fill:#92E3A9;stroke:#263238;stroke-miterlimit:10;" d="M260.018,224.44c1.533,5.908-2.014,11.94-7.922,13.473
				c-5.908,1.533-11.94-2.014-13.473-7.922c-1.533-5.908,2.014-11.94,7.922-13.473C252.453,214.986,258.485,218.532,260.018,224.44z
				"/>
			<path style="fill:#92E3A9;stroke:#263238;stroke-miterlimit:10;" d="M251.985,200.822c1.237,4.768-1.625,9.636-6.393,10.873
				c-4.768,1.237-9.636-1.625-10.873-6.393c-1.237-4.768,1.625-9.636,6.393-10.873C245.88,193.192,250.748,196.054,251.985,200.822z
				"/>
			<path style="fill:#92E3A9;stroke:#263238;stroke-miterlimit:10;" d="M275.999,222.973c1.237,4.768-1.625,9.636-6.393,10.873
				c-4.768,1.237-9.636-1.625-10.873-6.393c-1.237-4.768,1.625-9.636,6.393-10.873C269.894,215.343,274.762,218.205,275.999,222.973
				z"/>
			<path style="fill:#92E3A9;stroke:#263238;stroke-miterlimit:10;" d="M283.843,236.788c1.533,5.908-2.014,11.94-7.922,13.473
				c-5.908,1.533-11.94-2.014-13.473-7.922c-1.533-5.908,2.014-11.94,7.922-13.473C276.279,227.334,282.31,230.88,283.843,236.788z"
				/>
			<path style="fill:#92E3A9;stroke:#263238;stroke-miterlimit:10;" d="M292.375,217.838c1.533,5.908-2.014,11.94-7.922,13.473
				c-5.908,1.533-11.94-2.014-13.473-7.922c-1.533-5.908,2.014-11.94,7.922-13.473C284.811,208.383,290.843,211.93,292.375,217.838z
				"/>
			<path style="fill:#92E3A9;stroke:#263238;stroke-miterlimit:10;" d="M269.844,193.2c1.533,5.908-2.014,11.94-7.922,13.473
				c-5.908,1.533-11.94-2.014-13.473-7.922c-1.533-5.908,2.014-11.94,7.922-13.473C262.279,183.745,268.311,187.292,269.844,193.2z"
				/>
			<path style="fill:#92E3A9;stroke:#263238;stroke-miterlimit:10;" d="M324.887,204.919c1.533,5.908-2.014,11.94-7.922,13.473
				c-5.908,1.533-11.94-2.014-13.473-7.922c-1.533-5.908,2.014-11.94,7.922-13.473C317.323,195.465,323.355,199.012,324.887,204.919
				z"/>
			<path style="fill:#92E3A9;stroke:#263238;stroke-miterlimit:10;" d="M290.919,196.1c1.533,5.908-2.014,11.94-7.922,13.473
				c-5.908,1.533-11.94-2.014-13.473-7.922c-1.533-5.908,2.014-11.94,7.922-13.473C283.355,186.645,289.387,190.192,290.919,196.1z"
				/>
			
				<ellipse transform="matrix(0.426 -0.9047 0.9047 0.426 -20.2953 396.6595)" style="fill:#92E3A9;stroke:#263238;stroke-miterlimit:10;" cx="302.461" cy="214.325" rx="11.052" ry="11.051"/>
			<path style="fill:#92E3A9;stroke:#263238;stroke-miterlimit:10;" d="M330.305,222.342c1.533,5.908-2.014,11.94-7.922,13.473
				c-5.908,1.533-11.94-2.014-13.473-7.922c-1.533-5.908,2.014-11.94,7.922-13.473C322.74,212.888,328.772,216.434,330.305,222.342z
				"/>
			<path style="fill:#92E3A9;stroke:#263238;stroke-miterlimit:10;" d="M300.954,227.866c1.533,5.908-2.014,11.94-7.922,13.473
				c-5.908,1.533-11.94-2.014-13.473-7.922s2.014-11.94,7.922-13.473C293.39,218.411,299.422,221.958,300.954,227.866z"/>
			<path style="fill:#92E3A9;stroke:#263238;stroke-miterlimit:10;" d="M272.346,206.298c1.533,5.908-2.014,11.94-7.922,13.473
				c-5.908,1.533-11.94-2.014-13.473-7.922c-1.533-5.908,2.014-11.94,7.922-13.473C264.781,196.844,270.813,200.39,272.346,206.298z
				"/>
			
				<ellipse transform="matrix(0.3051 -0.9523 0.9523 0.3051 -37.0834 451.4278)" style="fill:#92E3A9;stroke:#263238;stroke-miterlimit:10;" cx="290.79" cy="251.125" rx="11.051" ry="11.052"/>
			
				<ellipse transform="matrix(0.5451 -0.8384 0.8384 0.5451 -87.1132 371.5946)" style="fill:#92E3A9;stroke:#263238;stroke-miterlimit:10;" cx="298.852" cy="266.068" rx="11.052" ry="11.051"/>
			
				<ellipse transform="matrix(0.3051 -0.9523 0.9523 0.3051 -10.451 482.9557)" style="fill:#92E3A9;stroke:#263238;stroke-miterlimit:10;" cx="325.71" cy="248.639" rx="11.051" ry="11.052"/>
			<path style="fill:#92E3A9;stroke:#263238;stroke-miterlimit:10;" d="M346.24,264.928c1.801,6.94-2.366,14.026-9.306,15.827
				c-6.94,1.801-14.026-2.366-15.827-9.306c-1.801-6.94,2.366-14.026,9.306-15.826C337.353,253.822,344.439,257.988,346.24,264.928z
				"/>
			<path style="fill:#92E3A9;stroke:#263238;stroke-miterlimit:10;" d="M326.966,225.6c1.533,5.908-2.014,11.94-7.922,13.473
				c-5.908,1.533-11.94-2.014-13.473-7.922c-1.533-5.908,2.014-11.94,7.922-13.473C319.401,216.145,325.433,219.692,326.966,225.6z"
				/>
			<path style="fill:#92E3A9;stroke:#263238;stroke-miterlimit:10;" d="M296.266,208.96c1.533,5.908-2.014,11.94-7.922,13.473
				c-5.908,1.533-11.94-2.014-13.473-7.922c-1.533-5.908,2.014-11.94,7.922-13.473C288.701,199.505,294.733,203.052,296.266,208.96z
				"/>
			<path style="fill:#92E3A9;stroke:#263238;stroke-miterlimit:10;" d="M322.42,236.642c1.533,5.908-2.014,11.94-7.922,13.473
				c-5.908,1.533-11.94-2.014-13.473-7.922c-1.533-5.908,2.014-11.94,7.922-13.473C314.855,227.187,320.887,230.734,322.42,236.642z
				"/>
			
				<ellipse transform="matrix(0.9647 -0.2633 0.2633 0.9647 -60.2255 92.6071)" style="fill:#92E3A9;stroke:#263238;stroke-miterlimit:10;" cx="315.441" cy="271.029" rx="11.052" ry="11.051"/>
			<path style="fill:#92E3A9;stroke:#263238;stroke-miterlimit:10;" d="M347.568,279.43c1.533,5.908-2.014,11.94-7.922,13.473
				c-5.908,1.533-11.94-2.014-13.473-7.922c-1.533-5.908,2.014-11.94,7.922-13.473C340.003,269.975,346.035,273.522,347.568,279.43z
				"/>
			
				<ellipse transform="matrix(0.6444 -0.7647 0.7647 0.6444 -114.9229 343.8025)" style="fill:#92E3A9;stroke:#263238;stroke-miterlimit:10;" cx="312.22" cy="295.475" rx="11.052" ry="11.051"/>
			<path style="fill:#92E3A9;stroke:#263238;stroke-miterlimit:10;" d="M276.07,240.001c1.533,5.908-2.014,11.94-7.922,13.473
				c-5.908,1.533-11.94-2.014-13.473-7.922s2.014-11.94,7.922-13.473C268.505,230.546,274.537,234.092,276.07,240.001z"/>
			<path style="fill:#92E3A9;stroke:#263238;stroke-miterlimit:10;" d="M298.434,253.624c1.533,5.908-2.014,11.94-7.922,13.473
				c-5.908,1.533-11.94-2.014-13.473-7.922c-1.533-5.908,2.014-11.94,7.922-13.473C290.869,244.17,296.901,247.716,298.434,253.624z
				"/>
			<path style="fill:#92E3A9;stroke:#263238;stroke-miterlimit:10;" d="M314.637,243.742c1.533,5.908-2.014,11.94-7.922,13.473
				c-5.908,1.533-11.94-2.014-13.473-7.922c-1.533-5.908,2.014-11.94,7.922-13.473C307.073,234.287,313.104,237.834,314.637,243.742
				z"/>
			<path style="fill:#92E3A9;stroke:#263238;stroke-miterlimit:10;" d="M337.043,287.244c1.827,7.043-2.401,14.234-9.444,16.061
				c-7.043,1.827-14.234-2.401-16.061-9.444c-1.827-7.043,2.401-14.234,9.444-16.061
				C328.025,275.973,335.215,280.201,337.043,287.244z"/>
			<path style="fill:#92E3A9;stroke:#263238;stroke-miterlimit:10;" d="M322.812,263.737c1.292,4.979-1.697,10.062-6.676,11.354
				c-4.979,1.292-10.062-1.697-11.354-6.676c-1.292-4.979,1.697-10.062,6.676-11.354
				C316.436,255.769,321.52,258.758,322.812,263.737z"/>
			<path style="fill:#92E3A9;stroke:#263238;stroke-miterlimit:10;" d="M314.32,279.389c1.292,4.979-1.697,10.062-6.676,11.354
				c-4.979,1.292-10.062-1.697-11.354-6.676c-1.292-4.979,1.697-10.062,6.676-11.354C307.945,271.421,313.029,274.41,314.32,279.389
				z"/>
			<g>
				<path style="fill:#FFFFFF;" d="M263.615,203.2c0.376,1.448-0.624,2.96-2.232,3.377c-1.609,0.417-3.217-0.418-3.593-1.866
					c-0.376-1.448,0.624-2.96,2.233-3.377C261.632,200.917,263.24,201.752,263.615,203.2z"/>
				<path style="fill:#FFFFFF;" d="M262.103,188.982c0.376,1.448-0.624,2.96-2.233,3.377c-1.608,0.417-3.217-0.418-3.593-1.865
					c-0.376-1.448,0.624-2.96,2.232-3.377C260.118,186.699,261.727,187.534,262.103,188.982z"/>
				<path style="fill:#FFFFFF;" d="M285.112,191.228c0.376,1.448-0.624,2.96-2.232,3.377c-1.608,0.417-3.217-0.418-3.593-1.866
					c-0.376-1.448,0.624-2.96,2.232-3.377C283.128,188.945,284.737,189.78,285.112,191.228z"/>
				<path style="fill:#FFFFFF;" d="M290.913,207.018c0.376,1.448-0.624,2.96-2.232,3.377s-3.217-0.418-3.593-1.865
					c-0.376-1.448,0.624-2.96,2.232-3.377C288.929,204.735,290.537,205.57,290.913,207.018z"/>
				<path style="fill:#FFFFFF;" d="M307.947,208.518c0.376,1.448-0.624,2.96-2.232,3.377c-1.608,0.417-3.217-0.418-3.592-1.866
					c-0.376-1.448,0.624-2.96,2.232-3.377C305.963,206.235,307.572,207.07,307.947,208.518z"/>
				<path style="fill:#FFFFFF;" d="M318.913,202.418c0.376,1.448-0.624,2.96-2.232,3.377c-1.609,0.417-3.217-0.418-3.593-1.866
					c-0.376-1.448,0.624-2.96,2.232-3.377C316.929,200.135,318.537,200.971,318.913,202.418z"/>
				<path style="fill:#FFFFFF;" d="M323.906,222.898c0.376,1.448-0.624,2.96-2.232,3.377c-1.609,0.417-3.217-0.418-3.592-1.866
					c-0.376-1.448,0.624-2.96,2.232-3.377C321.922,220.615,323.531,221.451,323.906,222.898z"/>
				<path style="fill:#FFFFFF;" d="M317.6,232.54c0.376,1.448-0.624,2.96-2.232,3.377c-1.609,0.417-3.217-0.418-3.593-1.866
					c-0.376-1.448,0.624-2.959,2.232-3.377C315.616,230.257,317.224,231.092,317.6,232.54z"/>
				<path style="fill:#FFFFFF;" d="M308.967,240.246c0.376,1.448-0.624,2.96-2.232,3.377c-1.609,0.417-3.217-0.418-3.593-1.866
					c-0.376-1.448,0.624-2.96,2.232-3.377C306.983,237.963,308.592,238.798,308.967,240.246z"/>
				<path style="fill:#FFFFFF;" d="M297.195,227.163c0.376,1.448-0.624,2.96-2.232,3.377c-1.609,0.417-3.217-0.418-3.593-1.866
					c-0.376-1.448,0.624-2.96,2.233-3.377C295.211,224.88,296.82,225.715,297.195,227.163z"/>
				<path style="fill:#FFFFFF;" d="M270.596,238.096c0.376,1.448-0.624,2.96-2.232,3.377c-1.608,0.417-3.217-0.418-3.593-1.866
					c-0.376-1.448,0.624-2.96,2.232-3.377C268.612,235.813,270.22,236.648,270.596,238.096z"/>
				<path style="fill:#FFFFFF;" d="M252.025,224.336c0.376,1.448-0.624,2.96-2.232,3.377c-1.609,0.417-3.217-0.418-3.593-1.866
					c-0.376-1.448,0.624-2.96,2.232-3.377C250.041,222.053,251.649,222.889,252.025,224.336z"/>
				<path style="fill:#FFFFFF;" d="M245.8,198.579c0.376,1.448-0.624,2.96-2.232,3.377c-1.609,0.417-3.217-0.418-3.593-1.866
					c-0.376-1.448,0.624-2.96,2.232-3.377C243.816,196.296,245.425,197.132,245.8,198.579z"/>
				<path style="fill:#FFFFFF;" d="M338.768,260.469c0.376,1.448-0.624,2.96-2.232,3.377c-1.609,0.417-3.217-0.418-3.593-1.866
					c-0.376-1.448,0.624-2.96,2.232-3.377C336.784,258.186,338.393,259.022,338.768,260.469z"/>
			</g>
		</g>
	</g>
	<g>
		<path style="fill:#92E3A9;stroke:#263238;stroke-miterlimit:10;" d="M204.475,181.976c-4.725,2.445-7.96,11.554-8.278,18.885
			c-0.786,18.074,10.215,26.717,6.286,63.65c-3.929,36.933-10.215,47.148,8.644,71.508c18.859,24.36,72.294,24.36,81.724-24.36
			c9.43-48.72-37.719-77.009-48.721-84.868c-12.686-9.063-20.496-24.994-28.38-37.992
			C213.55,185.174,209.29,179.485,204.475,181.976z"/>
		<path style="fill:#BDBDBD;stroke:#263238;stroke-miterlimit:10;" d="M207.674,183.217c0,0-3.856-7.231-3.856-14.944
			c0-7.713,2.892-11.087-1.446-10.123c-4.338,0.964-4.821,4.338-4.338,10.123c0.482,5.785,1.928,13.497,4.821,16.872
			C205.746,188.519,207.674,183.217,207.674,183.217z"/>
	</g>
	<g>
		<path style="fill:#FFFFFF;stroke:#263238;stroke-miterlimit:10;" d="M321.133,239.996c0,0,14.96,0.979,27.671,18.175
			c12.711,17.196,17.621,37.777,11.667,65.938c-5.954,28.161-25.496,53.721-47.896,67.126c-22.4,13.405-43.668,11.476-53.799,9.649
			c-10.131-1.827-14.341-1.618-15.069-3.11c-0.729-1.492-2.163-6.95-0.66-8.916c1.503-1.966,3.747-3.678,3.747-3.678
			s-15.612,2.083-28.264,5.183c-12.652,3.1-29.444-1.015-34.382-2.299c-4.938-1.283-7.136-4.521-7.113-6.996
			c0.023-2.475,0.289-4.453,3.515-5.413c3.227-0.96,11.911-3.355,11.911-3.355s20.7-16.886,36.901-29.112
			c4.952-3.736,10.624-7.882,16.113-11.838c17.021-12.266,29.901-29.455,36.754-49.284c0.059-0.17,0.117-0.34,0.176-0.51
			c5.85-17.024,11.852-23.651,12.858-25.374c1.006-1.723,3.772-10.888-2.092-19.11c-5.864-8.222-14.96-17.63-14.96-17.63
			s3.723-7.346,9.436-9.521c5.713-2.175,10.819-1.237,11.548,0.255c0.729,1.492,4.317,25.037,6.091,29.821
			C306.267,242.639,321.133,239.996,321.133,239.996z"/>
		<path style="fill:none;stroke:#263238;stroke-miterlimit:10;" d="M246.794,385.18c0,0,24.123,0.214,52.6-36.543
			c28.477-36.757,16.738-80.403,12.06-86.962c-4.678-6.559-5.675-10.863-5.799-13.381"/>
		<line style="fill:none;stroke:#263238;stroke-miterlimit:10;" x1="247.877" y1="394.806" x2="255.122" y2="396.057"/>
		<line style="fill:none;stroke:#263238;stroke-miterlimit:10;" x1="251.475" y1="390.1" x2="255.336" y2="388.952"/>
		<path style="fill:none;stroke:#263238;stroke-miterlimit:10;" d="M185.063,381.636c0,0,7.072,3.916,37.668-5.87"/>
		<path style="fill:none;stroke:#263238;stroke-miterlimit:10;" d="M305.403,277.482c1.842-8.961,0.246-12.603,0.246-12.603"/>
		<path style="fill:none;stroke:#263238;stroke-miterlimit:10;" d="M243.804,365.553c10.613-7.161,25.714-20.324,40.732-43.562
			c10.304-15.943,15.85-27.958,18.757-36.749"/>
		<path style="fill:none;stroke:#263238;stroke-miterlimit:10;" d="M229.27,373.309c0,0,3.623-1.145,9.547-4.612"/>
		<path style="fill:none;stroke:#263238;stroke-miterlimit:10;" d="M261.867,387.235c0,0,14.392-2.976,39.956-29.098"/>
		<path style="fill:none;stroke:#263238;stroke-miterlimit:10;" d="M308.258,350.94c0,0,19.766-23.658,16.83-58.337"/>
		<path style="fill:#263238;stroke:#263238;stroke-miterlimit:10;" d="M293.675,214.715c-0.893,0.436-5.819,4.685-7.465,6.595
			c-1.647,1.91-7.998-1.868-7.998-1.868s3.723-7.346,9.436-9.521c5.713-2.175,10.82-1.237,11.548,0.255
			c0.166,0.34,0.482,1.834,0.89,3.984c-0.114,0.056-0.22,0.111-0.336,0.168C292.61,217.815,294.568,214.279,293.675,214.715z"/>
	</g>
	<g>
		<g>
			<path style="fill:#6B6B6B;stroke:#263238;stroke-miterlimit:10;" d="M223.511,283.58c0,0-3.572-11.792-26.556-7.246
				c-16.282,3.22-31.847,22.595-32.076,36.481c-0.228,13.886,8.389,20.89,8.389,20.89s3.014,7.103,8.425,10.758
				c5.411,3.655,19.501,13.263,42.085-1.996c15.018-10.147,17.961-22.823,14.947-29.926
				C235.711,305.437,223.511,283.58,223.511,283.58z"/>
		</g>
		<path style="opacity:0.35;fill:#FFFFFF;" d="M228.562,328.619c-4.182,3.177-9.862,2.737-12.689-0.983
			c-2.826-3.72-1.728-9.311,2.454-12.488c4.181-3.177,9.862-2.737,12.689,0.983C233.841,319.851,232.743,325.442,228.562,328.619z"
			/>
		<path style="fill:#263238;stroke:#263238;stroke-miterlimit:10;" d="M224.723,297.158c0,0,6.022-0.519,11.495-0.921
			c5.473-0.401,9.397-2.298,9.556-1.293c0.158,1.004,0.738,1.978-1.209,3.136c-1.947,1.159-6.643,1.757-9.814,1.228
			c-3.171-0.529-10.069,1.564-10.069,1.564s-2.058-3.828-1.603-4.538C223.534,295.623,224.723,297.158,224.723,297.158z"/>
		<path style="fill:none;stroke:#263238;stroke-miterlimit:10;" d="M231.643,309.027c1.147,0.882,2.253,1.556,3.219,1.948"/>
		<path style="fill:none;stroke:#263238;stroke-miterlimit:10;" d="M220.313,286.357c0,0,0.64,5.401,2.607,11.18
			c1.106,3.251,3.524,6.601,6.116,9.189"/>
	</g>
	<g>
		<g>
			<path style="fill:#6B6B6B;stroke:#263238;stroke-miterlimit:10;" d="M156.257,231.118c0,0-11.807,3.523-7.357,26.526
				c3.152,16.296,22.462,31.941,36.347,32.227c13.885,0.286,20.925-8.302,20.925-8.302s7.116-2.985,10.793-8.38
				c3.677-5.396,13.344-19.446-1.821-42.093c-10.084-15.06-22.748-18.056-29.863-15.071
				C178.164,219.01,156.257,231.118,156.257,231.118z"/>
		</g>
		<path style="opacity:0.35;fill:#FFFFFF;" d="M201.317,226.255c3.16,4.195,2.696,9.874-1.036,12.684
			c-3.732,2.811-9.318,1.689-12.477-2.506c-3.16-4.195-2.696-9.874,1.036-12.684C192.571,220.939,198.157,222.061,201.317,226.255z"
			/>
		<path style="fill:#263238;stroke:#263238;stroke-miterlimit:10;" d="M169.84,229.963c0,0-0.494-6.024-0.873-11.499
			c-0.378-5.475-2.258-9.407-1.254-9.561c1.005-0.154,1.981-0.729,3.131,1.222c1.15,1.951,1.729,6.651,1.187,9.819
			c-0.542,3.169,1.522,10.075,1.522,10.075s-3.836,2.042-4.545,1.584C168.3,231.145,169.84,229.963,169.84,229.963z"/>
		<path style="fill:none;stroke:#263238;stroke-miterlimit:10;" d="M181.738,223.092c0.886-1.143,1.565-2.247,1.961-3.211"/>
		<path style="fill:none;stroke:#263238;stroke-miterlimit:10;" d="M159.02,234.327c0,0,5.404-0.618,11.191-2.56
			c3.255-1.093,6.616-3.497,9.214-6.077"/>
	</g>
	<g>
		
			<ellipse transform="matrix(0.8242 -0.5663 0.5663 0.8242 -143.2191 282.9152)" style="fill:#D6D6D6;stroke:#263238;stroke-miterlimit:10;" cx="384.071" cy="372.135" rx="33.157" ry="33.157"/>
		<path style="fill:none;stroke:#263238;stroke-miterlimit:10;" d="M409.648,377.433c-1.869-0.337-3.026-2.599-2.584-5.052
			c0.442-2.453,2.316-4.169,4.185-3.833c1.869,0.337,3.026,2.599,2.584,5.052C413.391,376.054,411.517,377.77,409.648,377.433z"/>
	</g>
	<g>
		
			<ellipse transform="matrix(0.936 -0.3521 0.3521 0.936 -110.1337 138.6656)" style="fill:#D6D6D6;stroke:#263238;stroke-miterlimit:10;" cx="326.181" cy="372.135" rx="33.157" ry="33.157"/>
		<path style="fill:none;stroke:#263238;stroke-miterlimit:10;" d="M342.917,352.081c-1.179,1.49-3.719,1.443-5.674-0.104
			c-1.955-1.547-2.584-4.008-1.406-5.498c1.179-1.49,3.719-1.443,5.674,0.104C343.466,348.13,344.095,350.591,342.917,352.081z"/>
	</g>
	<g>
		<path style="fill:#263238;stroke:#263238;stroke-miterlimit:10;" d="M386.17,95.199l1.391-23.355l8.545,24.56
			c0,0,5.864-12.731,8.388-17.707c2.523-4.975,4.932-9.004,4.932-9.004l2.351,28.13L426.96,79.5l1.892,16.072l-3.312,15.441
			l-39.743-4.818L386.17,95.199z"/>
		<path style="fill:#BDBDBD;stroke:#263238;stroke-miterlimit:10;" d="M373.725,134.497c0,0-3.068-14.294-5.95-26.166
			c-2.882-11.871-10.208-26.682-10.208-26.682s7.957,9.606,12.531,15.441c4.573,5.835,9.276,14.567,9.276,14.567
			s-1.003-15.484-2.509-22.868c-1.505-7.384-5.29-23.685-5.29-23.685s11.584,15.327,14.495,19.04c2.911,3.713,5.29,7.843,5.29,7.843
			l-0.602-18.796l8.344,18.295l5.893,10.796c0,0,5.864-12.731,9.864-18.008c4-5.276,8.416-10.022,9.534-11.326
			c1.118-1.305-6.954,21.721-6.954,21.721l17.535-21.879l8.775-9.018c0,0-10.294,29.477-11.04,35.628
			c-0.746,6.151-4.029,13.434-4.029,13.434l13.635-21.391c0,0-0.416,15.312-4.201,30.696c-3.785,15.384-3.068,17.391-7.413,25.506
			c-4.344,8.115-9.864,18.008-9.864,18.008l-4.947,5.161l-35.786-5.778L373.725,134.497z"/>
		<path style="fill:#BDBDBD;stroke:#263238;stroke-miterlimit:10;" d="M371.818,162.111c0,0-10.48-20.474-10.337-29.578
			s-1.032-23.169-1.032-23.169s4.229,8.674,12.301,17.334c8.072,8.66,12.359,16.861,12.359,16.861s-0.215-10.108,0.703-17.678
			c0.918-7.57,5.305-20,5.305-20s9.262,26.567,10.939,32.531c0,0,5.405-8.946,9.821-13.692c4.416-4.746,13.664-13.706,13.664-13.706
			s-3.669,19.507-2.266,26.61c1.404,7.103-2.438,28.03-2.438,28.03s13.864-23.284,17.392-28.617
			c3.527-5.334,20.861-17.635,20.861-17.635s-8.144,19.657-10.423,26.581s-6.983,14.036-8.101,15.341
			c-1.118,1.305-4.115,6.222-4.115,6.222l-12.474,15.771l-12.488,11.928l-29.521-5.979L371.818,162.111z"/>
		<path style="fill:#BDBDBD;stroke:#263238;stroke-miterlimit:10;" d="M369.667,171.932c0,0-7.24-7.599-9.29-18.409
			c-2.05-10.81-3.082-18.137-3.082-18.137s7.183,8.072,13.004,15.499s16.201,16.847,16.201,16.847s1.305-14.725,5.406-24.789
			c4.101-10.065,9.205-20.488,9.205-20.488s4.989,38.051,5.362,42.897c0.373,4.846,0.456,9.948,0.456,9.948
			s7.645-25.289,11.817-31.985c4.172-6.695,10.409-14.581,10.409-14.581s-3.226,22.653-3.671,30.28
			c-0.444,7.628-1.95,16.087-1.95,16.087s4.703-7.111,10.008-11.269c5.305-4.158,31.872-13.419,31.872-13.419
			s-16.33,11.943-19.155,15.441c-2.824,3.498-24.904,20.384-24.904,20.384l-45.378-2.979L369.667,171.932z"/>
		<g>
			<g>
				<path style="fill:#FFFFFF;stroke:#263238;stroke-miterlimit:10;" d="M377.334,191.277c0,0-22.177,5.565-37.524,35.415
					c-15.347,29.85-15.782,63.898-10.509,79.523c5.273,15.626,15.891,30.162,42.68,34.93c26.789,4.768,46.034,1.888,61.264-23.415
					c15.23-25.303,16.93-57.242,12.818-77.071c-4.112-19.829-16.505-33.889-21.353-38.86
					C415.824,192.684,392.525,184.213,377.334,191.277z"/>
				<g>
					<path style="fill:none;stroke:#263238;stroke-miterlimit:10;" d="M377.817,248.628c1.636,4.581,1.933,5.413,1.815,6.395"/>
					<path style="fill:none;stroke:#263238;stroke-miterlimit:10;" d="M356.408,255.992c0,0-0.095-5.788,4.914-10.958
						c5.009-5.169,5.937-6.252,8.614-5.33c2.288,0.788,5.228,3.402,7.055,7.005"/>
					<path style="fill:none;stroke:#263238;stroke-miterlimit:10;" d="M375.432,240.371c0,0,2.439-3.688,6.157-6.424
						c3.718-2.736,4.991-3.379,4.991-3.379s9.559,4.943,10.493,12.028"/>
					<path style="fill:none;stroke:#263238;stroke-miterlimit:10;" d="M395.306,255.528c0,0-1.243-4.533,0.417-6.722
						c1.66-2.189,4.265-7.251,7.704-6.038c3.438,1.214,10.803,2.903,11.534,8.37"/>
					<path style="fill:none;stroke:#263238;stroke-miterlimit:10;" d="M376.853,266.438c0,0,1.689-7.365,4.944-9.56
						c3.254-2.195,7.882-4.223,8.346-4.765c0.464-0.541,7.126,3.653,9.524,8.525c2.397,4.872,1.523,7.156,1.523,7.156"/>
					<path style="fill:none;stroke:#263238;stroke-miterlimit:10;" d="M394.604,277.753c0,0,2.683-4.057,5.223-6.936"/>
					<path style="fill:none;stroke:#263238;stroke-miterlimit:10;" d="M402.909,268.401c0,0,2.243-3.712,4.551-3.034
						c2.308,0.678,8.138,5.17,9.03,7.668c0.892,2.498,0.726,3.873,0.726,3.873"/>
					<path style="fill:none;stroke:#263238;stroke-miterlimit:10;" d="M412.831,265.421c0,0-0.024-6.377,2.516-9.256
						c2.54-2.879,2.07-3.932,4.349-4.652c2.278-0.72,8.4,3.01,8.929,6.859"/>
					<path style="fill:none;stroke:#263238;stroke-miterlimit:10;" d="M347.053,260.37c2.802-2.057,5.648-5.026,5.648-5.026
						s2.713,3.914,5.74,6.871c3.028,2.957,3.409,6.389,3.409,6.389"/>
					<path style="fill:none;stroke:#263238;stroke-miterlimit:10;" d="M343.564,264.992c0,0-0.27-1.565,1.71-3.314"/>
					<path style="fill:none;stroke:#263238;stroke-miterlimit:10;" d="M380.002,275.076c1.131,3.138,0.849,4.396,0.849,4.396"/>
					<path style="fill:none;stroke:#263238;stroke-miterlimit:10;" d="M362.949,270.893c1.03-1.382,2.084-2.581,2.994-3.188
						c3.034-2.023,3.545-2.957,3.545-2.957s7.049,2.647,9.423,7.716"/>
					<path style="fill:none;stroke:#263238;stroke-miterlimit:10;" d="M358.281,278.329c0,0,0.989-1.839,2.353-4.016"/>
					<path style="fill:none;stroke:#263238;stroke-miterlimit:10;" d="M376.71,287.336c0,0,3.783-4.919,8.679-7.513
						c4.896-2.594,11.41,1.184,14.324,6.716"/>
					<path style="fill:none;stroke:#263238;stroke-miterlimit:10;" d="M411.421,288.556c0,0,3.272-10.559,8.12-12.76
						c4.848-2.201,11.647-0.779,11.754,8.197"/>
					<path style="fill:none;stroke:#263238;stroke-miterlimit:10;" d="M428.553,272.108c0,0-0.773-3.48,1.91-7.537
						c2.683-4.057,3.319-4.378,3.932-4.503c0.613-0.125,2.897,0.75,4.747,3.563c1.85,2.814,2.546,5.289,2.546,5.289"/>
					<path style="fill:none;stroke:#263238;stroke-miterlimit:10;" d="M436.158,242.9c1.369,2.091,2.681,5.157,2.681,5.157"/>
					<path style="fill:none;stroke:#263238;stroke-miterlimit:10;" d="M425.234,250.193c0,0-0.749-3.676,1.249-7.02
						c1.999-3.343,3.98-4.896,3.98-4.896s2.004,1.027,3.661,2.377"/>
					<path style="fill:none;stroke:#263238;stroke-miterlimit:10;" d="M407.433,237.035c0.077-1.505,0.384-3.005,1.157-3.998
						c2.124-2.731,5.205-5.146,5.842-5.467c0.636-0.321,2.849,1.142,4.967,3.391c2.118,2.249,3.153,3.569,3.236,6.169"/>
					<path style="fill:none;stroke:#263238;stroke-miterlimit:10;" d="M407.864,242.31c0,0-0.337-1.58-0.429-3.511"/>
					<path style="fill:none;stroke:#263238;stroke-miterlimit:10;" d="M388.959,230.657c0,0-0.428-3.04,2.112-5.919
						c2.54-2.879,8.239-7.168,8.239-7.168s5.776,3.29,7.43,6.08c1.654,2.79,2.183,6.639,2.183,6.639"/>
					<path style="fill:none;stroke:#263238;stroke-miterlimit:10;" d="M433.136,228.998c0.808,3.275,1.14,5.758,1.14,5.758"/>
					<path style="fill:none;stroke:#263238;stroke-miterlimit:10;" d="M420.589,227.718c0,0-3.105-3.962-0.25-7.799
						c2.855-3.837,4.474-4.039,4.474-4.039s4.866,2.582,6.799,7.995c0.267,0.748,0.511,1.497,0.734,2.232"/>
					<path style="fill:none;stroke:#263238;stroke-miterlimit:10;" d="M379.55,224.683c0.351,0.473,0.632,0.927,0.808,1.345
						c1.237,2.939,0.149,6.99,0.149,6.99"/>
					<path style="fill:none;stroke:#263238;stroke-miterlimit:10;" d="M360.632,231.007c0,0,1.452-5.401,3.385-6.561
						c1.933-1.16,8.709-6.115,8.709-6.115s3.363,2.503,5.684,5"/>
					<path style="fill:none;stroke:#263238;stroke-miterlimit:10;" d="M348.96,235.642c3.542-2.887,8.234-5.848,8.234-5.848
						s2.332,0.482,3.623,4.622c1.291,4.14,1.208,8.114,1.208,8.114"/>
					<path style="fill:none;stroke:#263238;stroke-miterlimit:10;" d="M344.98,243.452c0,0-0.574-2.815,1.674-5.631"/>
					<path style="fill:none;stroke:#263238;stroke-miterlimit:10;" d="M335.462,256.242c0,0-1.023-4.706,0.881-7.263
						c1.904-2.558,6.454-5.592,6.454-5.592s2.04,1.243,3.331,5.384c1.291,4.14,0.69,7.454,0.69,7.454"/>
					<path style="fill:none;stroke:#263238;stroke-miterlimit:10;" d="M345.73,227.408c0,0,0.5-4.122,3.557-6.341
						c3.058-2.219,5.556-3.111,5.556-3.111s1.118,3.92-0.268,7.139c-1.386,3.218-1.874,3.956-1.874,3.956"/>
					<path style="fill:none;stroke:#263238;stroke-miterlimit:10;" d="M356.824,216.403c0,0,1.344-1.231,5.336-2.939
						c3.992-1.707,6.835-2.159,6.835-2.159s0.553,3.652,0.535,5.443c-0.018,1.791-0.994,3.266-0.994,3.266"/>
					<path style="fill:none;stroke:#263238;stroke-miterlimit:10;" d="M394.533,219.182c0,0-2.284-7.448-3.884-9.036
						c-1.6-1.588-8.947,1.505-12.213,7.085"/>
					<path style="fill:none;stroke:#263238;stroke-miterlimit:10;" d="M398.471,295.153c2.516-2.683,7.573-8.245,8.037-8.786
						c0.464-0.541,5.473,0.862,8.804,6.246c3.331,5.384,2.885,10.708,2.885,10.708"/>
					<path style="fill:none;stroke:#263238;stroke-miterlimit:10;" d="M395.336,302.94c0,0,0.406-3.347,1.896-6.044"/>
					<path style="fill:none;stroke:#263238;stroke-miterlimit:10;" d="M431.045,306.153c0.198,1.124,0.243,2.129,0.221,2.736"/>
					<path style="fill:none;stroke:#263238;stroke-miterlimit:10;" d="M415.121,313.903c0,0,1.208-11.606,8.239-13.741
						c3.928-1.193,5.962,0.928,6.977,3.447"/>
					<path style="fill:none;stroke:#263238;stroke-miterlimit:10;" d="M427.292,291.431c1.346-2.965,3.371-6.273,5.966-7.2
						c4.997-1.785,6.032,6.109,6.014,7.9"/>
					<path style="fill:none;stroke:#263238;stroke-miterlimit:10;" d="M425.383,296.622c0,0,0.408-1.502,1.183-3.471"/>
					<path style="fill:none;stroke:#263238;stroke-miterlimit:10;" d="M438.232,282.643c0,0,0.369-6.329,2.439-10.261
						c2.07-3.932,4.212-8.453,5.931-7.846"/>
					<path style="fill:none;stroke:#263238;stroke-miterlimit:10;" d="M381.56,297.062c0.391,2.912,0.182,4.628,0.182,4.628"/>
					<path style="fill:none;stroke:#263238;stroke-miterlimit:10;" d="M361.975,302.083c0,0,1.493-7.388,4.717-10.981
						c3.224-3.593,4.497-4.235,6.288-4.217c1.554,0.016,6.133,3.549,7.79,7.014"/>
					<path style="fill:none;stroke:#263238;stroke-miterlimit:10;" d="M377.692,313.748c0,0,3.397-9.946,10.357-11.493
						c6.96-1.547,11.993,6.234,11.54,9.964c-0.452,3.73-0.571,4.711-0.571,4.711"/>
					<path style="fill:none;stroke:#263238;stroke-miterlimit:10;" d="M348.257,313.367c0,0-0.512-5.639,5.235-10.321
						c5.746-4.682,12.962,3.165,13.42,7.603"/>
					<path style="fill:none;stroke:#263238;stroke-miterlimit:10;" d="M352.895,297.297c-0.675-1.825-1.793-4.102-3.566-5.91
						c-3.545-3.617-6.389-3.165-10.25,0.749c-3.861,3.914-4.462,7.228-4.479,9.018"/>
					<path style="fill:none;stroke:#263238;stroke-miterlimit:10;" d="M353.802,300.494c0,0-0.139-0.824-0.516-2.044"/>
					<path style="fill:none;stroke:#263238;stroke-miterlimit:10;" d="M349.001,282.583c2.392-3.296,3.54-4.551,5.134-4.557
						c1.594-0.006,7.454-0.69,9.155,8.281"/>
					<path style="fill:none;stroke:#263238;stroke-miterlimit:10;" d="M346.199,287.621c0,0,0.24-1.021,1.426-2.978"/>
					<path style="fill:none;stroke:#263238;stroke-miterlimit:10;" d="M350.816,275.831c0,0-7.751-13.289-11.053-10.702
						c-3.302,2.588-5.515,7.698-6.163,11.404"/>
					<path style="fill:none;stroke:#263238;stroke-miterlimit:10;" d="M399.791,326.984c0,0,0.619-5.104,3.064-7.198
						c2.445-2.094,8.905-6.091,8.905-6.091s6.026,4.515,6.234,7.727c0.208,3.212-0.47,5.52-0.47,5.52"/>
					<path style="fill:none;stroke:#263238;stroke-miterlimit:10;" d="M363.827,324.856c-0.644,2.284-0.745,4.252-0.745,4.252"/>
					<path style="fill:none;stroke:#263238;stroke-miterlimit:10;" d="M383.575,332.588c0,0,0.399-4.931-1.654-9.363
						c-2.052-4.432-7.9-7.132-7.9-7.132s-5.074,0.779-7.858,4.027c-0.502,0.586-0.923,1.253-1.276,1.952"/>
					<path style="fill:none;stroke:#263238;stroke-miterlimit:10;" d="M354.557,325.485c0,0-2.552-6.883-4.937-8.566
						c-2.385-1.684-7.394-3.088-9.792-1.386"/>
					<path style="fill:none;stroke:#263238;stroke-miterlimit:10;" d="M352.766,332.04c0,0,1.095-2.457,3.421-3.569
						c2.326-1.112,11.909,3.635,13.783,6.252c1.874,2.617,1.856,4.408,1.856,4.408"/>
					<path style="fill:none;stroke:#263238;stroke-miterlimit:10;" d="M389.615,327.615c3.397-2.403,7.613-4.128,7.613-4.128
						s2.492,4.087,5.395,6.431c2.903,2.344,1.743,6.984,1.255,7.721"/>
					<path style="fill:none;stroke:#263238;stroke-miterlimit:10;" d="M386.127,339.47c0,0-2.492-4.087-0.202-8.191
						c0.362-0.649,0.892-1.287,1.528-1.902"/>
				</g>
			</g>
		</g>
		<path style="fill:#CCCCCC;stroke:#263238;stroke-miterlimit:10;" d="M374.039,187.345c0,0-14.624-21.936-24.043-27.399
			c-9.42-5.463-9.42-5.463-9.42-5.463s9.291,2.566,19.714,7.671c10.423,5.104,17.19,12.646,17.19,12.646s-1.204-5.907,2.079-13.19
			c3.283-7.283,6.868-13.09,6.868-13.09s3.527,10.509,4.96,14.524c1.434,4.014,2.695,9.448,2.695,9.448s2.466-4.502,6.28-12.201
			c3.814-7.699,8-10.552,8-10.552s-2.265,10.767-1.893,15.613c0.373,4.846,0.373,4.846,0.373,4.846s7.025-2.509,9.147-4.172
			c2.122-1.663,15.585-5.792,15.585-5.792s-3.226,6.81-4.516,9.534c-1.29,2.724-3.527,5.333-3.527,5.333s9.506-3.168,16.244-3.312
			c6.739-0.143,14.137,2.194,14.137,2.194s-20.201,4.272-29.435,17.076l-5.706,7.47l-9.491-8.832l-17.707,7.455l-4.402-7.255
			L374.039,187.345z"/>
		<path style="fill:#D6D6D6;stroke:#263238;stroke-miterlimit:10;" d="M377.334,191.277c0,0-5.182,0.156-7.632-6.705
			c-2.45-6.861-8.86-13.545-8.86-13.545s10.448,5.861,12.232,7.39c1.784,1.529,6.077,4.018,6.077,4.018l5.861-10.448l11.761,11.271
			l10.154-7.958l2.627,10.82l13.957-6.841l-2.156,6.959c0,0,6.135-1.882,8.154-2.293c2.019-0.412,11.232-0.607,11.232-0.607
			s-8.468,4.881-12.33,9.664c-3.862,4.783-3.699,8.797-3.699,8.797l2.307,8.1l-9.311-4.41l-11.683,9.742l-12.173-13.29
			l-17.269,7.096l4.489-9.958l-6.547-0.137L377.334,191.277z"/>
	</g>
</g>
<g id="Shopping_Basket">
	<g>
		<g>
			
				<rect x="320.608" y="140.297" transform="matrix(0.9197 -0.3926 0.3926 0.9197 -51.1442 144.7106)" style="fill:#263238;stroke:#263238;stroke-miterlimit:10;" width="15.196" height="114.185"/>
			
				<rect x="258.523" y="140.297" transform="matrix(-0.9197 -0.3926 0.3926 -0.9197 433.375 483.4116)" style="fill:#263238;stroke:#263238;stroke-miterlimit:10;" width="15.196" height="114.185"/>
		</g>
		<path style="fill:#92E3A9;stroke:#263238;stroke-miterlimit:10;" d="M140.857,281.183l28.438,118.853
			c1.656,6.92,7.842,11.8,14.957,11.8h225.824c7.115,0,13.301-4.88,14.957-11.8l28.438-118.853H140.857z M433.442,289.554
			l-12.382,51.748h-10.349l11.057-51.748H433.442z M404.978,289.554l-9.567,51.748h-17.717l7.842-51.748H404.978z M368.745,289.554
			l-6.352,51.748h-17.717l4.627-51.748H368.745z M332.513,289.554l-3.137,51.748h-15.573l1.62-51.748H332.513z M278.021,289.554
			l1.699,51.748h-14.768l-3.137-51.748H278.021z M245.024,289.554l4.627,51.748h-17.717l-6.352-51.748H245.024z M208.791,289.554
			l7.842,51.748h-17.717l-9.567-51.748H208.791z M172.558,289.554l11.057,51.748h-10.349l-12.382-51.748H172.558z M185.679,393.178
			l-8.603-35.954h9.941l9.851,46.104C191.468,402.577,186.977,398.601,185.679,393.178z M210.409,403.466l-8.549-46.243h17.186
			l7.008,46.243H210.409z M239.564,403.466l-5.676-46.243h17.186l4.134,46.243H239.564z M268.719,403.466l-2.803-46.243h14.326
			l1.518,46.243H268.719z M311.856,403.466l1.448-46.243h15.107l-2.803,46.243H311.856z M339.119,403.466l4.134-46.243h17.186
			l-5.676,46.243H339.119z M368.274,403.466l7.008-46.243h17.186l-8.549,46.243H368.274z M408.648,393.178
			c-1.298,5.423-5.79,9.398-11.189,10.149l9.851-46.104h9.941L408.648,393.178z"/>
		<path style="fill:#92E3A9;stroke:#263238;stroke-miterlimit:10;" d="M457.461,282.13H136.866c-3.57,0-6.464-2.894-6.464-6.464
			v-20.228c0-3.57,2.894-6.464,6.464-6.464h320.595c3.57,0,6.464,2.894,6.464,6.464v20.228
			C463.925,279.236,461.031,282.13,457.461,282.13z"/>
		<rect x="119.129" y="244.238" style="fill:#92E3A9;stroke:#263238;stroke-miterlimit:10;" width="356.069" height="7.579"/>
		<path style="fill:#263238;stroke:#263238;stroke-miterlimit:10;" d="M360.46,261.891c0-4.122-3.341-7.464-7.463-7.464
			c-4.122,0-7.463,3.341-7.463,7.464c0,4.122,3.341,7.463,7.463,7.463C357.119,269.354,360.46,266.013,360.46,261.891z"/>
		<path style="fill:#263238;stroke:#263238;stroke-miterlimit:10;" d="M248.51,261.891c0-4.122-3.342-7.464-7.464-7.464
			c-4.122,0-7.463,3.341-7.463,7.464c0,4.122,3.341,7.463,7.463,7.463C245.168,269.354,248.51,266.013,248.51,261.891z"/>
	</g>
</g>
<g id="Floor">
	<g>
		<line style="fill:#FFFFFF;stroke:#263238;stroke-miterlimit:10;" x1="425.27" y1="411.837" x2="485.955" y2="411.837"/>
		<line style="fill:#FFFFFF;stroke:#263238;stroke-miterlimit:10;" x1="14.364" y1="411.837" x2="417.818" y2="411.837"/>
	</g>
</g>
</svg>
