<?xml version="1.0" encoding="utf-8"?>
<!-- Generator: Adobe Illustrator 27.5.0, SVG Export Plug-In . SVG Version: 6.00 Build 0)  -->
<svg version="1.1" id="Layer_1" xmlns="http://www.w3.org/2000/svg" xmlns:xlink="http://www.w3.org/1999/xlink" x="0px" y="0px"
	 viewBox="0 0 407.956 333.294" style="enable-background:new 0 0 407.956 333.294;" xml:space="preserve">
<g>
	<g>
		<g>
			<g>
				<g>
					<path style="fill:#7D7E81;" d="M124.421,54.972l-0.004,2.28c0,0-7.991-0.014-19.977-0.03c-5.994-0.009-12.986-0.02-20.479-0.03
						c-1.873-0.004-3.777-0.006-5.704-0.008l-0.404,0l-0.159-0.002l-0.134-0.028l-0.222-0.046l-0.778-0.164
						c-0.261-0.045-0.515-0.136-0.769-0.218c-0.256-0.084-0.513-0.164-0.767-0.255c-0.998-0.418-1.973-0.934-2.834-1.629
						c-0.856-0.694-1.612-1.513-2.227-2.427c-0.612-0.923-1.102-1.898-1.427-3.003l-0.056-0.203
						c-0.008-0.033,0.001-0.003-0.027-0.085l-0.124-0.354l-0.248-0.704l-0.497-1.412l-0.994-2.827
						c-2.652-7.543-5.305-15.083-7.792-22.153c-0.621-1.767-1.232-3.505-1.831-5.206c-0.301-0.843-0.594-1.736-0.881-2.405
						c-0.313-0.703-0.732-1.318-1.225-1.825c-0.493-0.504-1.081-0.882-1.696-1.121c-0.154-0.059-0.309-0.109-0.461-0.145
						c-0.077-0.019-0.149-0.035-0.218-0.048c-0.096-0.014-0.029-0.007-0.122-0.01c-0.409,0-0.818,0-1.221-0.001
						c-1.615-0.002-3.176-0.006-4.674-0.007c-1.498-0.002-2.935-0.004-4.301-0.006c-0.682-0.002-1.347-0.004-1.994-0.003
						c-0.321,0.001-0.64-0.001-0.951,0.001c-0.127,0.007-0.251,0.015-0.374,0.023l-0.186,0.01l-0.169,0.035
						c-0.926,0.151-1.469,0.627-1.791,1.3c-0.158,0.337-0.251,0.723-0.289,1.087c-0.009,0.085-0.014,0.193-0.016,0.232
						c0,0.123,0,0.245,0.001,0.364c-0.001,0.232-0.002,0.455-0.001,0.672c-0.005,3.497-0.009,5.495-0.009,5.495l-2.279-0.003
						c0,0,0.002-1.998,0.008-5.495c0.001-0.217,0.001-0.443,0.001-0.672c0.001-0.112,0.001-0.224-0.001-0.337
						c0.003-0.194,0.012-0.325,0.028-0.479c0.062-0.595,0.204-1.207,0.491-1.828c0.285-0.615,0.739-1.231,1.357-1.696
						c0.612-0.462,1.364-0.781,2.105-0.885l0.281-0.053l0.276-0.017c0.184-0.011,0.371-0.022,0.559-0.033
						c0.315,0.001,0.636,0,0.96,0.001c0.646,0.001,1.312,0.002,1.995,0.002c1.366,0.003,2.802,0.004,4.301,0.006
						c1.497,0.003,3.057,0.004,4.675,0.008c0.402,0,0.811,0.002,1.221,0.003c0.112-0.009,0.384,0.018,0.492,0.041
						c0.136,0.022,0.264,0.05,0.388,0.081c0.25,0.062,0.491,0.139,0.726,0.228c0.939,0.362,1.804,0.928,2.513,1.651
						c0.705,0.722,1.271,1.577,1.675,2.482c0.405,0.951,0.657,1.758,0.964,2.612c0.598,1.7,1.209,3.437,1.831,5.203
						c2.485,7.064,5.136,14.6,7.785,22.136l0.993,2.825l0.496,1.411l0.248,0.705l0.124,0.352c0.011,0.036,0.069,0.18,0.085,0.27
						l0.042,0.156c0.233,0.806,0.641,1.629,1.125,2.353c0.491,0.728,1.087,1.373,1.757,1.92c0.675,0.544,1.447,0.946,2.242,1.286
						l0.62,0.203c0.207,0.067,0.41,0.145,0.629,0.177l0.642,0.137l0.133,0.028c0.034,0.007,0.056,0.011,0.064,0.009l0.318,0.001
						c1.929,0.002,3.832,0.004,5.706,0.009c7.492,0.011,14.484,0.021,20.478,0.03C116.429,54.96,124.421,54.972,124.421,54.972z"/>
					<path style="fill:#67686B;" d="M124.7,57.287c-0.017,0.141-0.137,0.25-0.284,0.249l-46.724-0.069
						c-0.019,0-0.038-0.001-0.056-0.007l-1.134-0.238c-0.231-0.038-0.458-0.114-0.679-0.186l-0.366-0.119
						c-0.176-0.058-0.353-0.115-0.528-0.177c-1.184-0.497-2.134-1.044-2.918-1.676c-0.89-0.721-1.658-1.559-2.284-2.492
						c-0.676-1.015-1.154-2.023-1.465-3.08l-0.077-0.275L56.698,16.561c-0.077-0.218-0.155-0.441-0.234-0.662
						c-0.222-0.636-0.432-1.238-0.641-1.724c-0.291-0.657-0.684-1.244-1.166-1.739c-0.449-0.458-1.001-0.823-1.596-1.053
						c-0.148-0.057-0.291-0.102-0.425-0.134c-0.072-0.018-0.137-0.033-0.201-0.044l-0.048-0.007l-0.322,0.001l-12.842-0.017
						l-0.525,0.03l-0.148,0.031c-0.775,0.127-1.278,0.491-1.591,1.144c-0.125,0.264-0.214,0.587-0.256,0.931l-0.007,0.062
						c-0.009,0.078-0.012,0.174-0.014,0.212l-0.008,6.522c-0.004,0.157-0.128,0.287-0.286,0.285l-2.28-0.003
						c-0.157,0.001-0.284-0.127-0.285-0.285l0.009-6.5c0.002-0.21,0.013-0.348,0.028-0.511l0.014-0.123
						c0.08-0.653,0.244-1.24,0.502-1.797c0.234-0.502,0.674-1.225,1.444-1.805c0.655-0.494,1.449-0.828,2.236-0.939l0.27-0.051
						L39.2,8.332l13.169,0.017c0.125-0.011,0.426,0.021,0.549,0.047c0.131,0.021,0.265,0.05,0.398,0.084
						c0.254,0.062,0.503,0.14,0.759,0.237c0.978,0.378,1.881,0.972,2.614,1.718c0.708,0.724,1.306,1.611,1.732,2.567
						c0.299,0.7,0.515,1.326,0.725,1.93c0.08,0.233,0.162,0.465,0.247,0.701l11.478,32.633l-0.254,0.139l0.268-0.096
						c0.025,0.069,0.066,0.186,0.082,0.268l0.037,0.136c0.215,0.743,0.592,1.528,1.087,2.267c0.465,0.691,1.037,1.315,1.7,1.857
						c0.571,0.461,1.262,0.858,2.173,1.247l0.727,0.236c0.157,0.053,0.303,0.103,0.453,0.125l0.792,0.172
						c0,0,0.003-0.001,0.005-0.001l46.479,0.069c0.076,0,0.148,0.03,0.202,0.084c0.053,0.053,0.083,0.126,0.082,0.202l-0.003,2.279
						C124.702,57.263,124.701,57.275,124.7,57.287z M77.724,56.896l6.238,0.01l40.17,0.059l0.002-1.708l-46.18-0.068
						c-0.052,0.003-0.101-0.006-0.146-0.019l-0.767-0.162c-0.181-0.027-0.359-0.086-0.531-0.144l-0.748-0.246
						c-0.984-0.419-1.717-0.841-2.33-1.336c-0.709-0.578-1.319-1.245-1.815-1.982c-0.527-0.788-0.93-1.63-1.163-2.431l-0.044-0.163
						c-0.016-0.076-0.046-0.156-0.063-0.205l-1.877-5.337l-9.617-27.339c-0.084-0.236-0.166-0.471-0.248-0.706
						c-0.207-0.595-0.422-1.21-0.709-1.888c-0.398-0.89-0.958-1.72-1.618-2.395c-0.674-0.688-1.509-1.236-2.409-1.584
						c-0.234-0.089-0.461-0.16-0.692-0.217c-0.119-0.03-0.239-0.055-0.366-0.077c-0.101-0.022-0.346-0.045-0.422-0.038L39.216,8.903
						l-0.817,0.049L38.151,9c-0.706,0.101-1.406,0.395-1.986,0.833c-0.675,0.508-1.063,1.145-1.269,1.589
						c-0.232,0.5-0.38,1.032-0.453,1.626l-0.013,0.111c-0.014,0.144-0.023,0.269-0.026,0.454l-0.002,1.007l-0.007,5.208l1.708,0.002
						l0.009-6.246c0.002-0.058,0.008-0.171,0.017-0.263l0.008-0.071c0.05-0.403,0.157-0.787,0.307-1.106
						c0.397-0.828,1.051-1.304,2.003-1.461l0.158-0.033c0.014-0.003,0.029-0.005,0.044-0.005l0.557-0.033l13.205,0.018
						c0.017,0,0.057,0.003,0.072,0.006l0.044,0.007c0.081,0.014,0.162,0.031,0.246,0.053c0.153,0.037,0.32,0.089,0.493,0.155
						c0.671,0.261,1.293,0.67,1.799,1.188c0.53,0.543,0.96,1.186,1.281,1.909c0.218,0.507,0.431,1.118,0.657,1.765
						c0.076,0.219,0.153,0.441,0.231,0.659l11.504,32.705c0.002,0.007,0.013,0.037,0.014,0.046l0.058,0.216
						c0.292,0.996,0.747,1.952,1.389,2.917c0.593,0.885,1.324,1.68,2.168,2.365c0.742,0.598,1.647,1.116,2.765,1.587
						c0.156,0.055,0.327,0.111,0.499,0.167l0.368,0.119c0.21,0.07,0.408,0.134,0.607,0.168L77.724,56.896z"/>
				</g>
				<path style="fill:#7D7E81;" d="M124.421,54.972l-0.002,1.139c0,0-7.992-0.012-19.977-0.029
					c-5.994-0.008-12.987-0.02-20.478-0.03c-1.874-0.003-3.777-0.006-5.705-0.008c-0.486,0.044-0.953-0.124-1.428-0.208
					c-0.241-0.04-0.468-0.123-0.7-0.199l-0.693-0.228c-0.896-0.379-1.769-0.839-2.537-1.459c-1.529-1.235-2.693-2.943-3.268-4.85
					c-0.622-1.889-1.313-3.765-1.967-5.652c-2.652-7.539-5.304-15.078-7.789-22.144c-0.621-1.767-1.233-3.505-1.831-5.205
					c-0.304-0.848-0.577-1.698-0.923-2.509c-0.357-0.804-0.851-1.539-1.448-2.153c-0.602-0.613-1.328-1.085-2.104-1.385
					c-0.39-0.142-0.793-0.268-1.205-0.277c-0.411-0.001-0.818-0.001-1.221-0.002c-1.616-0.003-3.177-0.006-4.675-0.007
					c-1.5-0.002-2.936-0.004-4.299-0.007c-0.684-0.002-1.35-0.002-1.997-0.004c-0.645,0-1.278-0.021-1.877,0.085
					c-0.604,0.084-1.16,0.334-1.613,0.671c-0.455,0.342-0.792,0.795-1.015,1.272c-0.222,0.477-0.34,0.977-0.389,1.456
					c-0.042,0.481-0.013,0.942-0.023,1.379c-0.006,3.497-0.008,5.494-0.008,5.494l-1.139-0.001c0,0,0.002-1.998,0.008-5.495
					c0.001-0.217,0.001-0.443,0.001-0.672c0.001-0.112,0.001-0.224-0.001-0.337c0.003-0.194,0.012-0.325,0.028-0.479
					c0.062-0.595,0.204-1.207,0.491-1.828c0.285-0.615,0.739-1.231,1.357-1.696c0.612-0.462,1.364-0.781,2.105-0.885l0.281-0.053
					l0.276-0.017c0.184-0.011,0.371-0.022,0.559-0.033c0.315,0.001,0.636,0,0.96,0.001c0.646,0.001,1.312,0.002,1.995,0.002
					c1.366,0.003,2.802,0.004,4.301,0.006c1.497,0.003,3.057,0.004,4.675,0.008c0.402,0,0.811,0.002,1.221,0.003
					c0.112-0.009,0.384,0.018,0.492,0.041c0.136,0.022,0.264,0.05,0.388,0.081c0.25,0.062,0.491,0.139,0.726,0.228
					c0.939,0.362,1.804,0.928,2.513,1.651c0.705,0.722,1.271,1.577,1.675,2.482c0.405,0.951,0.657,1.758,0.964,2.612
					c0.598,1.7,1.209,3.437,1.831,5.203c2.485,7.064,5.136,14.6,7.785,22.136l0.993,2.825l0.496,1.411l0.248,0.705l0.124,0.352
					c0.011,0.036,0.069,0.18,0.085,0.27l0.042,0.156c0.233,0.806,0.641,1.629,1.125,2.353c0.491,0.728,1.087,1.373,1.757,1.92
					c0.675,0.544,1.447,0.946,2.242,1.286l0.62,0.203c0.207,0.067,0.41,0.145,0.629,0.177l0.642,0.137l0.133,0.028
					c0.034,0.007,0.056,0.011,0.064,0.009l0.318,0.001c1.929,0.002,3.832,0.004,5.706,0.009c7.492,0.011,14.484,0.021,20.478,0.03
					C116.429,54.96,124.421,54.972,124.421,54.972z"/>
			</g>
			<g>
				<g>
					<path style="fill:#FFF0BA;" d="M23.163,22.982L23.06,92.936c-0.005,3.553,3.633,6.44,8.129,6.447l7.89,0.012
						c4.493,0.006,8.14-2.869,8.145-6.423l0.104-69.955c0.005-3.555-3.633-6.44-8.128-6.446l-7.889-0.012
						C26.815,16.551,23.168,19.427,23.163,22.982z"/>
					<path style="fill:#AE9279;" d="M47.563,93.642L47.563,93.642c-0.431,3.503-4.081,6.14-8.485,6.134l-7.89-0.013
						c-4.697-0.006-8.514-3.07-8.508-6.827l0.102-69.954c0.001-0.223,0.015-0.449,0.042-0.671c0.431-3.503,4.08-6.139,8.486-6.133
						l7.889,0.012c4.697,0.007,8.514,3.07,8.51,6.827l-0.105,69.956C47.604,93.196,47.59,93.421,47.563,93.642z M23.58,22.403
						c-0.024,0.191-0.036,0.386-0.037,0.579l-0.103,69.954c-0.004,3.338,3.471,6.059,7.748,6.067l7.891,0.011
						c4.021,0.007,7.343-2.343,7.728-5.464l0-0.001c0.023-0.189,0.036-0.385,0.037-0.577l0.102-69.956
						c0.006-3.338-3.471-6.059-7.747-6.065l-7.889-0.012C27.287,16.932,23.965,19.282,23.58,22.403z"/>
				</g>
				<path style="fill:#E1C8B0;" d="M24.704,19.231c0.545-0.204,1.101-0.374,1.681-0.474c1.99-0.339,4.679-0.414,6.443,0.712
					c0.124,0.08,0.136,0.234,0.042,0.34c-0.447,0.52-0.971,0.962-1.462,1.436c0.854-0.239,1.699-0.423,2.609-0.357
					c0.172,0.013,0.309,0.238,0.153,0.372c-0.77,0.659-1.529,1.321-2.199,2.076c1.579-0.645,3.261-1.365,4.962-1.205
					c1.71,0.161,2.773,1.742,3.219,3.267c0.891,3.038,1.208,6.201,1.461,9.346c0.268,3.346,0.522,6.686,0.589,10.044
					c0.195,9.607-0.429,19.214-0.551,28.818c-0.038,3.073-0.143,6.149-0.455,9.209c-0.299,2.923-0.706,5.937-1.76,8.698
					c-0.684,1.789-1.778,3.939-3.782,4.504c-1.831,0.516-3.623-0.342-5.135-1.44c0.563,0.697,1.148,1.379,1.693,2.092
					c0.125,0.164-0.08,0.357-0.244,0.32c-2.002-0.461-3.627-1.688-4.997-3.16c0.492,1.295,1.579,2.305,2.602,3.227
					c0.146,0.13,0.027,0.367-0.155,0.369c-2.457,0.028-4.542-1.604-6.239-3.42c0.641,3.043,3.976,5.37,8.009,5.376l7.89,0.012
					c4.493,0.006,8.14-2.869,8.145-6.423l0.104-69.955c0.005-3.555-3.633-6.44-8.128-6.446l-7.889-0.012
					C28.589,16.554,26.185,17.611,24.704,19.231z"/>
				<g>
					<path style="opacity:0.5;fill:#FFFFFF;" d="M26.279,91.133c-0.302,0.151-0.12,0.575,0.051,0.748
						c0.572,0.581,0.928,1.329,1.565,1.855c0.185,0.152,0.602,0.357,0.802,0.11c0.204-0.251-0.09-0.605-0.272-0.762
						c-0.51-0.441-0.789-1.129-1.252-1.623C26.972,91.246,26.588,90.979,26.279,91.133z"/>
					<path style="opacity:0.5;fill:#FFFFFF;" d="M27.388,90.2c0.124,0.366,0.298,0.701,0.568,0.98
						c0.153,0.159,0.437,0.362,0.672,0.245c0.227-0.113,0.086-0.429-0.04-0.559c-0.15-0.158-0.219-0.308-0.299-0.541
						c-0.082-0.245-0.347-0.455-0.603-0.491C27.449,89.801,27.313,89.976,27.388,90.2z"/>
					<path style="opacity:0.5;fill:#FFFFFF;" d="M31.887,88.878c-0.19,0.233,0.081,0.58,0.259,0.723
						c0.531,0.429,0.882,1.039,1.356,1.527c0.202,0.207,0.57,0.475,0.877,0.321c0.297-0.148,0.117-0.562-0.05-0.734
						c-0.618-0.636-1.043-1.367-1.823-1.833C32.339,88.784,32.034,88.695,31.887,88.878z"/>
					<path style="opacity:0.5;fill:#FFFFFF;" d="M28.806,84.001c0.208,0.574,0.46,1.147,0.882,1.599
						c0.208,0.222,0.608,0.498,0.93,0.338c0.312-0.157,0.12-0.594-0.056-0.775c-0.156-0.161-0.208-0.264-0.333-0.496
						c-0.119-0.22-0.235-0.437-0.366-0.65c-0.147-0.236-0.405-0.435-0.686-0.473C28.885,83.504,28.705,83.723,28.806,84.001z"/>
					<path style="opacity:0.5;fill:#FFFFFF;" d="M32.442,77.515c0.376,0.587,0.579,1.259,0.951,1.847
						c0.143,0.228,0.431,0.449,0.715,0.414c0.278-0.034,0.265-0.333,0.147-0.52c-0.404-0.631-0.58-1.382-1.081-1.954
						c-0.14-0.159-0.371-0.306-0.593-0.279C32.319,77.055,32.331,77.338,32.442,77.515z"/>
					<path style="opacity:0.5;fill:#FFFFFF;" d="M27.887,72.714c0.118,0.583,0.371,1.139,0.787,1.572
						c0.186,0.192,0.528,0.437,0.812,0.295c0.276-0.137,0.107-0.519-0.047-0.678c-0.014-0.013-0.109-0.126-0.122-0.136
						c-0.054-0.079-0.101-0.162-0.145-0.248c-0.08-0.154-0.208-0.468-0.329-0.673c-0.121-0.209-0.363-0.383-0.603-0.416
						C28.069,72.405,27.842,72.502,27.887,72.714z"/>
					<path style="opacity:0.5;fill:#FFFFFF;" d="M26.709,75.551c0.119,0.223,0.293,0.411,0.381,0.651
						c0.086,0.241,0.339,0.448,0.595,0.484c0.231,0.031,0.374-0.141,0.293-0.363c-0.118-0.322-0.328-0.572-0.486-0.868
						c-0.112-0.214-0.404-0.408-0.652-0.378C26.58,75.11,26.617,75.377,26.709,75.551z"/>
					<path style="opacity:0.5;fill:#FFFFFF;" d="M32.129,62.865c0.286,0.641,0.761,1.179,1.182,1.735
						c0.132,0.173,0.454,0.354,0.672,0.245c0.242-0.12,0.067-0.417-0.038-0.56c-0.371-0.5-0.724-1.018-1.108-1.51
						c-0.115-0.147-0.343-0.275-0.534-0.252C32.134,62.545,32.061,62.715,32.129,62.865z"/>
					<path style="opacity:0.5;fill:#FFFFFF;" d="M28.406,58.739c-0.006,0.251,0.112,0.478,0.122,0.727
						c0.011,0.298,0.33,0.566,0.589,0.658c0.231,0.081,0.522,0.031,0.511-0.268c-0.015-0.41-0.175-0.812-0.462-1.107
						C28.99,58.569,28.417,58.27,28.406,58.739z"/>
					<path style="opacity:0.5;fill:#FFFFFF;" d="M32.773,52.77c0.23,0.505,0.489,1.007,0.875,1.414
						c0.155,0.163,0.444,0.366,0.68,0.248c0.229-0.115,0.089-0.435-0.04-0.567c-0.305-0.313-0.486-0.703-0.691-1.083
						c-0.101-0.186-0.328-0.341-0.536-0.369C32.849,52.383,32.673,52.554,32.773,52.77z"/>
					<path style="opacity:0.5;fill:#FFFFFF;" d="M28.586,48.464c-0.21,0.104-0.127,0.351-0.047,0.507
						c-0.057-0.11,0.036,0.135,0.048,0.17c0.053,0.15,0.141,0.275,0.24,0.396c0.162,0.201,0.532,0.424,0.796,0.292
						c0.232-0.116,0.138-0.38,0.024-0.562c-0.003-0.01-0.006-0.017-0.01-0.032c-0.021-0.055-0.037-0.107-0.061-0.16
						c-0.087-0.185-0.201-0.317-0.354-0.449C29.066,48.493,28.789,48.362,28.586,48.464z"/>
					<path style="opacity:0.5;fill:#FFFFFF;" d="M36.317,59.39c0.207,0.404,0.486,0.766,0.804,1.09
						c0.152,0.156,0.431,0.358,0.663,0.242c0.224-0.112,0.088-0.425-0.038-0.554c-0.292-0.298-0.521-0.644-0.785-0.966
						c-0.119-0.142-0.329-0.267-0.522-0.244C36.196,58.988,36.236,59.232,36.317,59.39z"/>
					<path style="opacity:0.5;fill:#FFFFFF;" d="M30.076,53.782c-0.116,0.275,0.121,0.549,0.302,0.73
						c0.166,0.168,0.463,0.385,0.713,0.26c0.239-0.12,0.096-0.456-0.043-0.595c-0.035-0.034-0.069-0.072-0.104-0.109
						c-0.014-0.019-0.028-0.036-0.044-0.053c-0.024-0.025-0.04-0.04-0.057-0.057C30.706,53.746,30.223,53.429,30.076,53.782z"/>
					<path style="opacity:0.5;fill:#FFFFFF;" d="M25.424,49.487c0.017,0.323,0.16,0.605,0.3,0.889
						c0.119,0.237,0.457,0.451,0.725,0.419c0.299-0.036,0.244-0.333,0.149-0.525c-0.067-0.134-0.123-0.265-0.131-0.413
						c-0.015-0.284-0.31-0.536-0.558-0.623C25.692,49.158,25.409,49.204,25.424,49.487z"/>
					<path style="opacity:0.5;fill:#FFFFFF;" d="M31.679,40.438c0.071,0.363,0.277,0.61,0.438,0.931
						c0.095,0.192,0.368,0.365,0.586,0.339c0.234-0.028,0.205-0.271,0.119-0.426c-0.147-0.261-0.348-0.487-0.486-0.754
						c-0.076-0.144-0.255-0.263-0.414-0.285C31.803,40.228,31.65,40.292,31.679,40.438z"/>
					<path style="opacity:0.5;fill:#FFFFFF;" d="M27.348,36.371c0.112,0.332,0.312,0.633,0.551,0.887
						c0.164,0.174,0.477,0.393,0.729,0.266c0.247-0.123,0.095-0.466-0.043-0.609c-0.154-0.159-0.249-0.346-0.369-0.53
						c-0.128-0.192-0.33-0.357-0.564-0.389C27.408,35.962,27.27,36.142,27.348,36.371z"/>
					<path style="opacity:0.5;fill:#FFFFFF;" d="M30.985,33.581c-0.005,0.418,0.363,0.784,0.635,1.065
						c0.155,0.157,0.437,0.361,0.672,0.245c0.222-0.111,0.091-0.432-0.04-0.561c-0.206-0.203-0.349-0.409-0.515-0.646
						c-0.113-0.159-0.273-0.298-0.476-0.326C31.102,33.335,30.987,33.417,30.985,33.581z"/>
					<path style="opacity:0.5;fill:#FFFFFF;" d="M26.639,28.102c-0.076,0.426,0.067,0.749,0.257,1.122
						c0.135,0.265,0.51,0.507,0.814,0.47c0.336-0.04,0.272-0.373,0.166-0.591c0.023,0.046,0.018,0.038-0.013-0.026
						c-0.025-0.059-0.046-0.117-0.066-0.177c-0.034-0.097-0.068-0.204-0.088-0.305c-0.05-0.252-0.213-0.451-0.438-0.578
						C27.111,27.924,26.691,27.81,26.639,28.102z"/>
					<path style="opacity:0.5;fill:#FFFFFF;" d="M38.404,32.142c0.488,0.813,1.027,1.596,1.526,2.403
						c0.118,0.192,0.364,0.377,0.602,0.348c0.235-0.029,0.22-0.281,0.123-0.438c-0.552-0.884-1.061-1.815-1.846-2.517
						C38.606,31.757,38.209,31.819,38.404,32.142z"/>
					<path style="opacity:0.5;fill:#FFFFFF;" d="M37.838,29.667c0.238,0.641,0.694,1.161,1.046,1.737
						c0.141,0.232,0.438,0.454,0.723,0.418c0.285-0.034,0.265-0.337,0.15-0.525c-0.368-0.602-0.779-1.182-1.239-1.716
						c-0.119-0.139-0.323-0.265-0.513-0.241C37.836,29.361,37.783,29.521,37.838,29.667z"/>
					<path style="opacity:0.5;fill:#FFFFFF;" d="M33.631,24.398c-0.145,0.457,0.111,0.974,0.354,1.359
						c0.154,0.243,0.46,0.48,0.765,0.443c0.297-0.036,0.282-0.359,0.156-0.555c-0.103-0.164-0.164-0.334-0.232-0.516
						c-0.09-0.247-0.234-0.444-0.404-0.643C34.15,24.346,33.726,24.102,33.631,24.398z"/>
					<path style="opacity:0.5;fill:#FFFFFF;" d="M38.73,23.657c-0.185,0.093-0.057,0.328,0.031,0.436
						c0.286,0.357,0.608,0.676,0.927,1.002c0.144,0.146,0.404,0.336,0.622,0.227c0.207-0.103,0.085-0.399-0.037-0.518
						c-0.36-0.355-0.712-0.715-1.104-1.035C39.058,23.68,38.872,23.586,38.73,23.657z"/>
					<path style="opacity:0.5;fill:#FFFFFF;" d="M42.556,79.587c0.319,0.638,0.791,1.181,1.08,1.841
						c0.116,0.266,0.364,0.498,0.662,0.538c0.241,0.033,0.434-0.157,0.326-0.403c-0.35-0.786-0.822-1.52-1.382-2.174
						C42.97,79.069,42.272,79.019,42.556,79.587z"/>
					<path style="opacity:0.5;fill:#FFFFFF;" d="M43.494,77.856c0.234,0.52,0.572,0.985,0.79,1.511
						c0.111,0.27,0.372,0.502,0.669,0.544c0.251,0.035,0.433-0.159,0.331-0.407c-0.268-0.645-0.648-1.187-1.069-1.738
						c-0.118-0.151-0.349-0.279-0.543-0.255C43.502,77.531,43.427,77.705,43.494,77.856z"/>
					<path style="opacity:0.5;fill:#FFFFFF;" d="M38.91,71.38c0.1,0.497,0.348,0.941,0.624,1.364
						c0.129,0.198,0.375,0.394,0.627,0.363c0.242-0.029,0.234-0.294,0.128-0.455c-0.275-0.422-0.478-0.869-0.793-1.266
						c-0.081-0.101-0.218-0.181-0.347-0.201C39.033,71.171,38.881,71.237,38.91,71.38z"/>
					<path style="opacity:0.5;fill:#FFFFFF;" d="M43.451,90.782c0.218,0.548,0.567,1.034,0.917,1.507
						c0.15,0.203,0.384,0.415,0.66,0.381c0.244-0.03,0.257-0.312,0.135-0.478c-0.395-0.537-0.707-1.113-1.214-1.559
						C43.789,90.491,43.31,90.428,43.451,90.782z"/>
					<path style="opacity:0.5;fill:#FFFFFF;" d="M40.74,90.018c0.076,0.241,0.2,0.441,0.371,0.626
						c0.137,0.151,0.409,0.334,0.621,0.228c0.277-0.137-0.003-0.491-0.132-0.613c-0.01-0.01-0.014-0.011-0.02-0.017
						c-0.006-0.008-0.016-0.018-0.036-0.04c-0.07-0.069-0.109-0.098-0.167-0.176c-0.101-0.138-0.235-0.26-0.414-0.285
						C40.781,89.717,40.686,89.85,40.74,90.018z"/>
					<path style="opacity:0.5;fill:#FFFFFF;" d="M42.487,54.336c0.17,0.806,0.695,1.47,1.145,2.144
						c0.148,0.222,0.421,0.443,0.708,0.409c0.271-0.034,0.265-0.331,0.144-0.514c-0.45-0.682-0.849-1.394-1.364-2.029
						C43.019,54.218,42.405,53.948,42.487,54.336z"/>
					<path style="opacity:0.5;fill:#FFFFFF;" d="M43.426,50.426c-0.151,0.075-0.121,0.286-0.037,0.4
						c0.217,0.295,0.312,0.693,0.573,0.986c0.15,0.165,0.448,0.363,0.681,0.247c0.231-0.114,0.085-0.432-0.04-0.567
						c-0.068-0.073-0.165-0.266-0.24-0.409c-0.106-0.206-0.26-0.378-0.434-0.531C43.807,50.446,43.585,50.346,43.426,50.426z"/>
					<path style="opacity:0.5;fill:#FFFFFF;" d="M37.625,43.914c0.081,0.455,0.322,0.777,0.572,1.152
						c0.12,0.179,0.339,0.358,0.57,0.329c0.216-0.026,0.215-0.268,0.116-0.413c-0.197-0.288-0.408-0.554-0.529-0.886
						c-0.061-0.168-0.217-0.306-0.383-0.364C37.836,43.683,37.588,43.706,37.625,43.914z"/>
					<path style="opacity:0.5;fill:#FFFFFF;" d="M41.501,43.562c0.077,0.237,0.212,0.431,0.324,0.649
						c0.112,0.22,0.423,0.421,0.674,0.392c0.274-0.034,0.235-0.312,0.139-0.491c-0.105-0.196-0.243-0.358-0.373-0.537
						c-0.123-0.167-0.282-0.312-0.496-0.34C41.551,43.203,41.438,43.36,41.501,43.562z"/>
					<path style="opacity:0.5;fill:#FFFFFF;" d="M44.183,28.738c0.081,0.609,0.578,1.042,0.81,1.589
						c0.094,0.219,0.302,0.409,0.543,0.442c0.203,0.028,0.354-0.129,0.268-0.33c-0.243-0.573-0.622-1.104-0.978-1.612
						c-0.097-0.138-0.234-0.257-0.407-0.281C44.298,28.53,44.164,28.595,44.183,28.738z"/>
					<path style="opacity:0.5;fill:#FFFFFF;" d="M43.743,25.632c-0.242,0.123-0.069,0.424,0.039,0.569
						c0.141,0.185,0.317,0.344,0.426,0.545c0.128,0.235,0.45,0.454,0.725,0.42c0.292-0.036,0.252-0.335,0.148-0.526
						c-0.183-0.34-0.462-0.627-0.764-0.861C44.168,25.663,43.933,25.537,43.743,25.632z"/>
					<path style="opacity:0.5;fill:#FFFFFF;" d="M26.336,20.788c-0.197,0.098-0.072,0.363,0.032,0.478
						c0.121,0.135,0.204,0.299,0.326,0.433c0.125,0.14,0.376,0.307,0.572,0.209c0.196-0.097,0.071-0.362-0.033-0.478
						c-0.121-0.133-0.203-0.298-0.326-0.434C26.782,20.858,26.532,20.691,26.336,20.788z"/>
				</g>
			</g>
		</g>
		<g>
			<g>
				<path style="fill:#2D7298;" d="M392.006,55.778c-0.117-0.714-0.339-1.386-0.623-2.032L129.036,53.36l-0.008,5.923l262.164,0.385
					C391.845,58.482,392.232,57.159,392.006,55.778z"/>
				<path style="fill:#13445E;" d="M392.221,57.24L392.221,57.24c-0.101,0.817-0.391,1.664-0.863,2.521l-0.055,0.097l-0.113,0.001
					l-262.353-0.386l0.01-6.304l0.189,0l262.472,0.386l0.051,0.113c0.315,0.716,0.523,1.398,0.636,2.078
					C392.273,56.234,392.283,56.736,392.221,57.24z M391.077,59.478c0.417-0.78,0.674-1.546,0.765-2.285l0,0
					c0.058-0.469,0.05-0.933-0.024-1.384c-0.101-0.614-0.284-1.227-0.56-1.873l-262.032-0.386l-0.008,5.543L391.077,59.478z"/>
			</g>
			<path style="fill:#57697D;" d="M392.006,55.778c-0.117-0.714-0.339-1.386-0.623-2.032L129.036,53.36l-0.004,2.757l263.037,0.388
				C392.065,56.265,392.046,56.023,392.006,55.778z"/>
			<path style="fill:#57697D;" d="M392.023,57.258l-262.992-0.386l-0.002,1.379l262.641,0.388
				C391.839,58.192,391.961,57.731,392.023,57.258z"/>
			<g>
				
					<rect x="112.408" y="40.676" transform="matrix(0.0014 -1 1 0.0014 59.7555 172.4475)" style="fill:#DB6342;" width="7.636" height="31.254"/>
				<path style="fill:#943338;" d="M132.037,60.335l-31.634-0.048l0.011-8.015l31.634,0.047L132.037,60.335z M100.784,59.908
					l30.873,0.046l0.01-7.256l-30.873-0.045L100.784,59.908z"/>
			</g>
			
				<rect x="114.32" y="38.767" transform="matrix(0.0012 -1 1 0.0012 61.698 170.5585)" style="fill:#DB6342;" width="3.817" height="31.254"/>
			
				<rect x="115.764" y="42.604" transform="matrix(0.0014 -1 1 0.0014 57.8266 174.3725)" style="fill:#DB6342;" width="0.918" height="31.256"/>
		</g>
	</g>
	<g>
		<g>
			<g>
				<g>
					<path style="fill:#7D7E81;" d="M159.808,145.366l0.084-4.178l118.495,2.353l0.093,0.003l0.086,0.009
						c2.379,0.266,4.641-0.096,6.236-1.268c0.812-0.574,1.456-1.38,1.929-2.329c0.469-0.934,0.781-2.104,0.876-3.079l0.016-0.204
						c0.574-4.537,1.269-8.943,1.912-13.417c0.746-4.451,1.499-8.898,2.294-13.345l1.486-6.666c0.516-2.228,0.897-4.425,1.676-6.712
						c0.793-2.253,1.751-4.521,3.384-6.616c0.857-1.024,1.87-2.028,3.253-2.718c0.692-0.328,1.445-0.607,2.266-0.694
						c0.404-0.058,0.824-0.065,1.25-0.034c0.211,0.015,0.424,0.034,0.654,0.082c0.113,0.018,0.212,0.035,0.344,0.074
						c0.127,0.036,0.217,0.053,0.448,0.142l-0.41-0.12l16.613,2.926l-0.724,4.117l-16.614-2.926l-0.415-0.121l0.053,0.019
						l0.016,0.007c-0.008,0.038,0.126-0.385,0.059-0.169l-0.051,0.144c-0.021,0.05-0.017,0.011-0.025,0.021
						c-0.005-0.002-0.045-0.005-0.071-0.01c-0.046-0.016-0.114-0.017-0.182-0.023c-0.129-0.005-0.28-0.01-0.429,0.019
						c-0.297,0.019-0.613,0.148-0.933,0.293c-0.637,0.313-1.268,0.904-1.847,1.59c-1.139,1.457-1.993,3.365-2.682,5.336
						c-0.672,1.967-1.079,4.204-1.573,6.349l-1.441,6.482c-0.788,4.388-1.533,8.794-2.27,13.197
						c-0.631,4.411-1.333,8.876-1.887,13.249l-0.002,0.023c-0.164,1.696-0.584,3.165-1.305,4.649
						c-0.719,1.454-1.793,2.827-3.175,3.823c-1.372,0.981-2.964,1.668-4.545,1.923c-0.79,0.188-1.568,0.164-2.35,0.245
						c-0.769-0.012-1.522-0.065-2.281-0.104l0.187,0.011L159.808,145.366z"/>
					<path style="fill:#67686B;" d="M282.251,148.645c-0.346,0.043-0.687,0.064-1.025,0.085c-0.243,0.016-0.485,0.029-0.731,0.052
						c-0.039,0.005-0.073,0.006-0.111,0.006c-0.602-0.009-1.197-0.042-1.79-0.076l-0.279-0.015
						c-0.008,0.001-0.019-0.002-0.028-0.003l-118.498-2.349c-0.258-0.005-0.505-0.115-0.684-0.299
						c-0.181-0.188-0.277-0.439-0.275-0.698l0.085-4.176c0.011-0.542,0.452-0.967,0.996-0.961l118.494,2.354l0.1,0.004l0.062,0.986
						l0.112-0.973c2.269,0.255,4.252-0.13,5.544-1.082c0.671-0.476,1.215-1.138,1.632-1.978c0.392-0.78,0.693-1.829,0.78-2.739
						l0.014-0.184c0.412-3.241,0.882-6.424,1.337-9.503c0.195-1.323,0.392-2.646,0.58-3.975c0.681-4.051,1.471-8.739,2.302-13.38
						l1.495-6.707c0.132-0.573,0.255-1.137,0.378-1.7c0.359-1.651,0.728-3.359,1.327-5.113c0.753-2.136,1.754-4.619,3.539-6.904
						c0.816-0.976,1.937-2.17,3.586-2.991c0.918-0.437,1.703-0.68,2.486-0.778c0,0,0.109-0.014,0.116-0.015l0.069-0.009
						c0.421-0.053,0.878-0.063,1.354-0.03c0.25,0.017,0.51,0.042,0.787,0.102c0.129,0.023,0.255,0.047,0.411,0.092
						c0.019,0.006,0.038,0.01,0.058,0.018l16.489,2.906c0.256,0.043,0.483,0.19,0.632,0.403c0.149,0.212,0.206,0.476,0.161,0.73
						l-0.725,4.117c-0.093,0.533-0.595,0.884-1.135,0.793l-16.611-2.928c-0.033-0.004-0.071-0.015-0.105-0.024l-0.211-0.063
						c-0.036-0.004-0.076-0.009-0.112-0.022c-0.01-0.001-0.022-0.002-0.028-0.006c-0.124-0.006-0.132-0.013-0.326,0.011
						c-0.008,0.001-0.021,0.003-0.021,0.003l-0.007,0.001c-0.184,0.023-0.461,0.149-0.595,0.209c-0.283,0.139-0.796,0.492-1.5,1.331
						c-0.909,1.16-1.734,2.813-2.508,5.028c-0.483,1.417-0.837,3.043-1.182,4.617c-0.117,0.544-0.237,1.09-0.363,1.629l-1.436,6.475
						c-0.816,4.556-1.599,9.204-2.263,13.145c-0.19,1.333-0.389,2.691-0.59,4.053c-0.448,3.017-0.909,6.137-1.291,9.158
						c-0.169,1.789-0.617,3.373-1.396,4.979c-0.848,1.712-2.05,3.158-3.486,4.188c-1.532,1.096-3.244,1.82-4.961,2.098
						C282.732,148.573,282.491,148.615,282.251,148.645z M280.358,146.831c0.251-0.023,0.501-0.041,0.753-0.055
						c0.468-0.029,0.938-0.05,1.415-0.162c1.466-0.238,2.931-0.862,4.197-1.767c1.173-0.845,2.166-2.043,2.867-3.462
						c0.676-1.385,1.061-2.754,1.208-4.309c0.39-3.094,0.852-6.223,1.3-9.251c0.202-1.359,0.403-2.715,0.597-4.068
						c0.665-3.968,1.449-8.624,2.273-13.228l1.45-6.521c0.123-0.539,0.242-1.078,0.359-1.614c0.356-1.629,0.72-3.312,1.246-4.838
						c0.845-2.428,1.77-4.267,2.835-5.623c0.774-0.92,1.485-1.527,2.19-1.869c0.357-0.161,0.744-0.324,1.166-0.377
						c0.009-0.001,0.048-0.004,0.082-0.008l0.061-0.01c0.096-0.012,0.192-0.016,0.285-0.019c0.408-0.311,0.983-0.208,1.292,0.161
						c0.014,0.016,0.026,0.034,0.039,0.052l15.297,2.694l0.387-2.187l-14.936-2.634c-0.101,0.008-0.267,0.008-0.399-0.03
						l-0.415-0.119c-0.039-0.012-0.079-0.023-0.114-0.041c-0.048-0.011-0.09-0.018-0.134-0.022
						c-0.247-0.056-0.417-0.064-0.581-0.076c-0.352-0.028-0.678-0.021-0.974,0.016c-0.006,0.001-0.091,0.016-0.108,0.014
						l-0.007,0.001c-0.644,0.081-1.24,0.271-1.942,0.606c-1.311,0.651-2.251,1.659-2.924,2.463c-1.588,2.039-2.517,4.334-3.21,6.313
						c-0.558,1.64-0.901,3.218-1.265,4.888c-0.124,0.574-0.247,1.146-0.38,1.721l-1.483,6.654c-0.823,4.593-1.61,9.272-2.286,13.298
						c-0.186,1.308-0.383,2.634-0.579,3.961c-0.455,3.067-0.921,6.24-1.325,9.417l-0.012,0.159
						c-0.117,1.171-0.481,2.451-0.978,3.438c-0.56,1.129-1.313,2.033-2.234,2.691c-1.685,1.235-4.144,1.75-6.912,1.443
						l-117.609-2.34l-0.044,2.22l117.199,2.326c0.053-0.007,0.108-0.008,0.161-0.003l0.158,0.006
						c0.034,0.003,0.069,0.004,0.106,0.009l0.271,0.013C279.255,146.79,279.802,146.818,280.358,146.831z"/>
				</g>
				<path style="fill:#7D7E81;" d="M159.808,145.366l0.041-2.09l118.491,2.352l0,0c2.653,0.297,5.516-0.058,7.707-1.665
					c2.215-1.594,3.375-4.293,3.643-6.944l0.012-0.109c0.564-4.457,1.262-8.89,1.9-13.332c0.739-4.428,1.492-8.857,2.281-13.275
					l1.463-6.571c0.504-2.187,0.898-4.403,1.623-6.53c0.744-2.113,1.647-4.205,3.034-5.979c0.716-0.855,1.539-1.651,2.55-2.155
					c1.001-0.491,2.186-0.701,3.266-0.365l0,0l16.611,2.929l-0.361,2.057l-16.614-2.926l-0.415-0.121l0.053,0.019l0.016,0.007
					c-0.008,0.038,0.126-0.385,0.059-0.169l-0.051,0.144c-0.021,0.05-0.017,0.011-0.025,0.021c-0.005-0.002-0.045-0.005-0.071-0.01
					c-0.046-0.016-0.114-0.017-0.182-0.023c-0.129-0.005-0.28-0.01-0.429,0.019c-0.297,0.019-0.613,0.148-0.933,0.293
					c-0.637,0.313-1.268,0.904-1.847,1.59c-1.139,1.457-1.993,3.365-2.682,5.336c-0.672,1.967-1.079,4.204-1.573,6.349l-1.441,6.482
					c-0.788,4.388-1.533,8.794-2.27,13.197c-0.631,4.411-1.333,8.876-1.887,13.249l-0.002,0.023
					c-0.164,1.696-0.584,3.165-1.305,4.649c-0.719,1.454-1.793,2.827-3.175,3.823c-1.372,0.981-2.964,1.668-4.545,1.923
					c-0.79,0.188-1.568,0.164-2.35,0.245c-0.769-0.012-1.522-0.065-2.281-0.104l0.187,0.011L159.808,145.366z"/>
			</g>
			<g>
				<path style="fill:#E94A2F;" d="M164.509,155.616l0.553-12.473l0.022-0.504l0.553-12.474c0,0-0.719-6.137-4.606-4.788
					c0,0-2.712,0.892-3.679,3.911c0,0,1.679,2.625-7.759-1.11c-9.437-3.732-106.838-4.75-106.838-4.75s-3.91-0.608-5.683,6.134
					l-0.199-0.02c0,0-0.754,3.066-0.9,7.615c-0.256,4.541,0.22,7.667,0.22,7.667l0.196-0.005c1.172,6.872,5.122,6.61,5.122,6.61
					s97.105,7.632,106.837,4.744c9.729-2.881,7.833-0.418,7.833-0.418c0.695,3.094,3.314,4.222,3.314,4.222
					C163.243,161.669,164.509,155.616,164.509,155.616z"/>
				<path style="fill:#5B0D00;" d="M161.184,161.231L161.184,161.231c-0.674,0.084-1.38-0.036-2.092-0.358
					c-0.111-0.048-3.07-1.36-3.866-4.9c-0.016-0.068-0.025-0.144-0.022-0.214c-0.234-0.008-0.585,0.002-1.104,0.067
					c-1.287,0.161-3.13,0.596-5.474,1.291c-0.441,0.128-1.012,0.234-1.745,0.326c-15.675,1.964-101.096-4.697-105.395-5.036
					c-0.676,0.007-4.621-0.253-5.954-6.863c-0.157-0.147-0.269-0.342-0.305-0.571c-0.019-0.132-0.491-3.279-0.229-7.873
					c0.146-4.571,0.894-7.665,0.925-7.793c0.055-0.223,0.182-0.41,0.355-0.541c1.487-5.024,4.192-6.105,5.708-6.295
					c0.391-0.049,0.687-0.032,0.832-0.018c4.674,0.05,97.674,1.075,107.134,4.817c3.984,1.573,5.707,1.899,6.427,1.935
					c0.008-0.073,0.021-0.146,0.043-0.213c1.107-3.455,4.172-4.501,4.304-4.541c1.245-0.433,2.515-0.27,3.502,0.501
					c1.91,1.496,2.341,4.739,2.384,5.101c0.007,0.053,0.009,0.107,0.004,0.158l-1.13,25.451c-0.002,0.052-0.008,0.105-0.019,0.156
					C165.36,156.329,164.332,160.837,161.184,161.231z M157.218,155.866c0.668,2.299,2.582,3.181,2.67,3.217
					c0.388,0.175,0.74,0.245,1.052,0.206c1.474-0.185,2.367-2.795,2.594-3.798l1.124-25.284c-0.112-0.827-0.597-2.901-1.641-3.719
					c-0.47-0.369-1.001-0.419-1.668-0.189c-0.095,0.035-2.086,0.739-2.953,2.97c0.077,0.305,0.078,0.657-0.081,0.995
					c-0.158,0.34-0.525,0.769-1.361,0.873c-1.298,0.163-3.823-0.509-7.72-2.05c-9.165-3.625-105.518-4.67-106.491-4.682
					c-0.045,0.001-0.092-0.004-0.138-0.01c0,0.002,0.003,0.002,0,0.002c0,0-3.076-0.337-4.587,5.412
					c-0.051,0.199-0.162,0.369-0.31,0.495c-0.211,1.051-0.65,3.573-0.755,6.882c-0.192,3.323,0.023,5.884,0.141,6.951
					c0.132,0.136,0.227,0.316,0.264,0.517c0.99,5.82,3.983,5.8,4.108,5.797c0.032-0.004,0.089-0.002,0.124,0.003
					c0.892,0.067,89.51,6.994,105.049,5.047c0.614-0.077,1.098-0.168,1.432-0.266c2.446-0.724,4.393-1.18,5.787-1.355
					c1.228-0.154,2.71-0.203,3.272,0.781C157.363,155.072,157.344,155.505,157.218,155.866z"/>
			</g>
			<path style="fill:#E94A2F;" d="M45.017,131.059c7.04-0.502,14.043-0.274,21.095-0.146c14.659,0.275,29.221-0.792,43.867-1.117
				c12.484-0.276,25.205-0.24,37.303,3.142c2.46,0.687,5.087,1.511,7.666,1.515c3.309,0.001,4.823-1.732,6.628-4.312
				c0.881-1.255,2.005-2.146,3.275-2.743c-0.658-1.417-1.819-2.714-3.821-2.019c0,0-2.712,0.892-3.679,3.911
				c0,0,1.679,2.625-7.759-1.11c-9.437-3.732-106.838-4.75-106.838-4.75s-3.91-0.608-5.683,6.134l-0.199-0.02
				c0,0-0.18,0.741-0.384,2.026C39.338,131.487,42.192,131.257,45.017,131.059z"/>
			<path style="fill:#E94A2F;" d="M41.511,151.43c0,0,97.105,7.632,106.837,4.744c9.729-2.881,7.833-0.418,7.833-0.418
				c0.695,3.094,3.314,4.222,3.314,4.222c3.749,1.691,5.015-4.362,5.015-4.362l0.553-12.473l0.022-0.504l0.553-12.474
				c0,0-0.024-0.23-0.097-0.584c-0.143,7.196-0.169,14.917-4.521,20.576c-0.204,0.267-0.593,0.263-0.843,0.069
				c-5.04-3.971-4.114-12.177-5.419-18.135c-1.24,3.628-0.378,7.811-2.162,11.281c-1.775,3.45-5.262,4.149-8.888,4
				c-4.49-0.18-8.891-1.221-13.37-1.41c-7.641-0.319-15.289-0.622-22.933-0.705c-14.506-0.154-28.99-0.365-43.494-0.043
				c-9.073,0.206-18.154,1.025-27.219,0.964C38.109,151.646,41.511,151.43,41.511,151.43z"/>
		</g>
		<g>
			<g>
				<g>
					<path style="fill:#F4F3D7;" d="M353.881,191.257l13.53-76.785c3.201-18.178-8.935-35.506-27.109-38.708
						c-18.172-3.201-35.504,8.936-38.706,27.113l-13.803,78.348L353.881,191.257z"/>
					<path style="fill:#B8BABC;" d="M354.003,192.227c-0.086,0.011-0.177,0.012-0.268-0.003l-66.089-10.033
						c-0.262-0.04-0.495-0.184-0.648-0.398c-0.152-0.214-0.214-0.478-0.169-0.737l13.804-78.351
						c2.638-14.959,14.525-26.279,29.584-28.166c3.399-0.426,6.849-0.337,10.256,0.264c18.675,3.291,31.194,21.162,27.905,39.837
						l-13.534,76.786C354.77,191.858,354.417,192.175,354.003,192.227z M288.929,180.405l64.154,9.742l13.363-75.844
						c3.106-17.614-8.701-34.47-26.317-37.575c-3.209-0.566-6.464-0.649-9.67-0.248c-14.2,1.779-25.411,12.455-27.9,26.565
						L288.929,180.405z"/>
				</g>
				<path style="fill:#D5D5BF;" d="M354.505,179.213c-1.077-6.324-3.681-12.943-7.336-18.225
					c-3.316-4.795-7.652-9.217-12.929-11.836c-3.626-1.801-7.989-3.122-10.928-6.042c-3.399-3.384-3.514-7.545-3.372-12.132
					c0.202-6.431,1.059-12.81,2.25-19.129c1.656-8.779,3.968-17.085,11.465-22.078c-2.013,0.092-3.986,0.13-5.969-0.549
					c-0.379-0.131-0.419-0.652-0.203-0.921c1.928-2.394,4.682-3.249,7.546-3.794c-2.14-0.233-4.258-0.54-6.278-1.355
					c-0.429-0.177-0.424-0.774-0.084-1.029c4.71-3.522,11.467-3.462,17.039-2.628c3.345,0.502,6.478,1.533,9.45,2.906
					c-4.189-3.302-9.232-5.646-14.855-6.638c-18.172-3.201-35.504,8.936-38.706,27.113l-13.803,78.348l65.108,9.881
					C353.986,187.21,355.213,183.35,354.505,179.213z"/>
				<g>
					<path style="fill:#F4F3D7;" d="M314.9,219.928c-18.173-3.202-30.312-20.53-27.108-38.703
						c3.201-18.179,20.529-30.316,38.703-27.111c18.177,3.202,30.313,20.532,27.111,38.706
						C350.406,210.995,333.076,223.13,314.9,219.928z"/>
					<path style="fill:#B8BABC;" d="M324.986,221.153c-3.397,0.426-6.849,0.341-10.257-0.263c-9.046-1.591-16.931-6.613-22.2-14.137
						c-5.27-7.525-7.297-16.653-5.702-25.7c2.635-14.959,14.522-26.28,29.581-28.167c3.399-0.426,6.852-0.336,10.26,0.266
						c9.044,1.591,16.93,6.614,22.204,14.138c5.266,7.526,7.291,16.654,5.698,25.698
						C351.935,207.949,340.049,219.265,324.986,221.153z M316.652,154.828c-14.2,1.779-25.412,12.456-27.897,26.565
						c-1.502,8.531,0.404,17.139,5.375,24.236c4.97,7.095,12.408,11.834,20.942,13.337c3.213,0.566,6.468,0.646,9.671,0.245
						c14.203-1.78,25.416-12.455,27.9-26.563c1.502-8.531-0.408-17.14-5.378-24.233c-4.971-7.098-12.405-11.835-20.939-13.338
						C323.112,154.511,319.858,154.426,316.652,154.828z"/>
				</g>
				<path style="fill:#D5D5BF;" d="M316.296,210.392c-11.958-2.11-19.945-13.512-17.84-25.474
					c2.11-11.962,13.514-19.946,25.474-17.841c11.957,2.108,19.949,13.516,17.845,25.472
					C339.665,204.512,328.258,212.497,316.296,210.392z"/>
				<g>
					<path style="fill:#DB6342;" d="M317.221,206.767c-9.559-1.686-15.943-10.798-14.261-20.356
						c1.686-9.565,10.805-15.948,20.36-14.26c9.558,1.682,15.943,10.798,14.26,20.359
						C335.892,202.07,326.777,208.452,317.221,206.767z"/>
					<path style="fill:#943338;" d="M322.583,207.872c-1.834,0.23-3.695,0.181-5.534-0.141
						c-10.074-1.777-16.826-11.418-15.053-21.492c1.421-8.07,7.834-14.178,15.959-15.196c1.834-0.23,3.696-0.184,5.534,0.143
						c4.879,0.858,9.133,3.569,11.976,7.629c2.844,4.058,3.937,8.98,3.074,13.864C337.12,200.748,330.705,206.854,322.583,207.872z
						 M318.199,172.984c-7.268,0.911-13.003,6.374-14.273,13.596c-1.59,9.01,4.452,17.636,13.465,19.224
						c1.643,0.289,3.311,0.333,4.949,0.128c7.267-0.911,13.002-6.374,14.274-13.594c0.773-4.365-0.207-8.77-2.749-12.401
						c-2.544-3.632-6.349-6.057-10.715-6.821C321.504,172.824,319.841,172.778,318.199,172.984z"/>
				</g>
				<g>
					<path style="fill:#656668;" d="M318.466,199.698c-4.575-0.805-7.627-5.169-6.823-9.741c0.806-4.574,5.168-7.629,9.741-6.824
						c4.575,0.805,7.629,5.168,6.822,9.74C327.401,197.451,323.039,200.505,318.466,199.698z"/>
					<path style="fill:#5B0D00;" d="M321.096,200.732c-0.928,0.116-1.872,0.095-2.802-0.072c-2.466-0.433-4.619-1.805-6.059-3.858
						c-1.436-2.055-1.989-4.546-1.555-7.016c0.72-4.084,3.962-7.172,8.074-7.687c0.928-0.116,1.872-0.091,2.802,0.071
						c2.468,0.436,4.621,1.806,6.057,3.861c1.441,2.054,1.993,4.545,1.557,7.013C328.45,197.128,325.205,200.217,321.096,200.732z
						 M318.998,184.042c-3.254,0.408-5.821,2.854-6.39,6.084c-0.345,1.954,0.09,3.929,1.232,5.555
						c1.141,1.625,2.841,2.71,4.797,3.055c0.737,0.128,1.482,0.149,2.217,0.057c3.251-0.407,5.821-2.855,6.387-6.088
						c0.346-1.954-0.087-3.926-1.225-5.554c-1.141-1.624-2.846-2.707-4.799-3.052C320.481,183.967,319.733,183.95,318.998,184.042z"
						/>
				</g>
			</g>
			<g>
				<path style="fill:#D5D5BF;" d="M365.816,102.854c-0.098-0.742-0.124-1.622-0.347-2.334c-0.281-0.887-0.805-1.787-1.301-2.571
					c-0.254-0.406-0.93-0.45-0.609,0.139c0.384,0.709,0.737,1.44,1.082,2.173c0.317,0.664,0.362,1.596,0.481,2.32
					C365.178,102.905,365.883,103.39,365.816,102.854z"/>
				<path style="fill:#D5D5BF;" d="M361.223,93.793c-0.537-0.702-1.125-1.359-1.534-2.152c-0.192-0.371-0.734-0.373-0.507,0.115
					c0.402,0.879,1.061,1.574,1.659,2.326C361.14,94.454,361.513,94.176,361.223,93.793z"/>
				<path style="fill:#D5D5BF;" d="M352.739,83.87c-1.364-0.815-2.855-1.537-4.363-2.049c-0.509-0.172-0.288,0.578-0.016,0.728
					c1.38,0.75,2.899,1.199,4.28,1.96C353.153,84.79,353.068,84.067,352.739,83.87z"/>
				<path style="fill:#D5D5BF;" d="M347.822,92.749c-1.194-0.584-2.592-1.133-3.925-1.27c-0.482-0.054-0.072,0.687,0.166,0.78
					c1.265,0.489,2.598,0.689,3.838,1.267C348.411,93.76,348.135,92.905,347.822,92.749z"/>
				<path style="fill:#D5D5BF;" d="M339.88,93.969c0.446,0.046,0.082-0.716-0.241-0.76c-1.214-0.153-2.454-0.358-3.681-0.252
					c-0.359,0.031,0.056,0.684,0.294,0.708C337.459,93.776,338.672,93.835,339.88,93.969z"/>
				<path style="fill:#D5D5BF;" d="M354.034,106.366c-0.462-0.449-1.024-0.639-1.636-0.797c-0.217-0.053-0.249,0.223-0.208,0.362
					c0.072,0.214,0.24,0.386,0.458,0.436c0.406,0.098,0.805,0.205,1.115,0.499C354.193,107.275,354.362,106.682,354.034,106.366z"/>
				<path style="fill:#D5D5BF;" d="M356.122,128.475c-0.297-0.766-0.779-1.356-1.201-2.048c-0.361-0.588-0.746-1.176-1.294-1.609
					c-0.439-0.353-0.715,0.068-0.4,0.474c0.326,0.424,0.67,0.83,0.964,1.277c0.387,0.588,0.868,1.151,1.133,1.811
					c0.092,0.235,0.277,0.499,0.554,0.531C356.13,128.943,356.198,128.669,356.122,128.475z"/>
				<path style="fill:#D5D5BF;" d="M347.198,122.891c-0.268-0.066-0.443-0.131-0.663-0.291c-0.466-0.339-0.401,0.408-0.103,0.629
					c0.31,0.225,0.638,0.335,1.006,0.43C347.856,123.763,347.511,122.972,347.198,122.891z"/>
				<path style="fill:#D5D5BF;" d="M337.038,121.507c0.403,0.042,0.074-0.649-0.215-0.685c-1.033-0.12-2.383-0.328-3.387,0.027
					c-0.271,0.094,0.05,0.47,0.21,0.501C334.732,121.588,335.926,121.394,337.038,121.507z"/>
				<path style="fill:#D5D5BF;" d="M346.569,137.903c-0.688-0.639-1.515-0.985-2.406-1.221c-0.576-0.158-0.3,0.61-0.018,0.79
					c0.654,0.415,1.462,0.609,2.038,1.135C346.803,139.168,347.043,138.338,346.569,137.903z"/>
				<path style="fill:#D5D5BF;" d="M339.666,142.836c-0.482-0.277-0.98-0.434-1.513-0.573c-0.502-0.129-1.024-0.526-1.525-0.271
					c-0.235,0.119,0.03,0.537,0.135,0.635c0.799,0.734,1.849,0.698,2.744,1.207C340.304,144.286,340.195,143.14,339.666,142.836z"/>
				<path style="fill:#D5D5BF;" d="M349.588,152.903c-0.481-0.575-1.036-1.074-1.444-1.71c-0.213-0.335-0.79-0.364-0.631,0.144
					c0.267,0.847,0.952,1.347,1.51,1.993C349.481,153.858,350.05,153.454,349.588,152.903z"/>
				<path style="fill:#D5D5BF;" d="M351.727,166.996c0.019-1.643-0.898-3.374-1.909-4.618c-0.2-0.248-0.8-0.356-0.59,0.141
					c0.569,1.364,1.577,2.602,1.631,4.135C350.874,167.084,351.717,167.677,351.727,166.996z"/>
			</g>
		</g>
	</g>
	<g>
		<g>
			<path style="fill:#F58546;" d="M393.122,303.058h-14.498c-4.266-9.138-10.458-22.459-12.012-26.131
				c-2.431-5.745-10.538-5.168-10.538-5.168h-57.4h-23.264h-57.399c0,0-8.106-0.577-10.539,5.168
				c-1.555,3.672-7.745,16.992-12.008,26.131h-14.019l8.159,17.101c0.374,1.977,1.686,3.615,4.897,3.892h67.534h50.018h67.532
				c2.621-0.227,3.976-1.363,4.592-2.845l0,0L393.122,303.058z"/>
			<path style="fill:#89481F;" d="M379.584,324.961H194.5c-4.056-0.349-5.375-2.62-5.766-4.514l-8.109-16.997
				c-0.138-0.285-0.114-0.614,0.052-0.879c0.167-0.264,0.457-0.425,0.768-0.425h13.438c4.597-9.855,10.27-22.077,11.75-25.575
				c2.256-5.328,8.809-5.739,10.765-5.739c0.427,0,0.678,0.018,0.678,0.018l137.989-0.002c0.008-0.002,0.248-0.016,0.626-0.016
				c1.952,0,8.507,0.411,10.761,5.739c1.56,3.692,7.921,17.374,11.75,25.575h13.919c0.314,0,0.606,0.163,0.773,0.429
				c0.163,0.267,0.184,0.602,0.044,0.886l-8.947,18.148c-0.553,1.334-1.949,3.054-5.328,3.349
				C379.638,324.961,379.609,324.961,379.584,324.961z M182.888,303.969l7.535,15.8c0.036,0.069,0.061,0.143,0.075,0.223
				c0.363,1.913,1.697,2.945,4.085,3.153l184.962-0.002c1.988-0.182,3.226-0.928,3.789-2.284l8.325-16.89h-13.034
				c-0.353,0-0.677-0.206-0.828-0.525c-4.639-9.945-10.494-22.555-12.02-26.161c-1.82-4.296-7.415-4.627-9.085-4.627
				c-0.337,0-0.539,0.013-0.555,0.013H218.012c-0.08,0-0.281-0.013-0.613-0.013c-1.674,0-7.268,0.331-9.087,4.627
				c-1.518,3.583-7.379,16.204-12.025,26.161c-0.149,0.319-0.471,0.525-0.824,0.525H182.888z"/>
		</g>
		<path style="fill:#9D9FA2;" d="M388.421,312.592l4.701-9.534h-14.498c-4.266-9.138-10.458-22.459-12.012-26.131
			c-2.431-5.745-10.538-5.168-10.538-5.168H218.012c0,0-8.106-0.577-10.539,5.168c-1.555,3.672-7.745,16.992-12.008,26.131h-14.019
			l4.55,9.534H388.421z"/>
		<g>
			<path style="fill:#F58546;" d="M394.891,293.258c0,0-15.307-33.066-18.004-39.53c-2.7-6.465-11.804-5.867-11.804-5.867
				l-64.464-0.333l-26.125-0.133l-64.461-0.334c0,0-9.101-0.692-11.867,5.743c-2.764,6.437-18.411,39.341-18.411,39.341
				s-6.441,12.583,3.571,13.505l75.843,0.393l56.169,0.289l75.84,0.394C401.198,305.904,394.891,293.258,394.891,293.258z"/>
			<path style="fill:#89481F;" d="M391.178,307.632h-0.003l-207.854-1.073c-2.781-0.253-4.672-1.314-5.689-3.167
				c-2.384-4.336,1.159-11.365,1.312-11.663c0.145-0.305,15.66-32.936,18.385-39.286c2.518-5.86,9.768-6.315,11.93-6.315
				c0.528,0,0.843,0.026,0.843,0.026l154.975,0.8c0.006-0.004,0.241-0.016,0.615-0.016c2.193,0,9.539,0.463,12.034,6.44
				c2.663,6.374,17.84,39.167,17.991,39.498c0.14,0.273,3.61,7.341,1.179,11.652c-1.037,1.839-2.934,2.882-5.643,3.105
				C391.229,307.632,391.205,307.632,391.178,307.632z M209.259,247.948c-1.88,0-8.178,0.379-10.256,5.216
				c-2.738,6.377-18.27,39.043-18.426,39.372c-0.047,0.087-3.269,6.493-1.349,9.981c0.719,1.304,2.087,2.031,4.183,2.226
				l207.733,1.07c2.078-0.178,3.44-0.89,4.167-2.181c1.628-2.885-0.337-8.174-1.231-9.969c-0.169-0.354-15.359-33.178-18.032-39.583
				c-2.424-5.809-10.803-5.316-10.906-5.307l-155.113-0.8C209.946,247.967,209.688,247.948,209.259,247.948z"/>
		</g>
		<path style="opacity:0.3;fill:#97999C;" d="M387.631,297.588c-2.828-6.204-5.886-12.289-8.734-18.481
			c-2.275-4.948-4.294-9.899-4.033-15.456c0.154-3.262,0.879-6.417,2.301-9.26c-0.105-0.245-0.197-0.467-0.279-0.663
			c-1.319-3.16-4.172-4.632-6.738-5.31c-1.056,3.454-1.802,7.021-2.978,10.427c-1.417,4.094-3.44,8.848-7.506,10.968
			c-2.642,1.38-5.613,1.46-8.536,1.665c-4.353,0.305-8.713,0.435-13.079,0.429c-9.107-0.01-18.204-0.475-27.307-0.583
			c-15.013-0.175-30.039,0.312-45.053,0.401c-7.493,0.046-14.981-0.018-22.474-0.004c-7.37,0.014-14.766,0.134-22.122-0.455
			c-3.35-0.266-9.941,0.113-11.888-3.53c-1.439-2.686-1.698-6.406-2-9.426c-0.327-3.316-0.463-8.378,1.501-11.262
			c-2.614,0.083-8.383,0.835-10.517,5.695c1.293-0.736,2.509-0.825,3.327,0.509c1.67,2.718,2.017,6.878,2.243,10.011
			c0.277,3.858-0.451,6.874-2.256,10.265c-4.361,8.187-8.76,16.254-12.452,24.783c-1.054,2.436-2.079,4.892-3.097,7.35l73.213,0.38
			l56.169,0.289l75.84,0.394c0.248-0.022,0.474-0.054,0.703-0.091C390.515,303.597,389.012,300.613,387.631,297.588z"/>
		<g>
			<path style="fill:#FFFFFF;" d="M378.577,305.004c-3.097-6.769-5.961-13.098-6.966-15.506c-2.537-6.084-11.108-5.521-11.108-5.521
				l-60.671-0.314l-24.588-0.126l-60.669-0.315c0,0-8.566-0.651-11.169,5.405c-1.076,2.509-4.234,9.293-7.563,16.377H378.577z"/>
		</g>
	</g>
	<g>
		<g>
			<g>
				<g>
					<path style="fill:#FFFFFF;" d="M80.031,209.509c-35.716,0-64.671-3.884-64.671-8.677v114.545
						c0,4.791,28.955,8.675,64.671,8.675c35.718,0,64.675-3.884,64.675-8.675V200.831
						C144.707,205.625,115.749,209.509,80.031,209.509z"/>
					<path style="fill:#B8BABC;" d="M80.031,324.961c-26.362,0-65.578-2.552-65.578-9.585V200.831c0-0.504,0.403-0.912,0.907-0.912
						c0.506,0,0.912,0.409,0.912,0.912c0,2.287,18.346,7.766,63.759,7.766c45.416,0,63.763-5.479,63.763-7.766
						c0-0.504,0.409-0.912,0.912-0.912c0.503,0,0.909,0.409,0.909,0.912v114.545C145.616,322.409,106.394,324.961,80.031,324.961z
						 M16.272,203.318v112.058c0,2.285,18.346,7.766,63.759,7.766c45.416,0,63.763-5.481,63.763-7.766V203.316
						c-8.012,5.163-40.777,7.101-63.763,7.101C57.05,210.417,24.287,208.479,16.272,203.318z"/>
				</g>
				<path style="opacity:0.5;fill:#D8D9DA;" d="M29.174,313.427c-0.03-12.036-0.128-24.068-0.193-36.104
					c-0.129-23.734,0.02-47.467-0.202-71.201c-2.688-0.466-5.028-0.972-6.968-1.507c-0.706,0.741-1.417,1.479-2.136,2.209
					c-0.47,0.471-1.197-0.257-0.729-0.73c0.59-0.592,1.173-1.201,1.753-1.81c-3.429-1.057-5.339-2.225-5.339-3.452v114.545
					c0,2.027,5.199,3.888,13.88,5.369C29.202,318.303,29.181,315.865,29.174,313.427z"/>
				<path style="opacity:0.5;fill:#D8D9DA;" d="M111.817,208.387v114.545c19.63-1.493,32.889-4.314,32.889-7.556V200.831
					C144.707,204.073,131.448,206.897,111.817,208.387z"/>
				<g>
					<path style="fill:#D8D9DA;" d="M80.031,209.509c-35.716,0-64.671-3.884-64.671-8.677v10.625c0,4.793,28.955,8.678,64.671,8.678
						c35.718,0,64.675-3.885,64.675-8.678v-10.625C144.707,205.625,115.749,209.509,80.031,209.509z"/>
				</g>
				<g>
					<path style="fill:#FFFFFF;" d="M11.109,205.608c0,5.111,30.857,9.247,68.922,9.247c38.07,0,68.927-4.136,68.927-9.247v-19.7
						H11.109V205.608z"/>
					<path style="fill:#B8BABC;" d="M80.031,215.766c-28.07,0-69.833-2.705-69.833-10.158v-19.7c0-0.503,0.404-0.911,0.91-0.911
						h137.849c0.504,0,0.913,0.409,0.913,0.911v19.7C149.871,213.061,108.104,215.766,80.031,215.766z M12.018,186.818v18.79
						c0,2.992,22.728,8.339,68.013,8.339c45.291,0,68.018-5.347,68.018-8.339v-18.79H12.018z"/>
				</g>
				<path style="fill:#D8D9DA;" d="M12.089,185.908c1.91,1.449,4.1,2.616,6.072,3.518c7.702,3.518,16.128,5.479,24.433,6.97
					c10.728,1.929,21.578,2.745,32.472,3.01c8.184,0.203,16.388,0.362,24.572,0.357c6.545-0.003,13.503-0.051,19.736,2.243
					c5.021,1.854,9.625,5.016,12.279,9.726c10.761-1.63,17.305-3.774,17.305-6.125v-19.7H12.089z"/>
			</g>
			<g>
				<g>
					<path style="fill:#FFFFFF;" d="M132.18,191.952c10.449-1.622,16.778-3.732,16.778-6.044c0-5.106-30.857-9.248-68.927-9.248
						c-38.066,0-68.922,4.142-68.922,9.248c0,2.346,6.528,4.49,17.269,6.121c12.64-1.962,31.305-3.205,52.142-3.205
						C101.097,188.823,119.549,190.033,132.18,191.952z"/>
					<path style="fill:#B8BABC;" d="M28.378,192.938c-0.044,0-0.094-0.002-0.138-0.01c-16.17-2.458-18.042-5.185-18.042-7.02
						c0-7.454,41.763-10.158,69.833-10.158c28.073,0,69.84,2.704,69.84,10.158c0,1.81-1.822,4.504-17.552,6.944
						c-0.092,0.012-0.186,0.012-0.278,0c-13.049-1.982-31.83-3.119-51.522-3.119c-19.973,0-38.925,1.165-52.004,3.192
						C28.472,192.935,28.426,192.938,28.378,192.938z M80.031,177.572c-45.285,0-68.013,5.343-68.013,8.336
						c0,0.11,0.186,2.727,16.358,5.199c13.16-2.032,32.153-3.193,52.144-3.193c19.708,0,38.524,1.133,51.658,3.116
						c15.688-2.45,15.871-5.014,15.871-5.122C148.049,182.915,125.322,177.572,80.031,177.572z"/>
				</g>
				<g>
					<path style="fill:#FFFFFF;" d="M132.18,191.952c-12.63-1.919-31.083-3.128-51.66-3.128c-20.837,0-39.502,1.243-52.142,3.205
						c12.629,1.916,31.082,3.128,51.653,3.128C100.875,195.157,119.542,193.913,132.18,191.952z"/>
					<path style="fill:#B8BABC;" d="M80.031,196.066c-19.773,0-38.649-1.143-51.791-3.138c-0.445-0.068-0.769-0.449-0.774-0.898
						c0-0.449,0.327-0.833,0.773-0.902c13.165-2.046,32.218-3.214,52.281-3.214c19.781,0,38.659,1.141,51.797,3.136
						c0.443,0.068,0.772,0.451,0.774,0.899c0,0.449-0.329,0.832-0.771,0.903C119.154,194.893,100.095,196.066,80.031,196.066z
						 M35.248,192.018c12.394,1.429,28.266,2.227,44.784,2.227c16.77,0,32.82-0.821,45.279-2.285
						c-12.393-1.427-28.27-2.227-44.79-2.227C63.754,189.733,47.703,190.554,35.248,192.018z"/>
				</g>
			</g>
		</g>
		<g>
			<path style="fill:#FFFFFF;" d="M21.205,198.82c0,4.096-2.259,7.417-5.049,7.417c-2.789,0-5.047-3.321-5.047-7.417
				s2.258-7.417,5.047-7.417C18.947,191.403,21.205,194.724,21.205,198.82z"/>
			<path style="fill:#B8BABC;" d="M16.156,207.146c-3.34,0-5.957-3.658-5.957-8.326c0-4.672,2.617-8.326,5.957-8.326
				c3.343,0,5.96,3.655,5.96,8.326C22.117,203.488,19.499,207.146,16.156,207.146z M16.156,192.316
				c-2.243,0-4.138,2.978-4.138,6.505c0,3.525,1.895,6.507,4.138,6.507c2.245,0,4.139-2.981,4.139-6.507
				C20.295,195.294,18.401,192.316,16.156,192.316z"/>
		</g>
		<g>
			<path style="fill:#BABCBE;" d="M149.024,205.177c-0.186,0.765-0.544,1.46-1.264,1.974c-0.106,0.076-0.225,0.145-0.341,0.22
				c-0.475,0.48-1.066,0.815-1.813,0.924c3.721,13.159,8.699,38.274-1.387,54.578c-5.63,9.09-15.346,14.319-28.893,15.542
				c-56.929,5.156-97.696-79.618-98.103-80.476c-0.486-1.028-1.718-1.464-2.741-0.979c-1.03,0.487-1.468,1.714-0.982,2.742
				c0.104,0.219,10.596,22.227,28.218,43.266c21.89,26.131,45.53,39.787,68.697,39.787c1.767,0,3.528-0.08,5.284-0.235
				c14.906-1.35,25.682-7.231,32.024-17.488C159.306,246.301,152.985,218.233,149.024,205.177z"/>
			<path style="fill:#7B7E80;" d="M110.414,283.664c-23.415,0-47.409-13.871-69.394-40.112
				c-17.542-20.942-27.913-42.55-28.343-43.461c-0.339-0.72-0.38-1.526-0.113-2.271c0.268-0.748,0.811-1.344,1.529-1.684
				c0.397-0.19,0.826-0.288,1.264-0.288c1.146,0,2.201,0.671,2.689,1.703c0.378,0.798,38.672,80.179,92.278,80.179
				c0.004,0,0.004,0,0.004,0c1.637,0,3.291-0.076,4.917-0.222c13.241-1.197,22.726-6.283,28.193-15.115
				c9.866-15.938,5.045-40.582,1.289-53.852c-0.072-0.251-0.03-0.522,0.114-0.742c0.144-0.22,0.372-0.367,0.631-0.405
				c0.507-0.074,0.932-0.289,1.298-0.663c0.046-0.05,0.102-0.093,0.16-0.129c0-0.002,0.08-0.05,0.08-0.05
				c0.075-0.046,0.147-0.092,0.22-0.142c0.466-0.333,0.745-0.782,0.909-1.45c0.098-0.399,0.45-0.683,0.862-0.695
				c0.007,0,0.016,0,0.021,0c0.401,0,0.757,0.261,0.873,0.649c10.331,34.054,3.558,52.583-1.401,60.596
				c-6.499,10.512-17.507,16.539-32.716,17.915C114.015,283.586,112.209,283.664,110.414,283.664z M15.358,197.671
				c-0.169,0-0.333,0.035-0.484,0.111c-0.282,0.13-0.493,0.362-0.594,0.651c-0.106,0.289-0.089,0.598,0.042,0.876
				c0.427,0.902,10.699,22.308,28.095,43.071c21.627,25.816,45.14,39.465,67.998,39.465c1.738,0,3.488-0.078,5.203-0.236
				c14.606-1.319,25.146-7.057,31.333-17.055c10.948-17.703,5.406-44.433,1.812-57.054c-0.146,0.14-0.305,0.27-0.472,0.392
				c-0.098,0.067-0.198,0.133-0.303,0.2c-0.378,0.361-0.798,0.642-1.259,0.835c3.789,13.745,8.275,38.243-1.737,54.425
				c-5.786,9.346-15.738,14.718-29.582,15.971c-1.683,0.151-3.392,0.227-5.078,0.227c-54.75,0.004-93.548-80.408-93.932-81.22
				C16.211,197.928,15.804,197.671,15.358,197.671z"/>
		</g>
	</g>
</g>
</svg>
