<?xml version="1.0" encoding="utf-8"?>
<!-- Generator: Adobe Illustrator 27.5.0, SVG Export Plug-In . SVG Version: 6.00 Build 0)  -->
<svg version="1.1" id="BASE" xmlns="http://www.w3.org/2000/svg" xmlns:xlink="http://www.w3.org/1999/xlink" x="0px" y="0px"
	 viewBox="0 0 1898 2372" style="enable-background:new 0 0 1898 2372;" xml:space="preserve">
<g>
	<path style="fill:#8C817A;" d="M1570.522,1112.343h-193.916c-19.235,0-37.096,14.248-51.879,38.616
		c-0.892-0.022-1.784-0.046-2.676-0.076c-34.677-1.067-68.417-8.823-96.728-30.348c-30.153-22.978-44.599-60.855-54.036-97.568
		c-16.297-63.42-21.558-127.815-23.089-192.616c27.543-10.68,43.581-23.482,43.581-37.243V651.006
		c0-26.833-60.965-50.015-149.316-60.935V449.469c18.899-18.833,33.58-41.958,41.302-67.565l162.38-0.221
		c9.556,1.246,19.423,1.296,29.43-0.04c61.448-8.199,104.615-64.659,96.415-126.107c-8.199-61.448-64.658-104.615-126.107-96.415
		c-10.006,1.335-19.515,3.969-28.409,7.677l-195.943,52.952c-28.812-19.677-63.165-30.678-95.695-30.208
		c-0.89,0.013-1.781,0.036-2.672,0.067c-0.178,0.006-0.357,0.011-0.535,0.017c-0.253,0.009-0.506,0.021-0.76,0.031
		c-0.329,0.014-0.658,0.028-0.987,0.045c-0.152,0.007-0.306,0.016-0.459,0.024c-0.466,0.025-0.932,0.051-1.398,0.08
		c-0.033,0.002-0.065,0.005-0.099,0.007c-13.732,0.864-27.68,3.725-41.268,8.38c-0.243,0.083-0.485,0.168-0.728,0.253
		c-0.235,0.082-0.471,0.162-0.707,0.245c0,0,0,0,0.002,0c-39.408,13.851-75.699,42.659-95.064,81.283l-28.231,1.742l-170.058,10.439
		c-9.598-0.647-19.456-0.098-29.345,1.81c-60.855,11.893-100.542,70.841-88.681,131.696
		c11.893,60.823,70.842,100.542,131.665,88.648c9.922-1.938,19.261-5.138,27.922-9.372l158.618-53.292l24.868-8.35
		c1.919,2.108,3.891,4.167,5.91,6.178v140.598c-88.349,10.92-149.315,34.102-149.315,60.935v142.101
		c0,13.784,16.091,26.604,43.713,37.294c6.892,71.975,1.455,151.878-59.879,198.899c-36.455,27.923-84.123,35.292-126.817,52.291
		c-94.854,37.844-164.207,125.071-198.304,221.379c-21.891,61.813-30.685,127.127-31.671,192.884
		c-35.8,12.602-56.973,28.193-56.973,45.074v159.456c0,20.219,30.372,38.588,79.879,52.187c14.436,3.965,30.499,7.524,47.91,10.605
		c-0.457,0.637-0.912,1.271-1.365,1.901c-84.251,117.228-115.717,185.384-100.309,270.393
		c13.563,74.83,70.807,119.92,82.469,129.106c81.877,64.492,178.353,48.363,204.01,44.073
		c26.891-4.496,93.872-15.694,142.717-71.892c6.594-7.584,35.225-41.725,47.627-103.047
		c19.365-95.747-14.363-190.881-59.475-268.633c9.69-1.549,19.008-3.241,27.906-5.068c67.709-13.891,111.183-35.436,111.183-59.626
		v-159.456c0-18.206-24.628-34.912-65.675-47.987c0.551-3.547,1.455-7.073,2.794-10.573c6.69-17.516,16.127-27.566,27.794-30.961
		l0.129-0.032c12.506-3.652,27.535,0.388,44.372,11.118c17.905,11.44,31.899,27.987,48.413,41.302
		c56.008,45.117,136.48,48.542,205.479,28.375c58.625-17.128,137.158-50.093,198.336-33.578
		c17.368,4.71,29.401,16.213,45.922,21.509c14.787,24.397,32.657,38.663,51.906,38.663h193.916
		c50.95,0,92.254-99.936,92.254-223.211C1662.776,1212.278,1621.472,1112.343,1570.522,1112.343z"/>
	<g>
		<path style="fill:#008AC0;" d="M678.046,1765.077c-2.215-3.818-4.457-7.593-6.721-11.324
			c-11.542-19.017-23.669-36.894-35.727-53.369c-16.047-21.926-31.973-41.367-46.237-57.704c-8.754-0.499-17.677-0.896-26.749-1.188
			c-6.32-0.203-12.711-0.354-19.166-0.452c-5.813-0.088-11.677-0.133-17.585-0.133c-2.819,0-5.625,0.009-8.423,0.03
			c-0.071,0-0.141,0.001-0.213,0.001c-8.455,0.064-16.811,0.218-25.048,0.46c-8.642,0.254-17.153,0.605-25.514,1.046
			c-10.746,0.569-21.243,1.287-31.449,2.147c-1.383,3.139-2.821,6.264-4.304,9.374c-7.59,15.927-16.398,31.467-25.697,46.419
			c-11.353,18.255-23.438,35.629-34.928,51.745c-0.001,0.002-0.001,0.003-0.003,0.005c-2.673,3.751-5.315,7.432-7.909,11.042
			c-0.457,0.637-0.912,1.271-1.365,1.901c-84.251,117.228-115.717,185.384-100.309,270.393
			c13.563,74.83,70.807,119.92,82.469,129.106c81.877,64.492,178.353,48.363,204.01,44.073
			c26.891-4.496,93.872-15.694,142.717-71.892c6.594-7.584,35.225-41.725,47.627-103.047
			C756.886,1937.963,723.158,1842.829,678.046,1765.077z"/>
		<path style="fill:#756C65;" d="M1570.522,1112.343h-193.916c-19.235,0-37.096,14.248-51.879,38.616
			c-0.892-0.022-1.784-0.046-2.676-0.076c-34.677-1.067-68.417-8.823-96.728-30.348c-30.153-22.978-44.599-60.855-54.036-97.568
			c-16.297-63.42-21.558-127.815-23.089-192.616c27.543-10.68,43.581-23.482,43.581-37.243V651.006
			c0-26.833-60.965-50.015-149.316-60.935V430.248c-0.224-0.127-0.454-0.258-0.684-0.387c-0.157-0.088-0.314-0.177-0.474-0.266
			c-0.016-0.009-0.032-0.018-0.047-0.026c-0.016-0.009-0.032-0.018-0.048-0.027c-0.768-0.429-1.573-0.873-2.415-1.329
			c-2.525-1.369-5.378-2.851-8.538-4.396c-0.527-0.257-1.062-0.517-1.606-0.777c-0.544-0.26-1.096-0.523-1.657-0.785
			c-3.363-1.58-7.029-3.204-10.978-4.822v169.815c-27.485-2.489-57.061-3.845-87.871-3.845c-15.142,0-29.985,0.328-44.43,0.957
			V404.421c-1.263,0.249-2.514,0.508-3.752,0.771c-29.04,6.207-51.021,16.702-63.75,23.721c-0.196,0.108-0.391,0.215-0.583,0.322
			c-0.065,0.036-0.128,0.073-0.194,0.107c-0.196,0.111-0.39,0.219-0.583,0.327l-0.289,0.162c-0.249,0.139-0.496,0.278-0.737,0.416
			v159.823c-88.349,10.92-149.315,34.102-149.315,60.935v142.101c0,13.784,16.091,26.604,43.713,37.294
			c-0.463-4.835-0.983-9.636-1.543-14.387c-0.8-6.772-1.686-13.445-2.62-19.987c3.058-0.975,6.182-1.948,9.366-2.92
			c21.203-6.471,45.15-12.812,71.591-18.152c31.251-6.366,65.994-11.375,103.741-13.702c1.325-0.065,2.65-0.162,4.007-0.227
			c53.519-3.037,102.384-0.128,145.239,5.721l0.937,0.13c4.089,8.709,8.082,17.444,11.951,26.23
			c6.662,15.124,12.952,30.408,18.711,46.009c0.677,1.836,1.35,3.673,2.011,5.518c0.588,1.635,1.17,3.27,1.75,4.904
			c30.291,85.476,48.187,169.71,43.366,260.881c-3.425,65.089-10.632,130.695-32.673,192.003
			c-18.195,50.578-53.68,120.288-104.162,146.045c-52,26.533-114.342,14.187-167.796,0.452c-10.019-2.553-21.718-3.425-29.927,2.457
			c12.506-3.652,27.535,0.388,44.372,11.118c17.905,11.44,31.899,27.987,48.413,41.302c56.008,45.117,136.48,48.542,205.479,28.375
			c58.625-17.128,137.158-50.093,198.336-33.578c17.368,4.71,29.401,16.213,45.922,21.509v0
			c14.788,24.396,32.657,38.662,51.906,38.662h193.916c50.95,0,92.254-99.936,92.254-223.211
			C1662.776,1212.278,1621.472,1112.343,1570.522,1112.343z"/>
		<path style="fill:#756C65;" d="M751.461,1492.941c-28.653-9.127-65.308-16.482-107.177-21.339
			c-36.182-4.2-76.255-6.535-118.425-6.535c-83.692,0-159.136,9.193-212.266,23.914c-7.848,2.175-15.209,4.469-22.036,6.873
			c-35.8,12.602-56.973,28.193-56.973,45.074v159.456c0,20.219,30.372,38.588,79.879,52.187c14.436,3.965,30.499,7.524,47.91,10.605
			c2.594-3.609,5.237-7.291,7.909-11.042c0.002-0.002,0.002-0.003,0.003-0.005c11.49-16.117,23.575-33.49,34.928-51.745
			c9.299-14.952,18.106-30.492,25.697-46.419c1.482-3.11,2.919-6.235,4.303-9.373c0.287-0.024,0.575-0.048,0.862-0.072
			c0.793-0.066,1.586-0.131,2.381-0.196c0.465-0.037,0.93-0.074,1.396-0.112c0.769-0.061,1.539-0.122,2.311-0.181
			c0.457-0.035,0.916-0.071,1.376-0.105c0.905-0.069,1.812-0.136,2.722-0.202c0.271-0.02,0.54-0.04,0.811-0.06
			c1.166-0.084,2.335-0.166,3.507-0.247c0.068-0.005,0.134-0.01,0.203-0.013c3.902-0.267,7.84-0.513,11.812-0.738
			c0.078-0.005,0.155-0.008,0.231-0.013c1.196-0.068,2.394-0.134,3.595-0.197c0.329-0.018,0.659-0.036,0.988-0.052
			c0.771-0.041,1.542-0.08,2.315-0.119c0.268-0.013,0.537-0.026,0.805-0.039c2.516-0.124,5.043-0.24,7.585-0.346
			c0.483-0.021,0.963-0.042,1.447-0.061c0.543-0.023,1.089-0.043,1.633-0.065c0.631-0.024,1.262-0.049,1.895-0.073
			c0.541-0.021,1.083-0.04,1.624-0.059c0.567-0.021,1.135-0.041,1.703-0.061c0.59-0.02,1.18-0.04,1.77-0.06
			c0.609-0.02,1.219-0.04,1.828-0.059c0.524-0.016,1.047-0.033,1.57-0.048c0.394-0.012,0.788-0.023,1.181-0.034
			c3.759-0.109,7.542-0.198,11.348-0.271c0.282-0.005,0.565-0.01,0.847-0.016c1.864-0.034,3.734-0.064,5.608-0.088
			c0.291-0.005,0.582-0.007,0.874-0.011c1.923-0.023,3.848-0.044,5.781-0.059c0.071,0,0.142-0.001,0.213-0.001
			c2.798-0.021,5.604-0.03,8.423-0.03c1.444,0,2.884,0.003,4.322,0.008c0.107,0,0.214,0.001,0.321,0.001
			c1.335,0.006,2.667,0.013,3.998,0.023c0.12,0,0.239,0.001,0.359,0.003c1.28,0.01,2.556,0.022,3.832,0.036
			c0.524,0.005,1.049,0.012,1.572,0.02c0.842,0.01,1.684,0.021,2.525,0.033c0.428,0.006,0.856,0.013,1.285,0.02
			c1.266,0.02,2.531,0.042,3.792,0.065c0.167,0.003,0.334,0.006,0.501,0.01c1.456,0.029,2.909,0.059,4.36,0.093
			c0.317,0.008,0.633,0.016,0.951,0.023c1.156,0.028,2.311,0.058,3.462,0.089c0.375,0.01,0.751,0.02,1.127,0.031
			c1.417,0.04,2.832,0.081,4.242,0.127l0.219,0.007c1.087,0.036,2.172,0.071,3.255,0.11c0.014,0,0.027,0,0.042,0.001
			c1.057,0.037,2.111,0.076,3.165,0.117c0.125,0.004,0.252,0.01,0.378,0.013c0.993,0.039,1.984,0.079,2.972,0.119
			c0.136,0.006,0.271,0.011,0.406,0.017c0.963,0.04,1.925,0.081,2.884,0.123c0.168,0.008,0.337,0.015,0.505,0.023
			c0.986,0.043,1.968,0.089,2.95,0.135c0.098,0.004,0.197,0.008,0.296,0.014c0.993,0.047,1.984,0.096,2.973,0.146
			c0.14,0.007,0.279,0.014,0.419,0.021c0.924,0.047,1.845,0.095,2.765,0.144c0.219,0.012,0.438,0.023,0.656,0.035
			c0.859,0.046,1.716,0.095,2.571,0.143c0.133,0.007,0.265,0.015,0.397,0.022c14.264,16.338,30.189,35.778,46.236,57.703
			c12.058,16.475,24.185,34.353,35.727,53.369c2.264,3.731,4.506,7.507,6.721,11.324c9.69-1.549,19.008-3.241,27.906-5.068
			c67.709-13.891,111.183-35.436,111.183-59.626v-159.456C817.136,1522.722,792.508,1506.016,751.461,1492.941z"/>
		<path style="fill:#7C736C;" d="M1345.565,1523.307c11.169,0.687,21.563,0.257,31.042-4.017
			c5.401-2.434,10.505-6.117,15.285-11.552c10.729-12.217,16.127-28.182,20.36-43.888c22.558-84.124,30.185-185.215-4.718-266.948
			c-6.044-14.123-14.026-30.185-26.792-39.493c-1.374-1.004-2.752-1.879-4.135-2.641c-5.87-3.23-11.83-4.408-18.003-4.695
			c-0.518-0.033-1.067-0.065-1.616-0.033c-4.509,0.02-9.121,0.383-13.878,0.674c-3.221,0.197-6.508,0.361-9.876,0.361
			c-0.614,0-1.195,0-1.81-0.033h-0.517c-2.072,0-4.128-0.032-6.18-0.084c-0.892-0.022-1.784-0.047-2.675-0.077
			c-34.678-1.066-68.418-8.823-96.729-30.346c-30.152-22.978-44.598-60.856-54.035-97.568
			c-16.297-63.421-21.559-127.815-23.089-192.616c-0.106-4.48-0.193-8.961-0.266-13.445c-0.128-7.927-0.209-15.861-0.254-23.798
			c-0.005-1.063-0.012-2.125-0.016-3.187c-29.442-8.499-66.124-17.193-108.719-23.042c4.09,8.709,8.082,17.443,11.952,26.229
			c6.661,15.125,12.951,30.408,18.71,46.01c0.678,1.836,1.35,3.674,2.012,5.518c0.588,1.635,1.17,3.27,1.749,4.904
			c30.29,85.476,48.187,169.711,43.366,260.881c-3.426,65.089-10.632,130.695-32.673,192.002
			c-18.195,50.578-53.681,120.288-104.162,146.046c-52,26.533-114.342,14.187-167.796,0.452
			c-10.019-2.553-21.718-3.425-29.927,2.457c12.507-3.652,27.535,0.388,44.373,11.117c17.904,11.441,31.898,27.988,48.412,41.302
			c56.008,45.117,136.48,48.542,205.479,28.375c58.625-17.128,137.158-50.093,198.337-33.578c17.368,4.71,29.4,16.213,45.921,21.509
			c3.768,1.209,7.77,2.095,12.122,2.503C1339.785,1522.882,1342.701,1523.131,1345.565,1523.307z"/>
		<path style="fill:#7C736C;" d="M1042.465,430.247c-0.225-0.127-0.454-0.257-0.685-0.387c-0.156-0.088-0.313-0.177-0.473-0.266
			c-0.032-0.018-0.064-0.035-0.095-0.052c-6.146-3.434-14.664-7.798-25.195-12.11v169.816c9.054,0.82,17.88,1.765,26.449,2.823
			V430.247z"/>
		<path style="fill:#9B8F87;" d="M883.717,404.422c-1.265,0.249-2.515,0.507-3.753,0.771c-29.04,6.206-51.021,16.701-63.75,23.719
			c-0.196,0.109-0.391,0.216-0.583,0.323c-0.065,0.036-0.129,0.072-0.194,0.107c-0.197,0.109-0.391,0.219-0.584,0.327l-0.289,0.162
			c-0.25,0.14-0.497,0.279-0.737,0.415v159.824c21.797-2.693,45.262-4.64,69.889-5.711V404.422z"/>
		<path style="fill:#9B8F87;" d="M644.284,1471.602c2.185-10.278,3.834-20.661,5.141-30.855c5.9-46.033,7.608-92.603,5.098-138.944
			c-2.391-44.133-9.187-89.683-33.219-126.778c-53.735-82.943-130.879-45.806-187.498,7.352
			c-7.858,7.377-15.32,15.063-22.269,22.778c-62.095,68.943-80.802,144.236-95.253,232.656c-2.898,17.734-3.959,34.981-2.69,51.17
			c53.13-14.721,128.574-23.914,212.266-23.914C568.029,1465.067,608.102,1467.402,644.284,1471.602z"/>
		<path style="fill:#443E39;" d="M1356.988,1150.041c0.549-0.032,1.098,0,1.616,0.033c6.173,0.287,12.133,1.465,18.003,4.695
			c1.383,0.762,2.76,1.637,4.135,2.641c12.766,9.307,20.749,25.37,26.792,39.493c34.904,81.733,27.276,182.824,4.718,266.948
			c-4.234,15.706-9.631,31.672-20.36,43.888c-4.78,5.435-9.884,9.118-15.285,11.552c-9.479,4.273-19.873,4.703-31.042,4.017
			c8.82,9.956,18.492,15.455,28.636,15.455c0.804,0,1.606-0.039,2.405-0.107c40.162-3.453,72.331-93.061,72.331-203.102
			s-32.169-199.649-72.331-203.1c-0.799-0.069-1.601-0.108-2.405-0.108c-11.044,0-21.528,6.517-30.963,18.208
			C1347.948,1150.249,1352.518,1149.934,1356.988,1150.041z"/>
		<path style="fill:#443E39;" d="M1168.155,794.869c0-0.59-0.045-1.177-0.127-1.763c-4.078-29.432-109.913-53.004-239.882-53.004
			s-235.804,23.573-239.882,53.004c-0.082,0.586-0.127,1.173-0.127,1.763c0,7.495,6.602,14.639,18.546,21.145
			c-0.8-6.772-1.686-13.447-2.619-19.987c3.058-0.975,6.182-1.948,9.366-2.921c21.202-6.47,45.15-12.811,71.591-18.15
			c31.252-6.367,65.994-11.375,103.741-13.703c1.325-0.064,2.65-0.161,4.007-0.226c53.519-3.038,102.384-0.129,145.238,5.72
			l0.937,0.13c42.595,5.849,79.276,14.543,108.719,23.042c0.004,1.063,0.01,2.125,0.016,3.187
			c0.045,7.937,0.126,15.871,0.254,23.798C1160.936,810.163,1168.155,802.708,1168.155,794.869z"/>
		<path style="fill:#5B544E;" d="M543.446,1641.04c6.455,0.098,12.846,0.248,19.166,0.452c9.071,0.291,17.995,0.689,26.749,1.188
			c14.264,16.338,30.189,35.779,46.237,57.704c12.058,16.475,24.185,34.353,35.726,53.369c15.391-2.345,29.664-5.051,42.597-8.067
			c18.831-4.39,34.818-9.435,47.27-14.975c19.063-8.482,29.842-18.125,29.842-28.349c0-0.662-0.05-1.321-0.14-1.978
			c-1.203-8.816-10.413-17.164-26.009-24.666c-0.465-0.224-0.937-0.447-1.413-0.669c-0.358-0.167-0.718-0.333-1.083-0.499
			c-0.727-0.331-1.469-0.663-2.222-0.991c-0.376-0.164-0.756-0.327-1.138-0.491c-1.02-0.435-2.062-0.867-3.127-1.296
			c-0.503-0.203-1.012-0.404-1.525-0.606c-0.105-0.041-0.211-0.082-0.317-0.124c-0.512-0.2-1.029-0.4-1.551-0.598
			c-0.019-0.008-0.04-0.015-0.061-0.023c-0.514-0.195-1.032-0.39-1.556-0.583c-0.086-0.032-0.172-0.065-0.258-0.097
			c-0.543-0.201-1.091-0.401-1.644-0.6c-0.047-0.017-0.096-0.033-0.142-0.051c-0.515-0.186-1.034-0.369-1.557-0.553
			c-0.082-0.029-0.165-0.058-0.248-0.088c-0.558-0.195-1.12-0.389-1.686-0.582c-0.078-0.027-0.156-0.053-0.233-0.08
			c-0.572-0.195-1.147-0.387-1.727-0.58c-0.012-0.004-0.022-0.007-0.033-0.012c-0.601-0.199-1.208-0.397-1.819-0.594l-0.216-0.07
			c-1.219-0.393-2.459-0.783-3.718-1.169c-0.075-0.024-0.15-0.047-0.225-0.069c-0.628-0.192-1.259-0.383-1.898-0.575
			c-0.022-0.006-0.045-0.013-0.068-0.021c-0.656-0.195-1.319-0.39-1.984-0.584c-0.013-0.003-0.026-0.006-0.039-0.011
			c-0.684-0.199-1.373-0.397-2.067-0.594c-0.006-0.002-0.012-0.003-0.016-0.004c-2.777-0.788-5.636-1.559-8.575-2.314
			c-0.06-0.015-0.12-0.031-0.181-0.047c-1.435-0.368-2.891-0.731-4.363-1.09c-0.039-0.01-0.078-0.019-0.117-0.03
			c-48.311-11.778-116.564-19.12-192.217-19.12c-2.818,0-5.625,0.011-8.421,0.031c2.797-0.02,5.604-0.031,8.423-0.031
			C531.769,1640.906,537.633,1640.952,543.446,1641.04z"/>
		<path style="fill:#443E39;" d="M405.214,1700.383c9.299-14.951,18.106-30.492,25.697-46.419v-8.998
			c-56.764,5.047-104.141,14.486-134.38,26.522c-0.008,0.003-0.016,0.006-0.024,0.01c0,0,0,0,0,0
			c-1.623,0.647-3.197,1.301-4.72,1.962c-0.011,0.005-0.022,0.009-0.032,0.014c-0.029,0.013-0.059,0.025-0.088,0.037
			c-0.035,0.016-0.07,0.031-0.105,0.046c-0.199,0.086-0.397,0.174-0.594,0.261c-0.108,0.047-0.216,0.094-0.323,0.142
			c-0.065,0.029-0.129,0.057-0.194,0.086c-0.014,0.007-0.027,0.013-0.04,0.018c-0.496,0.221-0.984,0.443-1.469,0.665
			c-0.065,0.03-0.129,0.059-0.193,0.089c-0.475,0.22-0.947,0.439-1.411,0.66c-0.055,0.026-0.111,0.052-0.167,0.079
			c-0.287,0.137-0.57,0.274-0.852,0.412c-0.042,0.021-0.086,0.041-0.128,0.061c-0.042,0.021-0.084,0.041-0.124,0.061
			c-0.036,0.018-0.071,0.035-0.107,0.052c-0.27,0.132-0.539,0.264-0.805,0.398c-0.021,0.01-0.04,0.02-0.06,0.03l-0.084,0.042
			c-0.07,0.035-0.137,0.07-0.205,0.104c-0.046,0.023-0.09,0.047-0.135,0.069c-0.434,0.22-0.862,0.438-1.285,0.659
			c-0.027,0.014-0.055,0.028-0.083,0.043c-0.099,0.052-0.201,0.104-0.299,0.156c-0.221,0.117-0.439,0.234-0.658,0.351
			c-0.055,0.03-0.112,0.059-0.167,0.089c-0.075,0.04-0.15,0.081-0.224,0.121c-0.031,0.017-0.062,0.034-0.094,0.051
			c-0.13,0.071-0.259,0.142-0.389,0.213c-0.08,0.044-0.161,0.089-0.242,0.133c-0.029,0.016-0.059,0.031-0.088,0.047
			c-0.076,0.042-0.152,0.085-0.229,0.128c-0.05,0.028-0.098,0.055-0.148,0.083c-0.212,0.118-0.423,0.237-0.631,0.355
			c-0.14,0.08-0.279,0.161-0.417,0.24c-0.021,0.012-0.042,0.024-0.063,0.036c-0.102,0.059-0.201,0.118-0.302,0.177
			c-0.234,0.136-0.467,0.271-0.696,0.408c-0.068,0.04-0.136,0.08-0.203,0.12c-0.079,0.048-0.161,0.097-0.24,0.144
			c-0.023,0.014-0.045,0.027-0.068,0.041c-0.171,0.103-0.34,0.207-0.508,0.31c-0.034,0.021-0.068,0.04-0.101,0.061
			c-0.112,0.069-0.223,0.139-0.334,0.209c-0.044,0.027-0.086,0.054-0.13,0.081c-0.144,0.09-0.288,0.181-0.43,0.271
			c-0.024,0.015-0.047,0.029-0.071,0.045c-0.095,0.061-0.19,0.122-0.285,0.183c-0.091,0.058-0.182,0.118-0.272,0.176
			c-0.222,0.145-0.441,0.289-0.658,0.433c-0.078,0.052-0.156,0.104-0.233,0.156c-0.104,0.07-0.211,0.14-0.315,0.21
			c-0.013,0.01-0.025,0.018-0.038,0.027c-0.136,0.092-0.268,0.185-0.401,0.277c-0.031,0.021-0.061,0.042-0.092,0.063
			c-0.13,0.09-0.26,0.181-0.389,0.271c-0.025,0.017-0.049,0.033-0.072,0.051c-0.041,0.029-0.081,0.057-0.122,0.086
			c-0.083,0.059-0.166,0.118-0.248,0.177c-0.023,0.016-0.045,0.032-0.067,0.048c-0.123,0.089-0.243,0.177-0.364,0.266
			c-0.063,0.045-0.123,0.09-0.186,0.135c-0.089,0.066-0.18,0.132-0.268,0.198c-0.132,0.098-0.26,0.195-0.388,0.294
			c-0.135,0.102-0.27,0.204-0.403,0.306c-0.011,0.009-0.023,0.018-0.034,0.028c-0.093,0.071-0.183,0.144-0.274,0.216
			c-0.041,0.032-0.081,0.063-0.121,0.095c-0.131,0.104-0.261,0.208-0.39,0.312c-0.019,0.016-0.04,0.033-0.06,0.049
			c-0.066,0.053-0.131,0.107-0.196,0.161c-0.028,0.022-0.054,0.044-0.081,0.065c-0.023,0.019-0.047,0.038-0.07,0.057
			c-0.141,0.116-0.279,0.232-0.417,0.349c-0.029,0.025-0.057,0.049-0.087,0.074c-0.076,0.064-0.152,0.128-0.228,0.193
			c-0.012,0.011-0.026,0.022-0.038,0.033c-0.215,0.186-0.427,0.371-0.635,0.556c-0.025,0.023-0.05,0.045-0.076,0.069
			c-0.042,0.038-0.083,0.076-0.125,0.115c-0.047,0.043-0.095,0.087-0.141,0.13c-0.146,0.133-0.291,0.266-0.432,0.399
			c-0.014,0.013-0.028,0.026-0.041,0.04c-0.035,0.033-0.069,0.066-0.103,0.098c-0.03,0.03-0.06,0.058-0.091,0.087
			c-0.023,0.023-0.048,0.046-0.072,0.069c-0.133,0.129-0.266,0.258-0.396,0.387l-0.064,0.064c-0.035,0.035-0.07,0.069-0.105,0.104
			c-0.025,0.026-0.051,0.05-0.076,0.076l-0.047,0.047c-0.149,0.151-0.294,0.303-0.439,0.455c-0.031,0.032-0.061,0.064-0.091,0.095
			c-0.043,0.045-0.086,0.09-0.128,0.135c-0.014,0.016-0.031,0.032-0.045,0.049c-0.177,0.188-0.349,0.378-0.518,0.568
			c-0.008,0.008-0.015,0.017-0.023,0.026c-0.047,0.053-0.093,0.107-0.14,0.161c-0.021,0.025-0.043,0.049-0.064,0.074
			c-0.123,0.142-0.244,0.283-0.364,0.426c-0.013,0.017-0.029,0.033-0.043,0.051c-0.046,0.056-0.093,0.113-0.14,0.17
			c-0.014,0.017-0.03,0.036-0.045,0.054c-0.123,0.15-0.243,0.301-0.361,0.452c-0.03,0.036-0.058,0.072-0.086,0.108
			c-0.02,0.027-0.042,0.054-0.062,0.08c-0.009,0.013-0.021,0.026-0.03,0.038c-0.168,0.221-0.333,0.442-0.492,0.663
			c-0.007,0.01-0.014,0.021-0.022,0.032c-0.008,0.012-0.016,0.024-0.025,0.036c-0.032,0.045-0.063,0.09-0.095,0.136
			c-0.112,0.16-0.223,0.321-0.331,0.481c-0.012,0.019-0.024,0.037-0.037,0.055c-0.03,0.045-0.059,0.089-0.088,0.134
			c-0.016,0.025-0.034,0.051-0.051,0.078c-0.098,0.151-0.193,0.302-0.286,0.453c-0.019,0.03-0.036,0.059-0.055,0.089
			c-0.021,0.035-0.043,0.069-0.064,0.104c-0.01,0.016-0.021,0.032-0.03,0.048c-0.134,0.225-0.264,0.45-0.389,0.676
			c-0.021,0.036-0.04,0.074-0.06,0.112c-0.107,0.198-0.21,0.397-0.31,0.596c-0.007,0.013-0.013,0.026-0.019,0.039
			c-0.016,0.032-0.031,0.062-0.045,0.093c-0.014,0.028-0.027,0.056-0.04,0.083c-0.081,0.167-0.159,0.335-0.234,0.503
			c-0.009,0.02-0.018,0.041-0.028,0.061c-0.016,0.038-0.033,0.074-0.05,0.112c0,0,0,0.002-0.001,0.002
			c-0.008,0.018-0.016,0.036-0.024,0.054c-0.08,0.187-0.157,0.375-0.231,0.562c-0.019,0.049-0.04,0.097-0.058,0.146
			c-0.089,0.23-0.17,0.462-0.247,0.693c-0.005,0.015-0.01,0.031-0.014,0.047c-0.003,0.008-0.006,0.016-0.008,0.025
			c-0.016,0.047-0.03,0.092-0.045,0.139c-0.052,0.168-0.104,0.335-0.151,0.503c-0.007,0.023-0.012,0.046-0.018,0.069
			c-0.009,0.032-0.019,0.066-0.027,0.098c0,0.003-0.001,0.004-0.002,0.007c-0.007,0.025-0.014,0.052-0.021,0.077
			c-0.021,0.078-0.038,0.156-0.057,0.234c-0.018,0.071-0.035,0.141-0.051,0.211c-0.006,0.026-0.013,0.051-0.019,0.077
			c-0.014,0.063-0.031,0.124-0.044,0.187c-0.051,0.237-0.096,0.474-0.136,0.71c-0.008,0.051-0.015,0.102-0.023,0.153
			c-0.013,0.091-0.027,0.183-0.04,0.275c-0.013,0.095-0.026,0.191-0.037,0.286c-0.002,0.02-0.003,0.041-0.007,0.061
			c-0.001,0.012-0.003,0.025-0.003,0.036c-0.002,0.016-0.004,0.033-0.005,0.049c-0.003,0.031-0.007,0.064-0.011,0.095
			c-0.017,0.17-0.031,0.34-0.042,0.511c-0.001,0.033-0.004,0.069-0.006,0.103c-0.001,0.017-0.002,0.035-0.003,0.052
			c-0.002,0.021-0.004,0.043-0.004,0.064c-0.012,0.24-0.02,0.48-0.02,0.72c0,0.115,0.005,0.229,0.007,0.344
			c0.003,0.125,0.006,0.25,0.012,0.375c0.003,0.073,0.009,0.146,0.013,0.219c0.012,0.171,0.025,0.341,0.042,0.511
			c0.008,0.08,0.016,0.162,0.026,0.242c0.021,0.187,0.047,0.374,0.077,0.562c0.008,0.05,0.015,0.102,0.023,0.152
			c0.04,0.237,0.085,0.474,0.136,0.71c0.013,0.063,0.029,0.125,0.044,0.187c0.04,0.175,0.082,0.349,0.128,0.522
			c0.022,0.084,0.045,0.167,0.069,0.25c0.047,0.168,0.099,0.336,0.151,0.504c0.023,0.07,0.044,0.14,0.067,0.21
			c0.078,0.232,0.158,0.463,0.247,0.693c0.018,0.048,0.039,0.096,0.058,0.146c0.074,0.188,0.151,0.376,0.231,0.563
			c0.033,0.076,0.067,0.153,0.102,0.229c0.075,0.168,0.153,0.336,0.234,0.503c0.034,0.071,0.069,0.143,0.104,0.215
			c0.099,0.198,0.203,0.398,0.31,0.595c0.02,0.037,0.039,0.075,0.06,0.112c0.124,0.226,0.255,0.451,0.389,0.676
			c0.048,0.08,0.099,0.161,0.148,0.241c0.094,0.152,0.189,0.303,0.286,0.454c0.059,0.089,0.117,0.178,0.176,0.267
			c0.105,0.156,0.212,0.313,0.323,0.47c0.052,0.074,0.101,0.147,0.154,0.22c0.156,0.217,0.317,0.434,0.483,0.651
			c0.063,0.082,0.129,0.163,0.194,0.245c0.115,0.147,0.231,0.293,0.351,0.44c0.075,0.091,0.151,0.183,0.228,0.274
			c0.119,0.142,0.24,0.284,0.364,0.425c0.076,0.087,0.151,0.175,0.228,0.26c0.169,0.19,0.341,0.38,0.518,0.568
			c0.086,0.094,0.175,0.186,0.264,0.279c0.143,0.152,0.289,0.302,0.438,0.453c0.1,0.101,0.203,0.203,0.305,0.304
			c0.121,0.12,0.244,0.24,0.368,0.359c0.111,0.107,0.223,0.213,0.336,0.321c0.131,0.123,0.266,0.245,0.4,0.368
			c0.12,0.111,0.24,0.222,0.363,0.333c0.207,0.185,0.419,0.371,0.634,0.556c0.123,0.105,0.25,0.211,0.375,0.317
			c0.127,0.107,0.253,0.213,0.382,0.319c0.141,0.116,0.282,0.231,0.426,0.347c0.127,0.103,0.257,0.207,0.387,0.309
			c0.143,0.113,0.285,0.226,0.43,0.339c0.133,0.102,0.268,0.204,0.403,0.306c0.275,0.21,0.556,0.419,0.842,0.629
			c0.121,0.088,0.241,0.176,0.364,0.266c0.167,0.121,0.337,0.242,0.509,0.362c0.128,0.09,0.258,0.181,0.389,0.272
			c0.176,0.122,0.352,0.244,0.531,0.366c0.104,0.07,0.21,0.141,0.315,0.21c0.413,0.278,0.833,0.555,1.263,0.831
			c0.054,0.035,0.107,0.07,0.162,0.104c0.231,0.148,0.466,0.295,0.701,0.44c0.085,0.054,0.171,0.107,0.257,0.16
			c0.234,0.145,0.47,0.289,0.71,0.433c0.074,0.045,0.149,0.088,0.223,0.133c0.823,0.494,1.673,0.984,2.548,1.472
			c0.039,0.021,0.078,0.043,0.116,0.064c0.295,0.163,0.591,0.326,0.89,0.487l0.114,0.061c0.635,0.343,1.282,0.683,1.942,1.022
			c0.66,0.339,1.333,0.677,2.019,1.012c0.041,0.02,0.08,0.038,0.122,0.059c0.299,0.146,0.601,0.292,0.906,0.438
			c19.18,9.17,47.906,17.068,83.189,23.001C381.776,1736.013,393.861,1718.639,405.214,1700.383z"/>
		<path style="fill:#9B8F87;" d="M828.592,1029.251c37.317-45.365,56.074-103.621,63.485-161.893c0.303-2.39,0.582-4.811,0.81-7.248
			c0.343-3.666,0.57-7.367,0.587-11.042c0.051-10.74-1.676-21.268-7.472-30.136c-11.137-17.039-33.711-22.387-54.066-22.498
			c-45.594-0.249-70.279,10.009-83.4,34.764c-1.689,3.188-3.188,6.616-4.513,10.293c-4.109,11.394-6.569,25.178-7.972,41.607
			c-5.381,63.023-32.823,123.889-78.971,167.579c-7.706,7.295-16.554,15.623-16.156,26.227
			c0.567,15.122,18.863,22.415,33.944,23.654C733.413,1105.364,791.275,1074.616,828.592,1029.251z"/>
		<path style="fill:#DC0C18;" d="M1371.99,255.537c-8.199-61.448-64.658-104.615-126.107-96.415
			c-10.006,1.335-19.515,3.969-28.409,7.677l-195.943,52.952c-28.812-19.677-63.165-30.678-95.695-30.208
			c-0.89,0.013-1.781,0.036-2.672,0.067c-0.178,0.006-0.357,0.011-0.535,0.017c-0.253,0.009-0.506,0.021-0.76,0.031
			c-0.329,0.014-0.658,0.028-0.987,0.045c-0.152,0.007-0.306,0.016-0.459,0.024c-0.466,0.025-0.932,0.051-1.398,0.08
			c-0.033,0.002-0.065,0.005-0.099,0.007c-13.732,0.864-27.68,3.725-41.268,8.38c-0.243,0.083-0.485,0.168-0.728,0.253
			c-0.235,0.082-0.471,0.162-0.707,0.245c0,0,0,0,0.002,0c-39.408,13.851-75.699,42.659-95.064,81.283l-28.231,1.742
			l-170.058,10.439c-9.598-0.647-19.456-0.098-29.345,1.81c-60.855,11.893-100.542,70.841-88.681,131.696
			c11.893,60.823,70.842,100.542,131.665,88.648c9.922-1.938,19.261-5.138,27.922-9.372l158.618-53.292l24.868-8.35
			c1.919,2.108,3.891,4.167,5.91,6.178v-19.225c0.241-0.138,0.487-0.277,0.737-0.416l0.289-0.162
			c0.193-0.108,0.387-0.217,0.583-0.327c0.066-0.035,0.129-0.071,0.194-0.107c0.192-0.106,0.386-0.214,0.583-0.322
			c12.734-7.028,34.708-17.558,63.784-23.765c14.532-3.102,30.834-5.125,48.648-5.087c15.466,0.033,29.784,1.615,42.781,4.099
			c32.357,6.183,56.515,17.959,69.785,25.382c0.031,0.018,0.064,0.035,0.095,0.053c0.16,0.089,0.317,0.178,0.474,0.266
			c0.23,0.129,0.46,0.26,0.684,0.387v19.221c18.899-18.833,33.58-41.958,41.302-67.565l162.38-0.221
			c9.556,1.246,19.423,1.296,29.43-0.04C1337.023,373.445,1380.19,316.985,1371.99,255.537z"/>
		<path style="fill:#B21110;" d="M766.691,334.335c1.031-19.64,6.213-37.892,14.469-54.36l-28.232,1.742
			c-6.463,15.836-10.439,32.932-11.407,51.03c-2.36,44.599,14.284,86.063,41.529,118.898l24.868-8.35
			C781.253,414.016,764.52,375.72,766.691,334.335z"/>
		<path style="fill:#E52033;" d="M553.842,308.13c-52.101,1.952-80.86,62.557-78.935,108.5c0.608,14.53,4.326,29.854,14.897,39.841
			c10.573,9.987,29.44,11.97,39.07,1.072c3.076-3.481,4.943-7.844,6.657-12.163c6.649-16.741,11.931-34.325,22.27-49.075
			c13.373-19.078,40.402-38.271,33.626-65.056C587.032,313.874,570.431,307.508,553.842,308.13z"/>
		<path style="fill:#C21013;" d="M1083.752,381.904l-55.447,0.075l-0.792,0.001c-16.132,2.153-31.779-0.678-45.394-7.303
			c-23.239-11.309-40.552-33.68-44.228-61.218c-2.977-22.318,3.58-43.708,16.532-60.069c11.305-14.282,27.488-24.732,46.454-28.616
			c1.82-0.374,3.665-0.687,5.536-0.936l15.105-4.082c-28.808-19.673-63.157-30.673-95.688-30.21
			c-0.888,0.013-1.776,0.035-2.666,0.065c-0.178,0.006-0.357,0.011-0.535,0.017c-0.253,0.009-0.506,0.021-0.76,0.031
			c-0.329,0.014-0.658,0.028-0.987,0.045c-0.152,0.007-0.306,0.016-0.459,0.024c-0.466,0.025-0.932,0.051-1.398,0.08
			c-0.033,0.002-0.065,0.005-0.099,0.007c-13.732,0.864-27.68,3.725-41.268,8.38c-0.243,0.083-0.485,0.168-0.728,0.253
			c-0.235,0.082-0.471,0.162-0.707,0.245c0,0,0,0,0.002,0c25.812,9.013,50.211,24.374,69.435,44.654
			c-0.16,0.17-0.322,0.337-0.479,0.509c-13.989,15.163-22.154,35.57-22.487,56.197c-0.409,25.262,12.006,53.894,31.636,70.017
			c7.865,6.46,16.402,10.862,25.314,13.462c-2.226,7.084-4.984,13.973-8.216,20.63c32.357,6.183,56.515,17.959,69.785,25.382
			c0.031,0.018,0.064,0.035,0.095,0.053c0.16,0.089,0.317,0.178,0.474,0.266c0.23,0.129,0.46,0.26,0.684,0.387v19.22
			C1061.357,430.633,1076.033,407.509,1083.752,381.904z"/>
		<path style="fill:#B21110;" d="M1028.305,381.979l-0.792,0.001c-16.132,2.153-31.779-0.678-45.394-7.303
			c-23.239-11.309-40.553-33.68-44.228-61.218c-2.977-22.317,3.58-43.708,16.531-60.069c11.306-14.283,27.488-24.732,46.454-28.616
			c-6.323-1.744-13.156-2.238-20.528-1.095c-8.756,1.358-16.936,5.128-24.144,10.341c-3.807,2.754-7.339,5.912-10.545,9.326
			c-0.16,0.17-0.323,0.337-0.48,0.509c-13.989,15.163-22.154,35.57-22.487,56.197c-0.408,25.262,12.008,53.894,31.637,70.018
			c7.865,6.46,16.402,10.861,25.314,13.461C995.244,388.083,1011.996,387.112,1028.305,381.979z"/>
		<path style="fill:#E52033;" d="M1234.797,356.015c11.767,13.458,32.108,15.835,49.662,12.455
			c26.138-5.033,49.974-21.068,64.486-43.383c16.886-25.964,26.267-75.242,2.377-100.462
			c-27.433-28.959-50.126,18.336-58.154,38.929c-9.016,23.127-24.94,43.511-45.198,57.855c-8.741,6.189-19.542,13.74-18.279,24.376
			C1230.148,349.628,1232.25,353.102,1234.797,356.015z"/>
		<path style="fill:#E52033;" d="M817.908,415.652c11.106-6.235,9.71-28.943,6.359-39.103c-10.438-31.648-2.023-66.748,12.88-96.557
			l0.023-0.046c7.777-15.547,17.564-31.39,16.57-48.745c-0.141-2.463-0.667-5.198-2.678-6.626c-1.491-1.059-3.461-1.137-5.28-0.946
			c-9.644,1.008-18.678,6.887-26.802,15.379c-10.281,10.744-19.103,25.676-25.864,40.229c-6.213,13.375-10.685,26.43-12.941,35.623
			c-7.239,29.493-4.34,62.141,11.687,87.936C797.524,411.91,808.551,420.903,817.908,415.652z"/>
		<path style="fill:#0083BD;" d="M713.053,1880.185c-12.425-39.761-31.199-77.084-53.443-112.395
			c-2.407-3.821-4.855-7.619-7.339-11.393c-11.505-17.477-23.804-34.46-36.534-51.002c-1.289-1.675-2.582-3.345-3.881-5.012
			c-15.726-20.193-32.156-39.837-49.244-58.891c-6.32-0.203-12.711-0.354-19.166-0.452c-5.813-0.088-11.677-0.133-17.585-0.133
			c-2.819,0-5.625,0.009-8.423,0.03c-0.071,0-0.141,0.001-0.213,0.001c-8.455,0.064-16.811,0.218-25.048,0.46
			c-8.642,0.254-17.153,0.605-25.514,1.046c-5.636,20.024-13.533,39.545-22.699,57.94c-4.125,8.279-8.506,16.328-13.054,24.094
			c-0.528,0.903-1.058,1.803-1.591,2.698c-6.172,10.364-12.729,20.48-19.507,30.454c-0.001,0.002-0.002,0.003-0.003,0.004
			c-2.599,3.826-5.231,7.631-7.887,11.421c-24.495,34.952-50.979,68.625-72.246,105.616c-15.167,26.381-27.607,55.413-34.002,85.154
			c-7.31,12.551-12.056,26.686-13.834,39.496c-3.738,26.908,2.301,54.5,13.276,79.35c13.556,30.699,34.492,56.127,59.965,75.819
			c51.674,39.947,122.011,56.281,187.26,45.097c69.345-11.886,136.2-53.131,169.438-117.889c-3.701,2.42-7.547,4.882-11.518,7.353
			c9.055-13.393,16.065-27.866,20.072-43.207C734.497,1991.616,729.647,1933.284,713.053,1880.185z"/>
		<path style="fill:#5694C3;" d="M430.659,1772.098c2.143-4.206,4.534-7.628,7.209-9.881c-3.632,3.092-7.16,6.287-10.592,9.57
			c-37.748,36.115-63.733,83.335-84.862,131.353c23.201,8.428,47.573,9.662,70.044,17.397c0.807,0.278,1.612,0.564,2.415,0.859
			c-4.731-26.91-5.439-53.228-0.955-80.291C416.399,1826.138,420.969,1791.12,430.659,1772.098z"/>
		<path style="fill:#02B3D9;" d="M700.26,2089.05c-48.409,30.128-115.589,61.603-168.774,32.862
			c-46.836-25.313-59.447-98.678-87.491-140.944c-22.994-34.655-64.033-65.537-105.942-56.085
			c-18.117,4.087-32.561,18.085-42.379,34.94c-7.31,12.551-12.056,26.686-13.834,39.496c-3.738,26.908,2.301,54.5,13.276,79.35
			c13.556,30.699,34.492,56.127,59.965,75.819c51.674,39.947,122.011,56.281,187.26,45.097
			c69.345-11.886,136.2-53.131,169.438-117.889C708.077,2084.117,704.231,2086.579,700.26,2089.05z"/>
		<path style="fill:#02B3D9;" d="M487.603,1952.299c41.407,32.779,116.74,43.281,149.582-6.732
			c4.414-6.72,8.153-13.594,11.271-20.593c-0.186-3.425-0.404-6.835-0.647-10.226c0.243,3.384,0.464,6.786,0.651,10.205
			c21.659-48.647,13.126-103.342-10.275-154.557c-1.8-3.94-3.689-7.859-5.659-11.755c-1.402-2.771-2.844-5.532-4.325-8.277
			c-0.516-0.63-1.036-1.258-1.556-1.886c0.536,0.646,1.072,1.295,1.605,1.943c-9.369-17.379-20.281-34.189-32.097-50.038
			c-16.395-21.988-34.532-42.121-52.705-59.344c-5.813-0.088-11.677-0.133-17.585-0.133c-2.819,0-5.625,0.009-8.423,0.03
			c-0.071,0-0.141,0.001-0.213,0.001c-8.455,0.064-16.811,0.218-25.048,0.46c-1.7,18.882-7.873,37.895-15.697,55.241
			c-0.564,1.251-1.138,2.5-1.719,3.745c-9.502,20.389-20.987,40.002-30.045,60.502c-1.749,3.959-3.408,7.951-4.944,11.99
			c-2.328,6.117-4.376,12.338-6.032,18.705C418.696,1849.429,440.738,1915.199,487.603,1952.299z"/>
		<path style="fill:#5694C3;" d="M696.198,1865.216c-9.344-25.623-21.731-50.149-36.924-72.802
			c-5.149-7.677-10.443-15.215-15.911-22.596c-2.848-3.844-5.742-7.644-8.691-11.396c-2.113-2.691-4.252-5.358-6.422-8
			c-0.613-0.745-1.226-1.49-1.843-2.231c-0.543-0.654-1.089-1.305-1.636-1.956c-0.28-0.333-0.559-0.667-0.839-0.999
			c-0.88-1.04-1.767-2.074-2.656-3.105c-0.216-0.251-0.433-0.501-0.65-0.752c-0.935-1.079-1.874-2.155-2.821-3.224
			c-0.023-0.026-0.046-0.053-0.069-0.079c-0.909-1.029-1.828-2.05-2.748-3.068c-0.334-0.369-0.668-0.738-1.004-1.107
			c-0.795-0.872-1.594-1.744-2.396-2.611c-0.127-0.136-0.253-0.274-0.379-0.411c-9.724-10.461-20.015-20.432-31.023-29.8
			c-0.009-0.007-0.018-0.016-0.028-0.023c12.539,18.815,23.367,38.719,32.447,59.395c1.736,3.956,3.408,7.941,5.016,11.95
			c0.446,1.11,0.886,2.225,1.323,3.34c13.511,34.575,22.267,71.023,26.076,107.937c0.844,8.211,1.667,16.677,2.354,25.302
			c0.011,0.128,0.02,0.254,0.031,0.381c0.056,0.727,0.113,1.454,0.169,2.183c0.019,0.246,0.038,0.494,0.056,0.74
			c0.028,0.373,0.055,0.747,0.083,1.122c0.282,3.83,0.532,7.69,0.742,11.567c2.56,47.147-0.81,97.16-27.598,135.346
			c26.869,7.785,56.942,3.742,80.8-10.866c2.769-1.696,5.528-3.595,7.337-6.293c2.19-3.268,2.746-7.336,3.088-11.255
			C717.086,1974.432,716.406,1920.627,696.198,1865.216z"/>
		<path style="fill:#50BBDB;" d="M638.184,1770.396c-1.8-3.94-3.689-7.859-5.659-11.754c-1.401-2.772-2.844-5.532-4.326-8.277
			c-0.595-0.727-1.193-1.451-1.793-2.173c-0.543-0.654-1.09-1.305-1.636-1.956c-0.28-0.333-0.559-0.667-0.839-0.999
			c-0.88-1.04-1.766-2.073-2.656-3.105c-0.216-0.25-0.433-0.501-0.65-0.752c-0.935-1.079-1.874-2.155-2.821-3.224
			c-0.023-0.026-0.045-0.052-0.069-0.079c-0.909-1.028-1.827-2.049-2.748-3.068c-0.334-0.369-0.668-0.738-1.004-1.106
			c-0.795-0.873-1.594-1.745-2.395-2.612c-0.127-0.137-0.253-0.274-0.38-0.412c-9.724-10.461-20.016-20.432-31.023-29.799
			c-0.008-0.008-0.018-0.016-0.027-0.024c12.538,18.815,23.367,38.72,32.446,59.396c1.737,3.956,3.408,7.94,5.017,11.95
			c0.446,1.111,0.886,2.224,1.322,3.339c13.512,34.575,22.268,71.023,26.076,107.937c0.845,8.211,1.668,16.676,2.355,25.302
			c0.011,0.128,0.021,0.255,0.031,0.382c0.057,0.727,0.114,1.454,0.169,2.183c0.019,0.246,0.038,0.494,0.055,0.74
			c0.029,0.374,0.056,0.748,0.083,1.122c0.282,3.824,0.534,7.675,0.747,11.546C670.118,1876.307,661.586,1821.611,638.184,1770.396z
			"/>
		<path style="fill:#50BBDB;" d="M574.359,1816.753c-21.747,3.537-34.66,35.406-28.84,71.178
			c5.819,35.773,28.167,61.905,49.914,58.368c21.747-3.539,34.66-35.406,28.84-71.178
			C618.455,1839.347,596.107,1813.215,574.359,1816.753z"/>
		<path style="fill:#50BBDB;" d="M360.79,2120.281c28.244-4.594,45.013-45.98,37.456-92.438c-7.558-46.458-36.58-80.395-64.823-75.8
			c-27.131,4.414-43.675,42.781-38.234,86.981c0.223,1.81,0.483,3.63,0.779,5.457c4.667,28.685,17.517,52.599,33.314,65.614
			C339.068,2118.158,349.987,2122.039,360.79,2120.281z"/>
		<path style="fill:#50BBDB;" d="M564.413,1739.869c-8.091,1.316-13.503,11.222-13.793,23.683c-0.065,2.83,0.132,5.793,0.624,8.817
			c0.198,1.218,0.439,2.411,0.717,3.575c3.46,14.462,12.884,24.57,22.073,23.075c8.268-1.345,13.737-11.655,13.805-24.496
			c0.013-2.583-0.191-5.268-0.636-8.004c-0.24-1.474-0.542-2.911-0.898-4.307C582.708,1748.142,573.448,1738.399,564.413,1739.869z"
			/>
	</g>
</g>
</svg>
